<svg width="155" height="155" viewBox="0 0 155 155" fill="none" xmlns="http://www.w3.org/2000/svg">
<g clip-path="url(#clip0)">
<path d="M41.3452 60.3044L71.2133 60.3044C72.1504 60.3044 72.9102 59.5447 72.9102 58.6076L72.9102 48.7563C72.9102 47.0555 71.5314 45.6768 69.8306 45.6768L38.2657 45.6768C17.0061 45.6768 -0.228181 62.911 -0.228182 84.1706L14.3995 84.1706C14.3995 69.2889 26.4635 60.3044 41.3452 60.3044Z" fill="white" stroke="white" stroke-width="1.85449" stroke-linecap="round" stroke-linejoin="round"/>
<path d="M41.3452 108.036L71.2133 108.036C72.1504 108.036 72.9102 108.796 72.9102 109.733L72.9102 119.585C72.9102 121.285 71.5314 122.664 69.8306 122.664L38.2657 122.664C17.0061 122.664 -0.228179 105.43 -0.228178 84.1702L14.5735 84.1702C16.1017 97.6017 27.5048 108.036 41.3452 108.036Z" stroke="white" stroke-width="1.85449" stroke-linecap="round" stroke-linejoin="round"/>
<path d="M139.15 53.0358L138.264 52.7625C138.384 52.3737 138.743 52.1085 139.15 52.1085V53.0358ZM139.932 47.3305V48.2577C139.663 48.2577 139.407 48.1407 139.231 47.9371C139.055 47.7335 138.976 47.4634 139.015 47.197L139.932 47.3305ZM123.117 53.0358V52.1085C123.524 52.1085 123.883 52.3737 124.003 52.7625L123.117 53.0358ZM122.335 47.3305L123.253 47.197C123.292 47.4634 123.213 47.7335 123.036 47.9371C122.86 48.1407 122.604 48.2577 122.335 48.2577V47.3305ZM148.364 66.2987L148.806 65.484C148.829 65.4965 148.852 65.5099 148.874 65.5243L148.364 66.2987ZM150.557 69.2132C150.557 69.7253 150.142 70.1405 149.63 70.1405C149.118 70.1405 148.703 69.7253 148.703 69.2132H150.557ZM135.229 57.805C135.086 57.3134 135.368 56.7986 135.86 56.6552C136.351 56.5117 136.866 56.794 137.01 57.2856L135.229 57.805ZM113.904 66.2987L113.394 65.5243C113.416 65.5099 113.438 65.4965 113.461 65.484L113.904 66.2987ZM113.565 69.2132C113.565 69.7253 113.15 70.1405 112.638 70.1405C112.125 70.1405 111.71 69.7253 111.71 69.2132H113.565ZM139.161 45.3146C139.179 44.8028 139.609 44.4024 140.12 44.4204C140.632 44.4383 141.033 44.8677 141.015 45.3795L139.161 45.3146ZM121.253 45.3795C121.235 44.8677 121.635 44.4383 122.147 44.4204C122.659 44.4024 123.088 44.8028 123.106 45.3146L121.253 45.3795ZM108.195 54.2969C108.195 66.9657 118.465 77.2358 131.134 77.2358V79.0903C117.441 79.0903 106.34 67.9899 106.34 54.2969H108.195ZM131.134 77.2358C143.803 77.2358 154.073 66.9657 154.073 54.2969H155.927C155.927 67.9899 144.827 79.0903 131.134 79.0903V77.2358ZM154.073 54.2969C154.073 41.628 143.803 31.3579 131.134 31.3579V29.5034C144.827 29.5034 155.927 40.6038 155.927 54.2969H154.073ZM131.134 31.3579C118.465 31.3579 108.195 41.628 108.195 54.2969H106.34C106.34 40.6038 117.441 29.5034 131.134 29.5034V31.3579ZM140.036 53.3091C139.672 54.491 138.808 56.2123 137.373 57.6525C135.922 59.1082 133.855 60.3023 131.134 60.3023V58.4478C133.261 58.4478 134.877 57.5288 136.059 56.3432C137.257 55.142 137.977 53.6936 138.264 52.7625L140.036 53.3091ZM139.15 52.1085C139.538 52.1085 139.841 51.9362 140.093 51.5943C140.362 51.2293 140.547 50.6917 140.597 50.104C140.648 49.5129 140.554 48.9796 140.382 48.6345C140.221 48.3095 140.063 48.2577 139.932 48.2577V46.4032C140.975 46.4032 141.673 47.0645 142.043 47.8093C142.403 48.534 142.516 49.4271 142.445 50.2623C142.373 51.1008 142.105 51.9896 141.586 52.6944C141.05 53.4222 140.229 53.963 139.15 53.963V52.1085ZM124.003 52.7625C124.334 53.8339 125.229 55.5659 126.743 56.8344L125.553 58.2562C123.713 56.7155 122.646 54.6527 122.231 53.3091L124.003 52.7625ZM126.743 56.8344C127.861 57.7706 129.306 58.4478 131.134 58.4478V60.3023C128.805 60.3023 126.951 59.427 125.553 58.2562L126.743 56.8344ZM123.117 53.963C122.039 53.963 121.218 53.4222 120.681 52.6944C120.162 51.9896 119.895 51.1008 119.823 50.2623C119.751 49.4271 119.865 48.534 120.225 47.8093C120.595 47.0645 121.293 46.4032 122.335 46.4032V48.2577C122.205 48.2577 122.047 48.3095 121.886 48.6345C121.714 48.9796 121.62 49.5129 121.67 50.104C121.721 50.6917 121.905 51.2293 122.174 51.5943C122.426 51.9362 122.73 52.1085 123.117 52.1085V53.963ZM138.442 59.8509L148.806 65.484L147.921 67.1134L137.557 61.4803L138.442 59.8509ZM148.874 65.5243C149.491 65.9308 149.9 66.6073 150.151 67.2273C150.41 67.8653 150.557 68.5824 150.557 69.2132H148.703C148.703 68.8449 148.611 68.3636 148.432 67.9236C148.247 67.4656 148.023 67.1844 147.854 67.073L148.874 65.5243ZM136.12 57.5453C137.01 57.2856 137.01 57.2855 137.01 57.2853C137.01 57.2853 137.01 57.2851 137.01 57.2851C137.009 57.2849 137.009 57.2848 137.009 57.2847C137.009 57.2845 137.009 57.2845 137.009 57.2846C137.009 57.2848 137.01 57.2856 137.01 57.2869C137.011 57.2894 137.012 57.2941 137.014 57.3008C137.018 57.3141 137.025 57.3354 137.034 57.3637C137.052 57.4204 137.08 57.5048 137.118 57.6096C137.193 57.8203 137.304 58.1076 137.449 58.4148C137.76 59.0771 138.14 59.6477 138.51 59.8912L137.489 61.44C136.659 60.893 136.099 59.9034 135.77 59.2032C135.594 58.8291 135.461 58.4846 135.371 58.2338C135.326 58.1078 135.292 58.004 135.268 57.9302C135.256 57.8932 135.247 57.8637 135.241 57.8425C135.237 57.832 135.235 57.8235 135.233 57.8172C135.232 57.814 135.231 57.8114 135.231 57.8094C135.23 57.8084 135.23 57.8075 135.23 57.8068C135.23 57.8064 135.23 57.8061 135.23 57.8058C135.23 57.8056 135.23 57.8054 135.23 57.8054C135.229 57.8052 135.229 57.805 136.12 57.5453ZM124.711 61.4803L114.347 67.1134L113.461 65.484L123.825 59.8509L124.711 61.4803ZM114.414 67.073C114.245 67.1844 114.021 67.4656 113.835 67.9236C113.657 68.3636 113.565 68.8449 113.565 69.2132H111.71C111.71 68.5824 111.858 67.8653 112.117 67.2273C112.368 66.6073 112.777 65.9308 113.394 65.5243L114.414 67.073ZM126.148 57.5453C127.038 57.805 127.038 57.8052 127.038 57.8054C127.038 57.8054 127.038 57.8056 127.038 57.8058C127.038 57.8061 127.038 57.8064 127.038 57.8068C127.037 57.8075 127.037 57.8084 127.037 57.8094C127.036 57.8114 127.036 57.814 127.035 57.8172C127.033 57.8235 127.03 57.832 127.027 57.8425C127.02 57.8637 127.011 57.8932 126.999 57.9302C126.976 58.004 126.941 58.1078 126.896 58.2337C126.807 58.4846 126.673 58.8291 126.497 59.2032C126.169 59.9034 125.609 60.893 124.778 61.44L123.758 59.8912C124.128 59.6477 124.508 59.0771 124.819 58.4148C124.963 58.1076 125.075 57.8203 125.15 57.6096C125.187 57.5048 125.215 57.4204 125.234 57.3637C125.243 57.3354 125.249 57.3141 125.253 57.3008C125.255 57.2941 125.257 57.2894 125.258 57.2869C125.258 57.2856 125.258 57.2848 125.258 57.2846C125.258 57.2845 125.258 57.2845 125.258 57.2847C125.258 57.2848 125.258 57.2849 125.258 57.2851C125.258 57.2851 125.258 57.2853 125.258 57.2853C125.258 57.2855 125.258 57.2856 126.148 57.5453ZM139.932 47.3305C139.015 47.197 139.015 47.1971 139.015 47.1972C139.015 47.1972 139.015 47.1973 139.015 47.1973C139.015 47.1974 139.015 47.1974 139.015 47.1975C139.015 47.1976 139.015 47.1976 139.015 47.1977C139.015 47.1977 139.015 47.1975 139.015 47.1972C139.015 47.1965 139.015 47.195 139.015 47.1928C139.016 47.1885 139.017 47.1811 139.018 47.171C139.021 47.1507 139.025 47.119 139.03 47.0766C139.041 46.9918 139.055 46.8644 139.072 46.6999C139.104 46.3706 139.141 45.8941 139.161 45.3146L141.015 45.3795C140.993 46.0026 140.953 46.5178 140.917 46.8796C140.9 47.0606 140.883 47.2035 140.871 47.3027C140.865 47.3523 140.86 47.391 140.856 47.4181C140.854 47.4317 140.853 47.4423 140.852 47.45C140.851 47.4538 140.851 47.4569 140.851 47.4592C140.85 47.4604 140.85 47.4613 140.85 47.4621C140.85 47.4625 140.85 47.4628 140.85 47.4631C140.85 47.4633 140.85 47.4634 140.85 47.4635C140.85 47.4636 140.85 47.4637 140.85 47.4637C140.85 47.4638 140.85 47.4639 139.932 47.3305ZM122.335 47.3305C121.418 47.4639 121.418 47.4638 121.418 47.4637C121.418 47.4637 121.418 47.4636 121.418 47.4635C121.418 47.4634 121.418 47.4633 121.418 47.4631C121.418 47.4628 121.417 47.4625 121.417 47.4621C121.417 47.4613 121.417 47.4604 121.417 47.4592C121.417 47.4569 121.416 47.4538 121.416 47.45C121.415 47.4423 121.413 47.4317 121.411 47.4181C121.408 47.391 121.403 47.3523 121.397 47.3027C121.384 47.2035 121.368 47.0606 121.35 46.8796C121.315 46.5178 121.275 46.0026 121.253 45.3795L123.106 45.3146C123.127 45.8941 123.164 46.3706 123.196 46.6999C123.212 46.8644 123.227 46.9918 123.237 47.0766C123.242 47.119 123.247 47.1507 123.249 47.171C123.251 47.1811 123.252 47.1885 123.252 47.1928C123.253 47.195 123.253 47.1965 123.253 47.1972C123.253 47.1975 123.253 47.1977 123.253 47.1977C123.253 47.1977 123.253 47.1976 123.253 47.1975C123.253 47.1974 123.253 47.1974 123.253 47.1973C123.253 47.1973 123.253 47.1972 123.253 47.1972C123.253 47.1971 123.253 47.197 122.335 47.3305ZM138.583 61.386C135.993 63.4846 133.757 64.7292 131.337 64.75C128.924 64.7707 126.557 63.5722 123.707 61.4035L124.83 59.9277C127.606 62.0405 129.552 62.9108 131.321 62.8956C133.084 62.8804 134.9 61.9842 137.416 59.9452L138.583 61.386Z" fill="white"/>
<path d="M133.443 45.0591C126.952 43.2395 126.17 41.0657 124.493 37.3026C123.747 41.4378 123.3 45.0591 119.72 45.0591C119.72 45.0591 119.72 33.7227 131.056 33.7227C142.393 33.7227 142.393 45.6558 142.393 45.6558C138.354 45.1367 135.974 43.5666 133.443 40.8825V45.0591Z" fill="white" stroke="white" stroke-width="1.85449" stroke-linecap="round" stroke-linejoin="round"/>
<circle r="0.927246" transform="matrix(-1 0 0 1 133.943 47.5615)" fill="white" stroke="white" stroke-width="0.532127"/>
<circle r="0.927246" transform="matrix(-1 0 0 1 126.783 47.5615)" fill="white" stroke="white" stroke-width="0.532127"/>
<path d="M141.912 46.3686V45.1753C141.912 39.2439 138.332 34.4355 131.172 34.4355C124.012 34.4355 120.433 39.2439 120.433 45.1753V47.562" stroke="white" stroke-width="1.85449"/>
<path d="M142.682 49.7172C142.682 55.6487 139.476 60.457 135.522 60.457" stroke="white" stroke-width="1.85449"/>
<path d="M141.321 53.3765L141.321 53.3765C142.12 53.4757 142.849 52.9078 142.949 52.1079L143.39 48.5553C143.489 47.7554 142.921 47.0265 142.121 46.9273L142.055 46.9191L142.169 45.9989L142.055 46.9191C141.255 46.8198 140.526 47.3878 140.427 48.1876L139.986 51.7403C139.887 52.5401 140.455 53.269 141.255 53.3683C141.255 53.3683 141.255 53.3683 141.255 53.3683L141.321 53.3765ZM120.3 46.9191L120.209 46.1793L120.3 46.9191L120.234 46.9273C119.435 47.0265 118.867 47.7554 118.966 48.5553L119.407 52.1079C119.506 52.9078 120.235 53.4757 121.035 53.3765L121.149 54.2967L121.035 53.3765L121.101 53.3683C121.901 53.269 122.469 52.5401 122.369 51.7403L121.928 48.1876C121.829 47.3878 121.1 46.8198 120.3 46.9191Z" fill="white" stroke="white" stroke-width="1.85449"/>
<path d="M134.375 60.4559C134.375 60.6028 134.494 60.7219 134.641 60.7219C134.788 60.7219 134.907 60.6028 134.907 60.4559C134.907 60.3089 134.788 60.1898 134.641 60.1898C134.494 60.1898 134.375 60.3089 134.375 60.4559Z" fill="white" stroke="white" stroke-width="1.85449"/>
<circle r="23.7088" transform="matrix(-1 0 0 1 114.965 121.278)" stroke="white" stroke-width="1.85449"/>
<path d="M125.936 114.349L126.477 131.094L121.28 127.629L120.162 126.474C122.532 124.638 123.182 123.051 123.049 121.278C126.514 123.01 126.73 114.938 124.204 115.503V111.462L119.008 105.688L109.192 106.842L106.305 111.462L105.727 115.503L104.572 116.081C103.952 119.646 104.193 121.055 106.882 121.278C107.124 123.224 108.153 124.247 109.769 125.897C109.113 128.022 107.374 129.071 103.995 130.516V114.349C103.995 114.349 103.417 103.378 114.965 103.378C126.514 103.378 125.936 114.349 125.936 114.349Z" fill="white" stroke="white" stroke-width="1.85449" stroke-linecap="round" stroke-linejoin="round"/>
<path d="M125.935 114.349C122.027 113.846 120.738 110.307 120.738 110.307C116.37 112.281 114.126 111.988 110.345 109.729C110.345 109.729 106.423 113.808 105.148 114.349C105.148 114.349 103.416 103.378 114.964 103.378C126.512 103.378 125.935 114.349 125.935 114.349Z" fill="white" stroke="white" stroke-width="1.85449" stroke-linecap="round" stroke-linejoin="round"/>
<path d="M110.141 125.576C108.518 124.217 107.568 122.381 107.208 121.212C104.37 121.212 104.18 115.691 106.451 115.691C106.451 115.691 106.341 114.935 106.3 113.771M110.141 125.576C111.358 126.596 112.954 127.347 114.966 127.347C119.658 127.347 122.093 123.257 122.723 121.212C125.562 121.212 125.751 115.691 123.48 115.691C123.48 115.691 123.59 114.935 123.631 113.771M110.141 125.576C110.141 125.576 109.483 127.831 108.321 128.596M121.61 128.596L131.64 134.047C132.4 134.548 132.865 135.445 132.865 136.412M121.61 128.596C120.448 127.831 119.79 125.576 119.79 125.576M121.61 128.596C116.669 132.6 113.767 132.739 108.321 128.596M108.321 128.596L98.2916 134.047C97.5307 134.548 97.0659 135.445 97.0659 136.412" stroke="white" stroke-width="1.85449" stroke-linecap="round" stroke-linejoin="round"/>
<circle r="0.927246" transform="matrix(-1 0 0 1 118.429 116.659)" fill="white" stroke="white" stroke-width="0.45514"/>
<circle r="0.927246" transform="matrix(-1 0 0 1 111.501 116.659)" fill="white" stroke="white" stroke-width="0.45514"/>
</g>
<defs>
<clipPath id="clip0">
<rect width="155" height="155" fill="white"/>
</clipPath>
</defs>
</svg>
