<svg width="155" height="155" viewBox="0 0 155 155" fill="none" xmlns="http://www.w3.org/2000/svg">
<path d="M105.983 78.0151C105.983 96.9475 102.763 114.044 97.5921 126.373C95.006 132.539 91.9502 137.469 88.6043 140.843C85.2619 144.214 81.6844 145.983 78.0157 145.983C74.347 145.983 70.7695 144.214 67.427 140.843C64.0812 137.469 61.0254 132.539 58.4392 126.373C53.2685 114.044 50.0483 96.9475 50.0483 78.0151C50.0483 59.0828 53.2685 41.9864 58.4392 29.6576C61.0254 23.4913 64.0812 18.5614 67.427 15.1871C70.7695 11.8162 74.347 10.0474 78.0157 10.0474C81.6844 10.0474 85.2619 11.8162 88.6043 15.1871C91.9502 18.5614 95.006 23.4913 97.5921 29.6576C102.763 41.9864 105.983 59.0828 105.983 78.0151Z" stroke="white" stroke-width="1.85449"/>
<ellipse cx="78.7972" cy="78.6994" rx="8.88118" ry="9.00014" fill="white"/>
<path d="M78.7966 91.6268C85.8603 91.6268 91.5655 85.8274 91.5655 78.6994C91.5655 71.5715 85.8603 65.772 78.7966 65.772C71.733 65.772 66.0278 71.5715 66.0278 78.6994C66.0278 85.8274 71.733 91.6268 78.7966 91.6268Z" stroke="white" stroke-width="1.85449"/>
<path d="M78.0156 106.37C59.3376 106.37 42.4718 103.108 30.3102 97.8696C24.2279 95.2499 19.3647 92.1543 16.0354 88.764C12.7102 85.3779 10.9585 81.747 10.9585 78.016C10.9585 74.285 12.7102 70.6541 16.0354 67.268C19.3647 63.8777 24.2279 60.7821 30.3102 58.1624C42.4718 52.9242 59.3376 49.6616 78.0156 49.6616C96.6937 49.6616 113.559 52.9243 125.721 58.1624C131.803 60.7821 136.667 63.8777 139.996 67.268C143.321 70.6541 145.073 74.285 145.073 78.016C145.073 81.747 143.321 85.3779 139.996 88.764C136.667 92.1543 131.803 95.2499 125.721 97.8696C113.559 103.108 96.6937 106.37 78.0156 106.37Z" stroke="white" stroke-width="1.85449"/>
<path d="M97.8529 98.028C84.5566 111.502 70.2709 121.359 57.9541 126.423C51.7937 128.956 46.1703 130.271 41.4345 130.273C36.705 130.274 32.9298 128.968 30.3298 126.333C27.7278 123.696 26.4359 119.864 26.437 115.062C26.4381 110.256 27.738 104.553 30.2381 98.3083C35.2368 85.8227 44.9645 71.3443 58.2606 57.8702C71.5569 44.3958 85.8425 34.5392 98.1594 29.4751C104.32 26.9423 109.943 25.6266 114.679 25.6255C119.408 25.6243 123.184 26.9304 125.784 29.5652C128.386 32.202 129.678 36.0346 129.676 40.8363C129.675 45.6419 128.375 51.3452 125.875 57.5898C120.877 70.0755 111.149 84.5539 97.8529 98.028Z" stroke="white" stroke-width="1.85449"/>
<path d="M58.2604 98.028C71.5567 111.502 85.8423 121.359 98.1592 126.423C104.32 128.956 109.943 130.271 114.679 130.273C119.408 130.274 123.183 128.968 125.784 126.333C128.385 123.696 129.677 119.864 129.676 115.062C129.675 110.256 128.375 104.553 125.875 98.3083C120.877 85.8227 111.149 71.3443 97.8527 57.8702C84.5564 44.3958 70.2708 34.5392 57.9539 29.4751C51.7936 26.9423 46.1701 25.6266 41.4343 25.6255C36.7048 25.6243 32.9296 26.9304 30.3296 29.5652C27.7276 32.202 26.4357 36.0346 26.4369 40.8363C26.438 45.6419 27.7379 51.3452 30.2379 57.5898C35.2366 70.0755 44.9644 84.5539 58.2604 98.028Z" stroke="white" stroke-width="1.85449"/>
<ellipse cx="36.9424" cy="100.98" rx="4.24902" ry="4.30594" fill="white"/>
<ellipse cx="69.5166" cy="34.9554" rx="4.24902" ry="4.30594" fill="white"/>
<ellipse cx="92.1807" cy="136.864" rx="4.24902" ry="4.30594" fill="white"/>
<ellipse cx="120.507" cy="69.4036" rx="4.24902" ry="4.30594" fill="white"/>
</svg>
