<svg width="155" height="155" viewBox="0 0 155 155" fill="none" xmlns="http://www.w3.org/2000/svg">
<g clip-path="url(#clip0)">
<path d="M69.4258 77.7849V25.3102C69.4258 23.304 71.0521 21.6777 73.0582 21.6777H144.908C146.914 21.6777 148.54 23.304 148.54 25.3102V77.7849C148.54 79.791 146.914 81.4173 144.908 81.4173H73.0582C71.0521 81.4173 69.4258 79.791 69.4258 77.7849Z" fill="#121213" stroke="white" stroke-width="1.81621"/>
<path d="M78.3066 36.2087C78.3066 34.4252 79.7524 32.9795 81.5358 32.9795H84.765C86.5484 32.9795 87.9941 34.4252 87.9941 36.2087V71.7295C87.9941 73.5129 86.5484 74.9587 84.765 74.9587H81.5358C79.7524 74.9587 78.3066 73.5129 78.3066 71.7295V36.2087Z" fill="white"/>
<path d="M91.2233 31.3649C91.2233 29.5815 92.6691 28.1357 94.4525 28.1357H97.6816C99.4651 28.1357 100.911 29.5815 100.911 31.3649V71.7295C100.911 73.5129 99.4651 74.9587 97.6816 74.9587H94.4525C92.6691 74.9587 91.2233 73.5129 91.2233 71.7295V31.3649Z" fill="white"/>
<path d="M104.14 48.318C104.14 46.5346 105.586 45.0889 107.369 45.0889H110.598C112.382 45.0889 113.827 46.5346 113.827 48.318V71.7295C113.827 73.5129 112.382 74.9587 110.598 74.9587H107.369C105.586 74.9587 104.14 73.5129 104.14 71.7295V48.318Z" fill="white"/>
<path d="M117.057 41.0524C117.057 39.269 118.502 37.8232 120.286 37.8232H123.515C125.298 37.8232 126.744 39.269 126.744 41.0524V71.7295C126.744 73.5129 125.298 74.9587 123.515 74.9587H120.286C118.502 74.9587 117.057 73.5129 117.057 71.7295V41.0524Z" fill="white"/>
<path d="M129.973 45.0889C129.973 43.3055 131.419 41.8597 133.202 41.8597H136.432C138.215 41.8597 139.661 43.3055 139.661 45.0889V71.7295C139.661 73.5129 138.215 74.9587 136.432 74.9587H133.202C131.419 74.9587 129.973 73.5129 129.973 71.7295V45.0889Z" fill="white"/>
<path d="M11.301 55.1803C11.301 53.1741 12.9273 51.5479 14.9334 51.5479H139.897C141.903 51.5479 143.53 53.1741 143.53 55.1803V139.611H11.301V55.1803Z" fill="#121213"/>
<path d="M11.301 139.611H143.53H153.2C153.702 139.611 154.108 140.017 154.108 140.519V141.561C154.108 143.567 152.482 145.194 150.476 145.194H4.35509C2.34896 145.194 0.722656 143.567 0.722656 141.561V140.519C0.722656 140.017 1.12923 139.611 1.63076 139.611H11.301Z" fill="#121213"/>
<path d="M143.53 139.611V55.1803C143.53 53.1741 141.903 51.5479 139.897 51.5479H14.9334C12.9273 51.5479 11.301 53.1741 11.301 55.1803V139.611M143.53 139.611H11.301M143.53 139.611H153.2C153.702 139.611 154.108 140.017 154.108 140.519V141.561C154.108 143.567 152.482 145.194 150.476 145.194H4.35509C2.34896 145.194 0.722656 143.567 0.722656 141.561V140.519C0.722656 140.017 1.12923 139.611 1.63076 139.611H11.301" stroke="black" stroke-width="1.81621"/>
<rect x="128.459" y="77.4813" width="3.02754" height="46.6213" rx="1.51377" stroke="white" stroke-width="1.81621" stroke-linejoin="round"/>
<rect x="129.166" y="110.479" width="1.61458" height="12.9167" rx="0.807292" fill="white"/>
<rect x="128.459" y="67.7929" width="3.02754" height="3.02754" rx="1.51377" stroke="white" stroke-width="1.81621" stroke-linejoin="round"/>
<rect x="128.459" y="130.763" width="3.02754" height="3.02754" rx="1.51377" fill="black" stroke="white" stroke-width="1.81621" stroke-linejoin="round"/>
<path d="M11.301 139.61H143.53H153.2C153.702 139.61 154.108 140.017 154.108 140.518V141.561C154.108 143.567 152.482 145.193 150.476 145.193H4.35509C2.34896 145.193 0.722656 143.567 0.722656 141.561V140.518C0.722656 140.017 1.12923 139.61 1.63076 139.61H11.301Z" fill="black" stroke="white" stroke-width="1.81621"/>
<path d="M91.5282 102.918C92.5514 103.122 93.5428 102.424 93.6041 101.383C93.6314 100.92 93.6452 100.454 93.6452 99.9847V99.9847C93.6452 99.5388 93.2572 99.1975 92.8131 99.2379L81.7305 100.245C81.5545 100.261 81.419 100.407 81.4097 100.583V100.583C81.4004 100.76 81.5196 100.917 81.6927 100.952L91.5282 102.918Z" fill="white"/>
<path d="M76.507 88.8236C75.9753 89.5763 74.9684 89.7953 74.1039 89.4758C72.8926 89.0283 71.5829 88.7839 70.2159 88.7839C65.0249 88.7839 60.658 92.3096 59.383 97.0954C59.1455 97.9866 58.3854 98.6841 57.4631 98.6841H48.7407C47.6986 98.6841 46.8636 97.806 47.0053 96.7736C48.5717 85.363 58.3664 76.5732 70.2159 76.5732C74.0959 76.5732 77.7555 77.5155 80.9782 79.1837C81.904 79.663 82.1387 80.8514 81.5372 81.7029L76.507 88.8236Z" fill="white"/>
<path d="M91.5282 102.918C92.5514 103.122 93.5428 102.424 93.6041 101.383C93.6314 100.92 93.6452 100.454 93.6452 99.9847V99.9847C93.6452 99.5388 93.2572 99.1975 92.8131 99.2379L81.7305 100.245C81.5545 100.261 81.419 100.407 81.4097 100.583V100.583C81.4004 100.76 81.5196 100.917 81.6927 100.952L91.5282 102.918Z" stroke="white" stroke-width="1.81621" stroke-linecap="round" stroke-linejoin="round"/>
<path d="M76.507 88.8236C75.9753 89.5763 74.9684 89.7953 74.1039 89.4758C72.8926 89.0283 71.5829 88.7839 70.2159 88.7839C65.0249 88.7839 60.658 92.3096 59.383 97.0954C59.1455 97.9866 58.3854 98.6841 57.4631 98.6841H48.7407C47.6986 98.6841 46.8636 97.806 47.0053 96.7736C48.5717 85.363 58.3664 76.5732 70.2159 76.5732C74.0959 76.5732 77.7555 77.5155 80.9782 79.1837C81.904 79.663 82.1387 80.8514 81.5372 81.7029L76.507 88.8236Z" stroke="white" stroke-width="1.81621" stroke-linecap="round" stroke-linejoin="round"/>
<path d="M137.239 139.543V140.451C137.74 140.451 138.147 140.044 138.147 139.543H137.239ZM17.7593 139.543H16.8512C16.8512 140.044 17.2578 140.451 17.7593 140.451V139.543ZM93.0899 94.8967L92.2034 95.0933L93.0899 94.8967ZM91.6998 96.7276L91.6177 95.8232L91.6177 95.8232L91.6998 96.7276ZM83.7853 83.0317L84.527 83.5556L84.527 83.5556L83.7853 83.0317ZM86.0677 82.7457L85.4534 83.4145L85.4534 83.4145L86.0677 82.7457ZM78.7059 92.6716L78.0186 93.2651L78.7059 92.6716ZM78.5291 90.4724L77.7874 89.9484L77.7874 89.9484L78.5291 90.4724ZM80.8037 96.2978L81.6611 95.9987L80.8037 96.2978ZM82.6203 97.5524L82.7024 98.4568L82.7024 98.4568L82.6203 97.5524ZM59.3379 102.701L60.2191 102.481L60.2191 102.481L59.3379 102.701ZM46.9771 102.985L46.0763 103.101L46.9771 102.985ZM80.3504 104.777L79.53 104.388L80.3504 104.777ZM82.2897 103.725L82.1117 104.615L82.1117 104.615L82.2897 103.725ZM92.4182 107.482L93.2785 107.772L92.4182 107.482ZM91.2317 105.512L91.4097 104.621L91.4097 104.621L91.2317 105.512ZM63.9403 85.2889C64.295 85.6436 64.87 85.6436 65.2246 85.2889C65.5792 84.9343 65.5792 84.3593 65.2246 84.0047L63.9403 85.2889ZM56.3137 76.378L56.9558 75.7359L56.9558 75.7359L56.3137 76.378ZM37.1345 74.0512C36.633 74.0512 36.2264 74.4578 36.2264 74.9593C36.2264 75.4608 36.633 75.8674 37.1345 75.8674V74.0512ZM89.4433 100.151C89.0887 99.7959 88.5137 99.7959 88.1591 100.151C87.8044 100.505 87.8044 101.08 88.1591 101.435L89.4433 100.151ZM99.4919 111.483L98.8498 112.125L98.8498 112.125L99.4919 111.483ZM116.249 113.81C116.751 113.81 117.157 113.404 117.157 112.902C117.157 112.4 116.751 111.994 116.249 111.994V113.81ZM19.3739 58.107H135.624V56.2908H19.3739V58.107ZM136.33 58.8135V139.543H138.147V58.8135H136.33ZM137.239 138.635H17.7593V140.451H137.239V138.635ZM18.6675 139.543V58.8135H16.8512V139.543H18.6675ZM135.624 58.107C136.014 58.107 136.33 58.4233 136.33 58.8135H138.147C138.147 57.4202 137.017 56.2908 135.624 56.2908V58.107ZM19.3739 56.2908C17.9807 56.2908 16.8512 57.4202 16.8512 58.8135H18.6675C18.6675 58.4233 18.9838 58.107 19.3739 58.107V56.2908ZM14.5301 52.456H140.301V50.6397H14.5301V52.456ZM142.622 54.777V139.611H144.438V54.777H142.622ZM143.53 138.703H11.301V140.519H143.53V138.703ZM12.2091 139.611V54.777H10.3929V139.611H12.2091ZM143.53 140.519H153.301V138.703H143.53V140.519ZM153.2 140.418V141.965H155.016V140.418H153.2ZM150.879 144.286H3.95183V146.102H150.879V144.286ZM1.63076 141.965V140.418H-0.185451V141.965H1.63076ZM1.52995 140.519H11.301V138.703H1.52995V140.519ZM1.63076 140.418C1.63076 140.474 1.58563 140.519 1.52995 140.519V138.703C0.582559 138.703 -0.185451 139.471 -0.185451 140.418H1.63076ZM153.301 140.519C153.245 140.519 153.2 140.474 153.2 140.418H155.016C155.016 139.471 154.248 138.703 153.301 138.703V140.519ZM153.2 141.965C153.2 143.246 152.161 144.286 150.879 144.286V146.102C153.164 146.102 155.016 144.249 155.016 141.965H153.2ZM140.301 52.456C141.582 52.456 142.622 53.4951 142.622 54.777H144.438C144.438 52.4921 142.586 50.6397 140.301 50.6397V52.456ZM3.95183 144.286C2.66994 144.286 1.63076 143.246 1.63076 141.965H-0.185451C-0.185451 144.249 1.66688 146.102 3.95183 146.102V144.286ZM14.5301 50.6397C12.2452 50.6397 10.3929 52.4921 10.3929 54.777H12.2091C12.2091 53.4951 13.2482 52.456 14.5301 52.456V50.6397ZM91.5579 107.191C88.5512 116.086 80.1309 122.489 70.2157 122.489V124.305C80.9325 124.305 90.0297 117.384 93.2785 107.772L91.5579 107.191ZM70.2157 122.489C58.7555 122.489 49.2943 113.935 47.8778 102.87L46.0763 103.101C47.6075 115.062 57.831 124.305 70.2157 124.305V122.489ZM48.5275 102.194H57.6425V100.378H48.5275V102.194ZM58.4568 102.92C59.7699 108.19 64.5357 112.094 70.2157 112.094V110.278C65.3884 110.278 61.3351 106.96 60.2191 102.481L58.4568 102.92ZM70.2157 112.094C75.0541 112.094 79.2288 109.261 81.1709 105.166L79.53 104.388C77.8774 107.872 74.3271 110.278 70.2157 110.278V112.094ZM82.1117 104.615L91.0537 106.402L91.4097 104.621L82.4677 102.834L82.1117 104.615ZM81.6611 95.9987C81.1541 94.5451 80.378 93.2184 79.3932 92.078L78.0186 93.2651C78.8567 94.2355 79.5159 95.3631 79.9462 96.5969L81.6611 95.9987ZM79.2708 90.9963L84.527 83.5556L83.0435 82.5077L77.7874 89.9484L79.2708 90.9963ZM85.4534 83.4145C88.785 86.4749 91.1899 90.5237 92.2034 95.0933L93.9765 94.7C92.8802 89.7572 90.2798 85.3818 86.6821 82.077L85.4534 83.4145ZM91.6177 95.8232L82.5381 96.648L82.7024 98.4568L91.782 97.632L91.6177 95.8232ZM92.2034 95.0933C92.2756 95.4187 92.0413 95.7847 91.6177 95.8232L91.782 97.632C93.2033 97.5029 94.3055 96.1832 93.9765 94.7L92.2034 95.0933ZM84.527 83.5556C84.7724 83.2082 85.2072 83.1883 85.4534 83.4145L86.6821 82.077C85.563 81.049 83.8677 81.341 83.0435 82.5077L84.527 83.5556ZM79.3932 92.078C79.0842 91.7202 79.0772 91.2704 79.2708 90.9963L77.7874 89.9484C77.0354 91.0129 77.2565 92.3826 78.0186 93.2651L79.3932 92.078ZM79.9462 96.5969C80.3298 97.6966 81.4037 98.5748 82.7024 98.4568L82.5381 96.648C82.2042 96.6783 81.8175 96.4469 81.6611 95.9987L79.9462 96.5969ZM57.6425 102.194C57.9777 102.194 58.342 102.46 58.4568 102.92L60.2191 102.481C59.9374 101.351 58.9471 100.378 57.6425 100.378V102.194ZM47.8778 102.87C47.8353 102.538 48.1034 102.194 48.5275 102.194V100.378C47.0988 100.378 45.8836 101.595 46.0763 103.101L47.8778 102.87ZM81.1709 105.166C81.3742 104.738 81.7831 104.549 82.1117 104.615L82.4677 102.834C81.1898 102.579 80.0289 103.336 79.53 104.388L81.1709 105.166ZM93.2785 107.772C93.7652 106.333 92.8102 104.901 91.4097 104.621L91.0537 106.402C91.4707 106.486 91.6648 106.875 91.5579 107.191L93.2785 107.772ZM65.2246 84.0047L56.9558 75.7359L55.6715 77.0201L63.9403 85.2889L65.2246 84.0047ZM52.8886 74.0512H37.1345V75.8674H52.8886V74.0512ZM88.1591 101.435L98.8498 112.125L100.134 110.841L89.4433 100.151L88.1591 101.435ZM102.917 113.81H116.249V111.994H102.917V113.81ZM98.8498 112.125C99.9284 113.204 101.391 113.81 102.917 113.81V111.994C101.873 111.994 100.872 111.579 100.134 110.841L98.8498 112.125ZM56.9558 75.7359C55.8771 74.6572 54.4141 74.0512 52.8886 74.0512V75.8674C53.9324 75.8674 54.9335 76.2821 55.6715 77.0201L56.9558 75.7359Z" fill="white"/>
<path d="M113.826 84.6465H96.7081C95.263 84.6465 93.8771 85.2205 92.8553 86.2424L86.3783 92.7194M62.9668 115.324L53.2606 125.03C52.2388 126.052 50.8529 126.626 49.4078 126.626H29.0605" stroke="white" stroke-width="1.81621" stroke-linecap="round" stroke-linejoin="round"/>
</g>
<defs>
<clipPath id="clip0">
<rect width="155" height="155" fill="white"/>
</clipPath>
</defs>
</svg>
