<svg width="82" height="81" viewBox="0 0 82 81" fill="none" xmlns="http://www.w3.org/2000/svg">
<path d="M15.6317 18.3057H44.779" stroke="#B3B3B3" stroke-width="2.18605" stroke-linecap="round" stroke-linejoin="round"/>
<path d="M15.6317 25.5933H44.779" stroke="#B3B3B3" stroke-width="2.18605" stroke-linecap="round" stroke-linejoin="round"/>
<path d="M15.6317 32.8799H44.779" stroke="#B3B3B3" stroke-width="2.18605" stroke-linecap="round" stroke-linejoin="round"/>
<path d="M15.6317 21.9497H44.779" stroke="#B3B3B3" stroke-width="2.18605" stroke-linecap="round" stroke-linejoin="round"/>
<path d="M15.6317 29.2363H44.779" stroke="#B3B3B3" stroke-width="2.18605" stroke-linecap="round" stroke-linejoin="round"/>
<path d="M15.6317 36.5234H44.779" stroke="#B3B3B3" stroke-width="2.18605" stroke-linecap="round" stroke-linejoin="round"/>
<path d="M62.402 19.9144C64.3339 17.5554 64.633 16.1081 64.75 11.8335C64.867 16.1081 65.1661 17.5554 67.098 19.9144C67.4159 20.3026 67.4159 20.8644 67.098 21.2526C65.1661 23.6116 64.867 25.0589 64.75 29.3335C64.633 25.0589 64.3339 23.6116 62.402 21.2526C62.0841 20.8644 62.0841 20.3026 62.402 19.9144Z" fill="#B3B3B3" stroke="#B3B3B3" stroke-linecap="round" stroke-linejoin="round"/>
<path d="M10.1667 8.2479L9.8131 7.89434L9.66666 8.04079V8.2479H10.1667ZM16.998 1.4165V0.916504H16.7909L16.6445 1.06295L16.998 1.4165ZM57.8421 64.0853L57.5667 64.5027L57.8421 64.0853ZM69.1453 71.997L68.8235 72.3796L69.1453 71.997ZM74.85 77.7842L74.462 78.0997L74.85 77.7842ZM78.2369 77.2018L77.7566 77.0631L78.2369 77.2018ZM80.7056 68.6516L81.186 68.7903H81.186L80.7056 68.6516ZM80.2199 66.9147L80.566 66.5539L80.2199 66.9147ZM74.6591 59.4474L75.1227 59.26V59.26L74.6591 59.4474ZM68.8697 43.3512L68.6479 43.7994C68.6602 43.8055 68.6728 43.8111 68.6856 43.8161L68.8697 43.3512ZM56.4636 38.9861L56.5215 38.4895L56.4636 38.9861ZM49.3333 41.1646L49.6077 41.5826H49.6077L49.3333 41.1646ZM48.7169 45.2608L48.566 45.7375L48.7169 45.2608ZM51.5012 47.4434L51.924 47.1764L51.5012 47.4434ZM50.8675 46.6249L50.5037 46.9679L50.5037 46.9679L50.8675 46.6249ZM56.4636 44.5626L56.2907 44.0935H56.2907L56.4636 44.5626ZM52.3283 48.5331L51.9491 48.8591L52.3283 48.5331ZM58.1669 45.5337L58.4498 45.1214H58.4498L58.1669 45.5337ZM60.0476 47.7162L60.5407 47.6332L60.0476 47.7162ZM55.8303 51.921L55.5053 52.3009V52.3009L55.8303 51.921ZM58.0172 51.7352L57.6269 51.4226L58.0172 51.7352ZM74.9386 37.7542L75.1114 38.2233L74.9386 37.7542ZM64.756 41.5067L64.5831 41.0375L64.756 41.5067ZM74.124 35.5806L74.302 36.0478V36.0478L74.124 35.5806ZM44.3333 47.7162L44.0171 47.3289C43.8533 47.4626 43.7914 47.6849 43.8623 47.8841C43.9333 48.0832 44.1219 48.2162 44.3333 48.2162V47.7162ZM49.02 52.8997L49.4347 52.6204L49.4347 52.6204L49.02 52.8997ZM75.6225 36.2539L76.0901 36.0767V36.0767L75.6225 36.2539ZM49.195 53.1604L49.6107 52.8826L49.6106 52.8826L49.195 53.1604ZM70.5833 6.83317L71.0831 6.81949C71.0757 6.54877 70.8541 6.33317 70.5833 6.33317C70.3125 6.33317 70.0909 6.54877 70.0835 6.81949L70.5833 6.83317ZM69.7952 10.0167L69.3925 9.72023L69.7952 10.0167ZM71.3714 10.0167L70.9688 10.3131L71.3714 10.0167ZM70.5833 14.3332L70.0835 14.3468C70.0909 14.6176 70.3125 14.8332 70.5833 14.8332C70.8541 14.8332 71.0757 14.6176 71.0831 14.3468L70.5833 14.3332ZM69.7952 11.1497L70.1978 10.8532L69.7952 11.1497ZM71.3714 11.1497L70.9688 10.8532L71.3714 11.1497ZM31.9394 46.3753C31.8521 46.1133 31.5689 45.9717 31.307 46.059C31.045 46.1463 30.9034 46.4295 30.9907 46.6915L31.9394 46.3753ZM32.217 48.7893L32.6913 48.6312L32.217 48.7893ZM32.3712 48.8213L32.7434 49.1552L32.3712 48.8213ZM36.0292 44.7431L35.657 44.4092V44.4092L36.0292 44.7431ZM36.3511 49.8215L36.7457 50.1285L36.3511 49.8215ZM38.9566 46.4716L38.5619 46.1646L38.5619 46.1646L38.9566 46.4716ZM39.0948 46.4651L39.4589 46.1224L39.0948 46.4651ZM40.9319 48.4166L41.2959 48.0739L40.9319 48.4166ZM41.0744 48.4041L40.6561 48.1302L41.0744 48.4041ZM43.4331 45.7142C43.5844 45.4832 43.5197 45.1733 43.2887 45.022C43.0576 44.8708 42.7477 44.9354 42.5965 45.1665L43.4331 45.7142ZM42.898 47.597C42.6295 47.6615 42.4641 47.9314 42.5286 48.1999C42.5931 48.4684 42.863 48.6338 43.1315 48.5693L42.898 47.597ZM44.8667 48.1527C45.1352 48.0882 45.3006 47.8183 45.2362 47.5498C45.1717 47.2812 44.9017 47.1158 44.6332 47.1803L44.8667 48.1527ZM3.23836 59.7847H38.3449V58.7847H3.23836V59.7847ZM0.916656 8.23821V57.463H1.91666V8.23821H0.916656ZM38.3449 59.7847C39.6272 59.7847 40.6667 58.7453 40.6667 57.463H39.6667C39.6667 58.193 39.0749 58.7847 38.3449 58.7847V59.7847ZM3.23836 58.7847C2.5084 58.7847 1.91666 58.193 1.91666 57.463H0.916656C0.916656 58.7453 1.95612 59.7847 3.23836 59.7847V58.7847ZM1.91666 8.23821C1.91666 7.50825 2.5084 6.9165 3.23836 6.9165V5.9165C1.95612 5.9165 0.916656 6.95597 0.916656 8.23821H1.91666ZM43.3449 57.2847C44.6272 57.2847 45.6667 56.2453 45.6667 54.963H44.6667C44.6667 55.693 44.0749 56.2847 43.3449 56.2847V57.2847ZM7.82169 56.2847C7.09174 56.2847 6.49999 55.693 6.49999 54.963H5.49999C5.49999 56.2452 6.53945 57.2847 7.82169 57.2847V56.2847ZM6.49999 5.32154C6.49999 4.59158 7.09174 3.99984 7.82169 3.99984V2.99984C6.53945 2.99984 5.49999 4.0393 5.49999 5.32154H6.49999ZM15.1763 7.7479H10.1667V8.7479H15.1763V7.7479ZM9.66666 8.2479V52.4628H10.6667V8.2479H9.66666ZM47.5116 0.916504H16.998V1.9165H47.5116V0.916504ZM16.498 1.4165V6.42619H17.4981V1.4165H16.498ZM11.9884 53.7845C11.2584 53.7845 10.6667 53.1928 10.6667 52.4628H9.66666C9.66666 53.745 10.7061 54.7845 11.9884 54.7845V53.7845ZM15.1763 8.7479C16.4586 8.7479 17.4981 7.70844 17.4981 6.42619H16.498C16.498 7.15615 15.9063 7.7479 15.1763 7.7479V8.7479ZM49.8333 3.23821C49.8333 1.95596 48.7939 0.916504 47.5116 0.916504V1.9165C48.2416 1.9165 48.8333 2.50825 48.8333 3.23821H49.8333ZM57.5667 64.5027C61.74 67.2559 63.3393 67.7666 68.8235 72.3796L69.4672 71.6144C63.9239 66.9516 62.2148 66.3711 58.1174 63.6679L57.5667 64.5027ZM68.8235 72.3796C71.2066 74.3842 73.1014 76.4265 74.462 78.0997L75.2379 77.4688C73.8434 75.7539 71.9051 73.665 69.4672 71.6144L68.8235 72.3796ZM78.7173 77.3405L81.186 68.7903L80.2252 68.5129L77.7566 77.0631L78.7173 77.3405ZM80.566 66.5539C78.8427 64.9007 76.2137 61.9592 75.1227 59.26L74.1956 59.6348C75.3703 62.541 78.132 65.6047 79.8737 67.2755L80.566 66.5539ZM75.1227 59.26C74.7302 58.2891 74.4275 56.9202 74.1295 55.3433C73.8355 53.7872 73.547 52.0344 73.1833 50.3717C72.8191 48.7072 72.37 47.0844 71.737 45.7651C71.1074 44.4527 70.2591 43.3635 69.0537 42.8863L68.6856 43.8161C69.5479 44.1574 70.2503 44.9779 70.8354 46.1976C71.4172 47.4103 71.8469 48.942 72.2064 50.5854C72.5663 52.2307 72.8465 53.9392 73.1469 55.529C73.4434 57.098 73.761 58.5596 74.1956 59.6348L75.1227 59.26ZM56.5215 38.4895C54.086 38.206 51.183 39.3525 49.059 40.7466L49.6077 41.5826C51.6477 40.2436 54.3087 39.2386 56.4058 39.4828L56.5215 38.4895ZM49.059 40.7466C47.9183 41.4953 46.9517 42.3478 46.3755 43.1518C46.089 43.5515 45.8734 43.9744 45.8083 44.3925C45.7397 44.833 45.8409 45.2736 46.1871 45.6162L46.8905 44.9055C46.8096 44.8254 46.7686 44.725 46.7964 44.5463C46.8277 44.3452 46.9473 44.0705 47.1882 43.7343C47.6669 43.0664 48.5247 42.2934 49.6077 41.5826L49.059 40.7466ZM48.8677 44.7842C47.9393 44.4903 46.9861 44.4817 46.3171 44.8127L46.7605 45.709C47.1151 45.5335 47.7792 45.4885 48.566 45.7375L48.8677 44.7842ZM51.924 47.1764C51.7145 46.8447 51.4812 46.547 51.2313 46.2819L50.5037 46.9679C50.7102 47.1869 50.9038 47.4339 51.0785 47.7104L51.924 47.1764ZM51.2313 46.282C50.5205 45.528 49.6775 45.0404 48.8677 44.7841L48.566 45.7375C49.2217 45.9451 49.9157 46.3442 50.5037 46.9679L51.2313 46.282ZM56.2907 44.0935L50.6946 46.1558L51.0404 47.0941L56.6365 45.0318L56.2907 44.0935ZM52.7075 48.2072C52.3863 47.8335 52.1188 47.4849 51.924 47.1764L51.0785 47.7104C51.3087 48.0749 51.6098 48.4643 51.9491 48.8591L52.7075 48.2072ZM56.2553 45.0171C56.6801 45.2119 57.2941 45.5411 57.884 45.9459L58.4498 45.1214C57.8079 44.6809 57.1433 44.3242 56.672 44.1081L56.2553 45.0171ZM57.884 45.9459C58.316 46.2424 58.7206 46.5696 59.0275 46.9034C59.3411 47.2445 59.5124 47.5492 59.5545 47.7993L60.5407 47.6332C60.4518 47.1059 60.1327 46.628 59.7637 46.2266C59.3879 45.8178 58.9176 45.4424 58.4498 45.1214L57.884 45.9459ZM52.7031 48.8641C53.1989 48.3027 54.0806 47.4779 55.0902 46.8514C56.117 46.2144 57.1763 45.8441 58.0681 46.0238L58.2657 45.0435C56.9913 44.7867 55.6531 45.3253 54.563 46.0017C53.4558 46.6887 52.5013 47.5819 51.9535 48.2022L52.7031 48.8641ZM56.1554 51.5411C55.7521 51.196 55.3137 50.8094 54.8726 50.403L54.195 51.1384C54.6463 51.5542 55.0939 51.9489 55.5053 52.3009L56.1554 51.5411ZM54.8726 50.403C54.0956 49.6872 53.3173 48.9167 52.7075 48.2072L51.9491 48.8591C52.5946 49.6099 53.4041 50.4098 54.195 51.1384L54.8726 50.403ZM59.5545 47.7993C59.576 47.9265 59.561 48.1201 59.4799 48.3885L60.4371 48.6778C60.5406 48.3354 60.598 47.9734 60.5407 47.6332L59.5545 47.7993ZM59.4799 48.3885C59.2189 49.2522 58.4245 50.4266 57.6269 51.4226L58.4075 52.0477C59.2066 51.0497 60.1151 49.7436 60.4371 48.6778L59.4799 48.3885ZM54.9769 51.0025C55.2837 50.4158 55.9038 49.6073 56.7385 49.1041C57.5491 48.6156 58.5572 48.4124 59.7413 48.9835L60.1757 48.0828C58.6419 47.3431 57.2756 47.6128 56.2223 48.2477C55.1931 48.868 54.4597 49.8336 54.0908 50.539L54.9769 51.0025ZM74.7657 37.285L64.5831 41.0375L64.9289 41.9759L75.1114 38.2233L74.7657 37.285ZM64.5831 41.0375L56.2907 44.0935L56.6365 45.0318L64.9289 41.9759L64.5831 41.0375ZM69.0914 42.9031C68.1068 42.4159 66.6193 41.7312 64.9459 41.0442L64.5661 41.9692C66.2184 42.6476 67.6846 43.3227 68.6479 43.7994L69.0914 42.9031ZM61.8273 39.8562C59.9595 39.2058 58.0638 38.6691 56.5215 38.4895L56.4058 39.4828C57.8382 39.6496 59.6518 40.1575 61.4984 40.8006L61.8273 39.8562ZM48.8949 45.7281L61.8408 40.7956L61.4848 39.8611L48.5388 44.7936L48.8949 45.7281ZM61.8408 40.7956L74.302 36.0478L73.946 35.1134L61.4848 39.8611L61.8408 40.7956ZM46.3171 44.8127C46.0488 44.9454 45.7813 45.1365 45.5895 45.4332C45.3954 45.7333 45.3086 46.0953 45.323 46.5173L46.3224 46.483C46.3135 46.2214 46.3678 46.0711 46.4292 45.9761C46.4929 45.8777 46.5951 45.7908 46.7605 45.709L46.3171 44.8127ZM45.5065 46.1128L44.0171 47.3289L44.6495 48.1035L46.139 46.8874L45.5065 46.1128ZM45.323 46.5173C45.3364 46.9084 45.4367 47.3597 45.6252 47.8851L46.5665 47.5474C46.3988 47.0801 46.3311 46.7357 46.3224 46.483L45.323 46.5173ZM45.6252 47.8851C46.0523 49.0753 46.9735 50.7567 48.6053 53.1791L49.4347 52.6204C47.813 50.2131 46.9499 48.6159 46.5665 47.5474L45.6252 47.8851ZM44.3333 48.2162H46.0959V47.2162H44.3333V48.2162ZM75.155 36.4311C75.2851 36.7744 75.1102 37.1581 74.7657 37.285L75.1114 38.2233C75.9776 37.9042 76.4172 36.9399 76.0901 36.0767L75.155 36.4311ZM76.0901 36.0767C75.7647 35.218 74.8041 34.7864 73.946 35.1134L74.302 36.0478C74.6434 35.9178 75.0255 36.0895 75.155 36.4311L76.0901 36.0767ZM81.186 68.7903C81.4202 67.9789 81.159 67.1228 80.566 66.5539L79.8737 67.2755C80.2152 67.6031 80.3501 68.0802 80.2252 68.5129L81.186 68.7903ZM74.462 78.0997C75.0596 78.8345 75.996 79.0821 76.82 78.9468C77.6465 78.8111 78.4481 78.273 78.7173 77.3405L77.7566 77.0631C77.6167 77.5475 77.1901 77.8727 76.658 77.96C76.1234 78.0478 75.5708 77.8782 75.2379 77.4688L74.462 78.0997ZM55.5053 52.3009C56.3703 53.0411 57.6808 52.9553 58.4075 52.0477L57.6269 51.4226C57.2684 51.8704 56.6096 51.9298 56.1554 51.5411L55.5053 52.3009ZM7.82169 57.2847H40.1667V56.2847H7.82169V57.2847ZM40.1667 57.2847H43.3449V56.2847H40.1667V57.2847ZM40.6667 57.463V56.7847H39.6667V57.463H40.6667ZM11.9884 54.7845H45.1667V53.7845H11.9884V54.7845ZM45.1667 54.7845H47.5116V53.7845H45.1667V54.7845ZM45.6667 54.963V54.2845H44.6667V54.963H45.6667ZM5.49999 5.32154V6.4165H6.49999V5.32154H5.49999ZM5.49999 6.4165V54.963H6.49999V6.4165H5.49999ZM5.99999 5.9165H3.23836V6.9165H5.99999V5.9165ZM14.9147 2.99984H7.82169V3.99984H14.9147V2.99984ZM10.5202 8.60145L15.2683 3.85339L14.5612 3.14628L9.8131 7.89434L10.5202 8.60145ZM15.2683 3.85339L17.3516 1.77006L16.6445 1.06295L14.5612 3.14628L15.2683 3.85339ZM49.8333 41.1646V3.23821H48.8333V41.1646H49.8333ZM48.6053 53.1791C48.664 53.2662 48.722 53.3526 48.7793 53.4383L49.6106 52.8826C49.5527 52.7959 49.4941 52.7085 49.4347 52.6204L48.6053 53.1791ZM48.7793 53.4383C49.7017 54.8184 50.4475 56.0208 51.114 57.0954C51.7787 58.1671 52.3694 59.1197 52.9732 59.9838C54.1915 61.7273 55.469 63.1187 57.5667 64.5027L58.1174 63.6679C56.1431 62.3655 54.9524 61.0704 53.7929 59.411C53.2078 58.5737 52.6321 57.6458 51.9638 56.5684C51.2974 55.4939 50.5436 54.2785 49.6107 52.8826L48.7793 53.4383ZM47.5116 54.7845C48.4797 54.7845 49.3082 54.1922 49.6568 53.3521L48.7331 52.9688C48.5341 53.4486 48.0615 53.7845 47.5116 53.7845V54.7845ZM70.0835 6.81949C70.0608 7.64906 70.0223 8.18379 69.9229 8.61024C69.8282 9.01635 69.6749 9.33667 69.3925 9.72023L70.1978 10.3131C70.549 9.83619 70.7671 9.39347 70.8967 8.83729C71.0217 8.30146 71.0605 7.67468 71.0831 6.84685L70.0835 6.81949ZM70.0835 6.84685C70.1062 7.67468 70.145 8.30146 70.2699 8.83729C70.3995 9.39347 70.6177 9.8362 70.9688 10.3131L71.7741 9.72023C71.4917 9.33667 71.3384 9.01635 71.2438 8.61024C71.1443 8.18379 71.1058 7.64906 71.0831 6.81949L70.0835 6.84685ZM71.0831 14.3195C71.0605 13.4917 71.0217 12.8649 70.8967 12.329C70.7671 11.7729 70.549 11.3301 70.1978 10.8532L69.3925 11.4461C69.6749 11.8297 69.8282 12.15 69.9229 12.5561C70.0223 12.9825 70.0608 13.5173 70.0835 14.3468L71.0831 14.3195ZM71.0831 14.3468C71.1058 13.5173 71.1443 12.9825 71.2438 12.5561C71.3384 12.15 71.4917 11.8297 71.7741 11.4461L70.9688 10.8532C70.6177 11.3301 70.3995 11.7729 70.2699 12.329C70.145 12.8649 70.1062 13.4917 70.0835 14.3195L71.0831 14.3468ZM70.9688 10.3131C71.0869 10.4735 71.0869 10.6928 70.9688 10.8532L71.7741 11.4461C72.1518 10.9331 72.1518 10.2332 71.7741 9.72023L70.9688 10.3131ZM69.3925 9.72023C69.0148 10.2332 69.0148 10.9331 69.3925 11.4461L70.1978 10.8532C70.0798 10.6928 70.0798 10.4735 70.1978 10.3131L69.3925 9.72023ZM30.9907 46.6915L31.7426 48.9474L32.6913 48.6312L31.9394 46.3753L30.9907 46.6915ZM32.7434 49.1552L36.4014 45.0769L35.657 44.4092L31.999 48.4875L32.7434 49.1552ZM35.6881 44.8039V49.7656H36.6881V44.8039H35.6881ZM36.7457 50.1285L39.3513 46.7786L38.5619 46.1646L35.9564 49.5145L36.7457 50.1285ZM38.7307 46.8078L40.5678 48.7594L41.2959 48.0739L39.4589 46.1224L38.7307 46.8078ZM41.4927 48.678L43.4331 45.7142L42.5965 45.1665L40.6561 48.1302L41.4927 48.678ZM43.1315 48.5693L44.8667 48.1527L44.6332 47.1803L42.898 47.597L43.1315 48.5693ZM40.5678 48.7593C40.8299 49.0378 41.2833 48.9978 41.4927 48.678L40.6561 48.1302C40.801 47.9089 41.1146 47.8813 41.2959 48.0739L40.5678 48.7593ZM39.3513 46.7786C39.1972 46.9766 38.9027 46.9905 38.7307 46.8078L39.4589 46.1224C39.2103 45.8583 38.7846 45.8783 38.5619 46.1646L39.3513 46.7786ZM35.6881 49.7656C35.6881 50.3284 36.4002 50.5727 36.7457 50.1285L35.9564 49.5145C36.1954 49.2072 36.6881 49.3762 36.6881 49.7656H35.6881ZM36.4014 45.0769C36.151 45.3561 35.6881 45.179 35.6881 44.8039H36.6881C36.6881 44.2616 36.019 44.0056 35.657 44.4092L36.4014 45.0769ZM31.7426 48.9474C31.8861 49.3777 32.4406 49.4928 32.7434 49.1552L31.999 48.4875C32.2085 48.2539 32.5921 48.3336 32.6913 48.6312L31.7426 48.9474Z" fill="white"/>
</svg>
