<svg width="82" height="82" viewBox="0 0 82 82" fill="none" xmlns="http://www.w3.org/2000/svg">
<path fill-rule="evenodd" clip-rule="evenodd" d="M10.1666 36.8332V77.6665H71.8332V41.8332H53.9166C52.7679 41.3401 52.271 40.9198 51.8332 39.7498V35.1665H31.4166C31.3065 35.7605 31.0646 36.1131 29.7499 36.8332H10.1666ZM15.1666 40.9998C14.2461 40.9998 13.4999 41.746 13.4999 42.6665V70.1665C13.4999 71.087 14.2461 71.8332 15.1666 71.8332H42.6666C43.587 71.8332 44.3332 71.087 44.3332 70.1665V42.6665C44.3332 41.746 43.587 40.9998 42.6666 40.9998H15.1666ZM50.1666 48.4998C49.2461 48.4998 48.4999 49.246 48.4999 50.1665V62.6665C48.4999 63.587 49.2461 64.3332 50.1666 64.3332H67.6666C68.587 64.3332 69.3332 63.587 69.3332 62.6665V50.1665C69.3332 49.246 68.587 48.4998 67.6666 48.4998H50.1666Z" fill="#B3B3B3"/>
<path d="M6.83318 77.7021H75.0803H80.0401C80.3162 77.7021 80.5401 77.926 80.5401 78.2021V78.5836C80.5401 79.6882 79.6446 80.5836 78.5401 80.5836H3.37341C2.26884 80.5836 1.37341 79.6882 1.37341 78.5836V78.2021C1.37341 77.926 1.59727 77.7021 1.87341 77.7021H6.83318Z" fill="white" stroke="white"/>
<path d="M63.354 36.0588C63.2434 35.8058 62.9486 35.6903 62.6956 35.8009C62.4425 35.9114 62.327 36.2062 62.4376 36.4592L63.354 36.0588ZM69.0415 36.4592C69.152 36.2062 69.0365 35.9114 68.7835 35.8009C68.5304 35.6903 68.2357 35.8058 68.1251 36.0588L69.0415 36.4592ZM4.24999 5.99984C4.24999 6.27598 4.47385 6.49984 4.74999 6.49984C5.02613 6.49984 5.24999 6.27598 5.24999 5.99984H4.24999ZM5.24999 1.4165C5.24999 1.14036 5.02613 0.916504 4.74999 0.916504C4.47385 0.916504 4.24999 1.14036 4.24999 1.4165H5.24999ZM10.0833 5.99984C10.0833 6.27598 10.3072 6.49984 10.5833 6.49984C10.8595 6.49984 11.0833 6.27598 11.0833 5.99984H10.0833ZM11.0833 1.4165C11.0833 1.14036 10.8595 0.916504 10.5833 0.916504C10.3072 0.916504 10.0833 1.14036 10.0833 1.4165H11.0833ZM15.9167 5.99984C15.9167 6.27598 16.1405 6.49984 16.4167 6.49984C16.6928 6.49984 16.9167 6.27598 16.9167 5.99984H15.9167ZM16.9167 1.4165C16.9167 1.14036 16.6928 0.916504 16.4167 0.916504C16.1405 0.916504 15.9167 1.14036 15.9167 1.4165H16.9167ZM21.75 5.99984C21.75 6.27598 21.9738 6.49984 22.25 6.49984C22.5261 6.49984 22.75 6.27598 22.75 5.99984H21.75ZM22.75 1.4165C22.75 1.14036 22.5261 0.916504 22.25 0.916504C21.9738 0.916504 21.75 1.14036 21.75 1.4165H22.75ZM27.5833 5.99984C27.5833 6.27598 27.8072 6.49984 28.0833 6.49984C28.3595 6.49984 28.5833 6.27598 28.5833 5.99984H27.5833ZM28.5833 1.4165C28.5833 1.14036 28.3595 0.916504 28.0833 0.916504C27.8072 0.916504 27.5833 1.14036 27.5833 1.4165H28.5833ZM51.4167 53.4165C51.1405 53.4165 50.9167 53.6404 50.9167 53.9165C50.9167 54.1926 51.1405 54.4165 51.4167 54.4165V53.4165ZM66.4166 54.4165C66.6928 54.4165 66.9166 54.1926 66.9166 53.9165C66.9166 53.6404 66.6928 53.4165 66.4166 53.4165V54.4165ZM51.4167 50.9165C51.1405 50.9165 50.9167 51.1404 50.9167 51.4165C50.9167 51.6926 51.1405 51.9165 51.4167 51.9165V50.9165ZM66.4166 51.9165C66.6928 51.9165 66.9166 51.6926 66.9166 51.4165C66.9166 51.1404 66.6928 50.9165 66.4166 50.9165V51.9165ZM51.4167 55.9165C51.1405 55.9165 50.9167 56.1404 50.9167 56.4165C50.9167 56.6926 51.1405 56.9165 51.4167 56.9165V55.9165ZM66.4166 56.9165C66.6928 56.9165 66.9166 56.6926 66.9166 56.4165C66.9166 56.1404 66.6928 55.9165 66.4166 55.9165V56.9165ZM51.4167 58.4165C51.1405 58.4165 50.9167 58.6404 50.9167 58.9165C50.9167 59.1926 51.1405 59.4165 51.4167 59.4165V58.4165ZM66.4166 59.4165C66.6928 59.4165 66.9166 59.1926 66.9166 58.9165C66.9166 58.6404 66.6928 58.4165 66.4166 58.4165V59.4165ZM51.4167 60.9165C51.1405 60.9165 50.9167 61.1404 50.9167 61.4165C50.9167 61.6926 51.1405 61.9165 51.4167 61.9165V60.9165ZM66.4166 61.9165C66.6928 61.9165 66.9166 61.6926 66.9166 61.4165C66.9166 61.1404 66.6928 60.9165 66.4166 60.9165V61.9165ZM65.7395 37.6201C64.6734 37.6201 63.7559 36.9788 63.354 36.0588L62.4376 36.4592C62.9929 37.7303 64.2618 38.6201 65.7395 38.6201V37.6201ZM68.1251 36.0588C67.7232 36.9788 66.8057 37.6201 65.7395 37.6201V38.6201C67.2173 38.6201 68.4861 37.7303 69.0415 36.4592L68.1251 36.0588ZM54.3148 15.6665H77.2685V14.6665H54.3148V15.6665ZM79.25 17.648V39.3609H80.25V17.648H79.25ZM54.3148 41.3424C53.2205 41.3424 52.3333 40.4553 52.3333 39.3609H51.3333C51.3333 41.0076 52.6682 42.3424 54.3148 42.3424V41.3424ZM79.25 39.3609C79.25 40.4553 78.3628 41.3424 77.2685 41.3424V42.3424C78.9151 42.3424 80.25 41.0076 80.25 39.3609H79.25ZM77.2685 15.6665C78.3628 15.6665 79.25 16.5536 79.25 17.648H80.25C80.25 16.0014 78.9151 14.6665 77.2685 14.6665V15.6665ZM54.3148 14.6665C52.6682 14.6665 51.3333 16.0014 51.3333 17.648H52.3333C52.3333 16.5536 53.2205 15.6665 54.3148 15.6665V14.6665ZM3.08332 4.4165H29.75V3.4165H3.08332V4.4165ZM1.91665 35.1665V5.58317H0.916655V35.1665H1.91665ZM3.08332 36.3332C2.43899 36.3332 1.91665 35.8108 1.91665 35.1665H0.916655C0.916655 36.3631 1.88671 37.3332 3.08332 37.3332V36.3332ZM30.9167 35.1665C30.9167 35.8108 30.3943 36.3332 29.75 36.3332V37.3332C30.9466 37.3332 31.9167 36.3631 31.9167 35.1665H30.9167ZM29.75 4.4165C30.3943 4.4165 30.9167 4.93884 30.9167 5.58317H31.9167C31.9167 4.38655 30.9466 3.4165 29.75 3.4165V4.4165ZM3.08332 3.4165C1.8867 3.4165 0.916655 4.38655 0.916655 5.58317H1.91665C1.91665 4.93884 2.43899 4.4165 3.08332 4.4165V3.4165ZM5.24999 5.99984V1.4165H4.24999V5.99984H5.24999ZM11.0833 5.99984V1.4165H10.0833V5.99984H11.0833ZM16.9167 5.99984V1.4165H15.9167V5.99984H16.9167ZM22.75 5.99984V1.4165H21.75V5.99984H22.75ZM28.5833 5.99984V1.4165H27.5833V5.99984H28.5833ZM5.58332 10.6665H7.24999V9.6665H5.58332V10.6665ZM7.58332 10.9998V12.6665H8.58332V10.9998H7.58332ZM7.24999 12.9998H5.58332V13.9998H7.24999V12.9998ZM5.24999 12.6665V10.9998H4.24999V12.6665H5.24999ZM5.58332 12.9998C5.39923 12.9998 5.24999 12.8506 5.24999 12.6665H4.24999C4.24999 13.4029 4.84694 13.9998 5.58332 13.9998V12.9998ZM7.58332 12.6665C7.58332 12.8506 7.43408 12.9998 7.24999 12.9998V13.9998C7.98637 13.9998 8.58332 13.4029 8.58332 12.6665H7.58332ZM7.24999 10.6665C7.43408 10.6665 7.58332 10.8157 7.58332 10.9998H8.58332C8.58332 10.2635 7.98637 9.6665 7.24999 9.6665V10.6665ZM5.58332 9.6665C4.84694 9.6665 4.24999 10.2635 4.24999 10.9998H5.24999C5.24999 10.8157 5.39923 10.6665 5.58332 10.6665V9.6665ZM10.5833 10.6665H12.25V9.6665H10.5833V10.6665ZM12.5833 10.9998V12.6665H13.5833V10.9998H12.5833ZM12.25 12.9998H10.5833V13.9998H12.25V12.9998ZM10.25 12.6665V10.9998H9.24999V12.6665H10.25ZM10.5833 12.9998C10.3992 12.9998 10.25 12.8506 10.25 12.6665H9.24999C9.24999 13.4029 9.84694 13.9998 10.5833 13.9998V12.9998ZM12.5833 12.6665C12.5833 12.8506 12.4341 12.9998 12.25 12.9998V13.9998C12.9864 13.9998 13.5833 13.4029 13.5833 12.6665H12.5833ZM12.25 10.6665C12.4341 10.6665 12.5833 10.8157 12.5833 10.9998H13.5833C13.5833 10.2635 12.9864 9.6665 12.25 9.6665V10.6665ZM10.5833 9.6665C9.84694 9.6665 9.24999 10.2635 9.24999 10.9998H10.25C10.25 10.8157 10.3992 10.6665 10.5833 10.6665V9.6665ZM15.5833 10.6665H17.25V9.6665H15.5833V10.6665ZM17.5833 10.9998V12.6665H18.5833V10.9998H17.5833ZM17.25 12.9998H15.5833V13.9998H17.25V12.9998ZM15.25 12.6665V10.9998H14.25V12.6665H15.25ZM15.5833 12.9998C15.3992 12.9998 15.25 12.8506 15.25 12.6665H14.25C14.25 13.4029 14.8469 13.9998 15.5833 13.9998V12.9998ZM17.5833 12.6665C17.5833 12.8506 17.4341 12.9998 17.25 12.9998V13.9998C17.9864 13.9998 18.5833 13.4029 18.5833 12.6665H17.5833ZM17.25 10.6665C17.4341 10.6665 17.5833 10.8157 17.5833 10.9998H18.5833C18.5833 10.2635 17.9864 9.6665 17.25 9.6665V10.6665ZM15.5833 9.6665C14.8469 9.6665 14.25 10.2635 14.25 10.9998H15.25C15.25 10.8157 15.3992 10.6665 15.5833 10.6665V9.6665ZM20.5833 10.6665H22.25V9.6665H20.5833V10.6665ZM22.5833 10.9998V12.6665H23.5833V10.9998H22.5833ZM22.25 12.9998H20.5833V13.9998H22.25V12.9998ZM20.25 12.6665V10.9998H19.25V12.6665H20.25ZM20.5833 12.9998C20.3992 12.9998 20.25 12.8506 20.25 12.6665H19.25C19.25 13.4029 19.8469 13.9998 20.5833 13.9998V12.9998ZM22.5833 12.6665C22.5833 12.8506 22.4341 12.9998 22.25 12.9998V13.9998C22.9864 13.9998 23.5833 13.4029 23.5833 12.6665H22.5833ZM22.25 10.6665C22.4341 10.6665 22.5833 10.8157 22.5833 10.9998H23.5833C23.5833 10.2635 22.9864 9.6665 22.25 9.6665V10.6665ZM20.5833 9.6665C19.8469 9.6665 19.25 10.2635 19.25 10.9998H20.25C20.25 10.8157 20.3992 10.6665 20.5833 10.6665V9.6665ZM25.5833 10.6665H27.25V9.6665H25.5833V10.6665ZM27.5833 10.9998V12.6665H28.5833V10.9998H27.5833ZM27.25 12.9998H25.5833V13.9998H27.25V12.9998ZM25.25 12.6665V10.9998H24.25V12.6665H25.25ZM25.5833 12.9998C25.3992 12.9998 25.25 12.8506 25.25 12.6665H24.25C24.25 13.4029 24.8469 13.9998 25.5833 13.9998V12.9998ZM27.5833 12.6665C27.5833 12.8506 27.4341 12.9998 27.25 12.9998V13.9998C27.9864 13.9998 28.5833 13.4029 28.5833 12.6665H27.5833ZM27.25 10.6665C27.4341 10.6665 27.5833 10.8157 27.5833 10.9998H28.5833C28.5833 10.2635 27.9864 9.6665 27.25 9.6665V10.6665ZM25.5833 9.6665C24.8469 9.6665 24.25 10.2635 24.25 10.9998H25.25C25.25 10.8157 25.3992 10.6665 25.5833 10.6665V9.6665ZM5.58332 15.6665H7.24999V14.6665H5.58332V15.6665ZM7.58332 15.9998V17.6665H8.58332V15.9998H7.58332ZM7.24999 17.9998H5.58332V18.9998H7.24999V17.9998ZM5.24999 17.6665V15.9998H4.24999V17.6665H5.24999ZM5.58332 17.9998C5.39923 17.9998 5.24999 17.8506 5.24999 17.6665H4.24999C4.24999 18.4029 4.84694 18.9998 5.58332 18.9998V17.9998ZM7.58332 17.6665C7.58332 17.8506 7.43408 17.9998 7.24999 17.9998V18.9998C7.98637 18.9998 8.58332 18.4029 8.58332 17.6665H7.58332ZM7.24999 15.6665C7.43408 15.6665 7.58332 15.8157 7.58332 15.9998H8.58332C8.58332 15.2635 7.98637 14.6665 7.24999 14.6665V15.6665ZM5.58332 14.6665C4.84694 14.6665 4.24999 15.2635 4.24999 15.9998H5.24999C5.24999 15.8157 5.39923 15.6665 5.58332 15.6665V14.6665ZM10.5833 15.6665H12.25V14.6665H10.5833V15.6665ZM12.5833 15.9998V17.6665H13.5833V15.9998H12.5833ZM12.25 17.9998H10.5833V18.9998H12.25V17.9998ZM10.25 17.6665V15.9998H9.24999V17.6665H10.25ZM10.5833 17.9998C10.3992 17.9998 10.25 17.8506 10.25 17.6665H9.24999C9.24999 18.4029 9.84694 18.9998 10.5833 18.9998V17.9998ZM12.5833 17.6665C12.5833 17.8506 12.4341 17.9998 12.25 17.9998V18.9998C12.9864 18.9998 13.5833 18.4029 13.5833 17.6665H12.5833ZM12.25 15.6665C12.4341 15.6665 12.5833 15.8157 12.5833 15.9998H13.5833C13.5833 15.2635 12.9864 14.6665 12.25 14.6665V15.6665ZM10.5833 14.6665C9.84694 14.6665 9.24999 15.2635 9.24999 15.9998H10.25C10.25 15.8157 10.3992 15.6665 10.5833 15.6665V14.6665ZM15.5833 15.6665H17.25V14.6665H15.5833V15.6665ZM17.5833 15.9998V17.6665H18.5833V15.9998H17.5833ZM17.25 17.9998H15.5833V18.9998H17.25V17.9998ZM15.25 17.6665V15.9998H14.25V17.6665H15.25ZM15.5833 17.9998C15.3992 17.9998 15.25 17.8506 15.25 17.6665H14.25C14.25 18.4029 14.8469 18.9998 15.5833 18.9998V17.9998ZM17.5833 17.6665C17.5833 17.8506 17.4341 17.9998 17.25 17.9998V18.9998C17.9864 18.9998 18.5833 18.4029 18.5833 17.6665H17.5833ZM17.25 15.6665C17.4341 15.6665 17.5833 15.8157 17.5833 15.9998H18.5833C18.5833 15.2635 17.9864 14.6665 17.25 14.6665V15.6665ZM15.5833 14.6665C14.8469 14.6665 14.25 15.2635 14.25 15.9998H15.25C15.25 15.8157 15.3992 15.6665 15.5833 15.6665V14.6665ZM20.5833 15.6665H22.25V14.6665H20.5833V15.6665ZM22.5833 15.9998V17.6665H23.5833V15.9998H22.5833ZM22.25 17.9998H20.5833V18.9998H22.25V17.9998ZM20.25 17.6665V15.9998H19.25V17.6665H20.25ZM20.5833 17.9998C20.3992 17.9998 20.25 17.8506 20.25 17.6665H19.25C19.25 18.4029 19.8469 18.9998 20.5833 18.9998V17.9998ZM22.5833 17.6665C22.5833 17.8506 22.4341 17.9998 22.25 17.9998V18.9998C22.9864 18.9998 23.5833 18.4029 23.5833 17.6665H22.5833ZM22.25 15.6665C22.4341 15.6665 22.5833 15.8157 22.5833 15.9998H23.5833C23.5833 15.2635 22.9864 14.6665 22.25 14.6665V15.6665ZM20.5833 14.6665C19.8469 14.6665 19.25 15.2635 19.25 15.9998H20.25C20.25 15.8157 20.3992 15.6665 20.5833 15.6665V14.6665ZM25.5833 15.6665H27.25V14.6665H25.5833V15.6665ZM27.5833 15.9998V17.6665H28.5833V15.9998H27.5833ZM27.25 17.9998H25.5833V18.9998H27.25V17.9998ZM25.25 17.6665V15.9998H24.25V17.6665H25.25ZM25.5833 17.9998C25.3992 17.9998 25.25 17.8506 25.25 17.6665H24.25C24.25 18.4029 24.8469 18.9998 25.5833 18.9998V17.9998ZM27.5833 17.6665C27.5833 17.8506 27.4341 17.9998 27.25 17.9998V18.9998C27.9864 18.9998 28.5833 18.4029 28.5833 17.6665H27.5833ZM27.25 15.6665C27.4341 15.6665 27.5833 15.8157 27.5833 15.9998H28.5833C28.5833 15.2635 27.9864 14.6665 27.25 14.6665V15.6665ZM25.5833 14.6665C24.8469 14.6665 24.25 15.2635 24.25 15.9998H25.25C25.25 15.8157 25.3992 15.6665 25.5833 15.6665V14.6665ZM5.58332 20.6665H7.24999V19.6665H5.58332V20.6665ZM7.58332 20.9998V22.6665H8.58332V20.9998H7.58332ZM7.24999 22.9998H5.58332V23.9998H7.24999V22.9998ZM5.24999 22.6665V20.9998H4.24999V22.6665H5.24999ZM5.58332 22.9998C5.39923 22.9998 5.24999 22.8506 5.24999 22.6665H4.24999C4.24999 23.4029 4.84694 23.9998 5.58332 23.9998V22.9998ZM7.58332 22.6665C7.58332 22.8506 7.43408 22.9998 7.24999 22.9998V23.9998C7.98637 23.9998 8.58332 23.4029 8.58332 22.6665H7.58332ZM7.24999 20.6665C7.43408 20.6665 7.58332 20.8157 7.58332 20.9998H8.58332C8.58332 20.2635 7.98637 19.6665 7.24999 19.6665V20.6665ZM5.58332 19.6665C4.84694 19.6665 4.24999 20.2635 4.24999 20.9998H5.24999C5.24999 20.8157 5.39923 20.6665 5.58332 20.6665V19.6665ZM10.5833 20.6665H12.25V19.6665H10.5833V20.6665ZM12.5833 20.9998V22.6665H13.5833V20.9998H12.5833ZM12.25 22.9998H10.5833V23.9998H12.25V22.9998ZM10.25 22.6665V20.9998H9.24999V22.6665H10.25ZM10.5833 22.9998C10.3992 22.9998 10.25 22.8506 10.25 22.6665H9.24999C9.24999 23.4029 9.84694 23.9998 10.5833 23.9998V22.9998ZM12.5833 22.6665C12.5833 22.8506 12.4341 22.9998 12.25 22.9998V23.9998C12.9864 23.9998 13.5833 23.4029 13.5833 22.6665H12.5833ZM12.25 20.6665C12.4341 20.6665 12.5833 20.8157 12.5833 20.9998H13.5833C13.5833 20.2635 12.9864 19.6665 12.25 19.6665V20.6665ZM10.5833 19.6665C9.84694 19.6665 9.24999 20.2635 9.24999 20.9998H10.25C10.25 20.8157 10.3992 20.6665 10.5833 20.6665V19.6665ZM15.5833 20.6665H17.25V19.6665H15.5833V20.6665ZM17.5833 20.9998V22.6665H18.5833V20.9998H17.5833ZM17.25 22.9998H15.5833V23.9998H17.25V22.9998ZM15.25 22.6665V20.9998H14.25V22.6665H15.25ZM15.5833 22.9998C15.3992 22.9998 15.25 22.8506 15.25 22.6665H14.25C14.25 23.4029 14.8469 23.9998 15.5833 23.9998V22.9998ZM17.5833 22.6665C17.5833 22.8506 17.4341 22.9998 17.25 22.9998V23.9998C17.9864 23.9998 18.5833 23.4029 18.5833 22.6665H17.5833ZM17.25 20.6665C17.4341 20.6665 17.5833 20.8157 17.5833 20.9998H18.5833C18.5833 20.2635 17.9864 19.6665 17.25 19.6665V20.6665ZM15.5833 19.6665C14.8469 19.6665 14.25 20.2635 14.25 20.9998H15.25C15.25 20.8157 15.3992 20.6665 15.5833 20.6665V19.6665ZM20.5833 20.6665H22.25V19.6665H20.5833V20.6665ZM22.5833 20.9998V22.6665H23.5833V20.9998H22.5833ZM22.25 22.9998H20.5833V23.9998H22.25V22.9998ZM20.25 22.6665V20.9998H19.25V22.6665H20.25ZM20.5833 22.9998C20.3992 22.9998 20.25 22.8506 20.25 22.6665H19.25C19.25 23.4029 19.8469 23.9998 20.5833 23.9998V22.9998ZM22.5833 22.6665C22.5833 22.8506 22.4341 22.9998 22.25 22.9998V23.9998C22.9864 23.9998 23.5833 23.4029 23.5833 22.6665H22.5833ZM22.25 20.6665C22.4341 20.6665 22.5833 20.8157 22.5833 20.9998H23.5833C23.5833 20.2635 22.9864 19.6665 22.25 19.6665V20.6665ZM20.5833 19.6665C19.8469 19.6665 19.25 20.2635 19.25 20.9998H20.25C20.25 20.8157 20.3992 20.6665 20.5833 20.6665V19.6665ZM25.5833 20.6665H27.25V19.6665H25.5833V20.6665ZM27.5833 20.9998V22.6665H28.5833V20.9998H27.5833ZM27.25 22.9998H25.5833V23.9998H27.25V22.9998ZM25.25 22.6665V20.9998H24.25V22.6665H25.25ZM25.5833 22.9998C25.3992 22.9998 25.25 22.8506 25.25 22.6665H24.25C24.25 23.4029 24.8469 23.9998 25.5833 23.9998V22.9998ZM27.5833 22.6665C27.5833 22.8506 27.4341 22.9998 27.25 22.9998V23.9998C27.9864 23.9998 28.5833 23.4029 28.5833 22.6665H27.5833ZM27.25 20.6665C27.4341 20.6665 27.5833 20.8157 27.5833 20.9998H28.5833C28.5833 20.2635 27.9864 19.6665 27.25 19.6665V20.6665ZM25.5833 19.6665C24.8469 19.6665 24.25 20.2635 24.25 20.9998H25.25C25.25 20.8157 25.3992 20.6665 25.5833 20.6665V19.6665ZM5.58332 25.6665H7.24999V24.6665H5.58332V25.6665ZM7.58332 25.9998V27.6665H8.58332V25.9998H7.58332ZM7.24999 27.9998H5.58332V28.9998H7.24999V27.9998ZM5.24999 27.6665V25.9998H4.24999V27.6665H5.24999ZM5.58332 27.9998C5.39923 27.9998 5.24999 27.8506 5.24999 27.6665H4.24999C4.24999 28.4029 4.84694 28.9998 5.58332 28.9998V27.9998ZM7.58332 27.6665C7.58332 27.8506 7.43408 27.9998 7.24999 27.9998V28.9998C7.98637 28.9998 8.58332 28.4029 8.58332 27.6665H7.58332ZM7.24999 25.6665C7.43408 25.6665 7.58332 25.8157 7.58332 25.9998H8.58332C8.58332 25.2635 7.98637 24.6665 7.24999 24.6665V25.6665ZM5.58332 24.6665C4.84694 24.6665 4.24999 25.2635 4.24999 25.9998H5.24999C5.24999 25.8157 5.39923 25.6665 5.58332 25.6665V24.6665ZM10.5833 25.6665H12.25V24.6665H10.5833V25.6665ZM12.5833 25.9998V27.6665H13.5833V25.9998H12.5833ZM12.25 27.9998H10.5833V28.9998H12.25V27.9998ZM10.25 27.6665V25.9998H9.24999V27.6665H10.25ZM10.5833 27.9998C10.3992 27.9998 10.25 27.8506 10.25 27.6665H9.24999C9.24999 28.4029 9.84694 28.9998 10.5833 28.9998V27.9998ZM12.5833 27.6665C12.5833 27.8506 12.4341 27.9998 12.25 27.9998V28.9998C12.9864 28.9998 13.5833 28.4029 13.5833 27.6665H12.5833ZM12.25 25.6665C12.4341 25.6665 12.5833 25.8157 12.5833 25.9998H13.5833C13.5833 25.2635 12.9864 24.6665 12.25 24.6665V25.6665ZM10.5833 24.6665C9.84694 24.6665 9.24999 25.2635 9.24999 25.9998H10.25C10.25 25.8157 10.3992 25.6665 10.5833 25.6665V24.6665ZM15.5833 25.6665H17.25V24.6665H15.5833V25.6665ZM17.5833 25.9998V27.6665H18.5833V25.9998H17.5833ZM17.25 27.9998H15.5833V28.9998H17.25V27.9998ZM15.25 27.6665V25.9998H14.25V27.6665H15.25ZM15.5833 27.9998C15.3992 27.9998 15.25 27.8506 15.25 27.6665H14.25C14.25 28.4029 14.8469 28.9998 15.5833 28.9998V27.9998ZM17.5833 27.6665C17.5833 27.8506 17.4341 27.9998 17.25 27.9998V28.9998C17.9864 28.9998 18.5833 28.4029 18.5833 27.6665H17.5833ZM17.25 25.6665C17.4341 25.6665 17.5833 25.8157 17.5833 25.9998H18.5833C18.5833 25.2635 17.9864 24.6665 17.25 24.6665V25.6665ZM15.5833 24.6665C14.8469 24.6665 14.25 25.2635 14.25 25.9998H15.25C15.25 25.8157 15.3992 25.6665 15.5833 25.6665V24.6665ZM20.5833 25.6665H22.25V24.6665H20.5833V25.6665ZM22.5833 25.9998V27.6665H23.5833V25.9998H22.5833ZM22.25 27.9998H20.5833V28.9998H22.25V27.9998ZM20.25 27.6665V25.9998H19.25V27.6665H20.25ZM20.5833 27.9998C20.3992 27.9998 20.25 27.8506 20.25 27.6665H19.25C19.25 28.4029 19.8469 28.9998 20.5833 28.9998V27.9998ZM22.5833 27.6665C22.5833 27.8506 22.4341 27.9998 22.25 27.9998V28.9998C22.9864 28.9998 23.5833 28.4029 23.5833 27.6665H22.5833ZM22.25 25.6665C22.4341 25.6665 22.5833 25.8157 22.5833 25.9998H23.5833C23.5833 25.2635 22.9864 24.6665 22.25 24.6665V25.6665ZM20.5833 24.6665C19.8469 24.6665 19.25 25.2635 19.25 25.9998H20.25C20.25 25.8157 20.3992 25.6665 20.5833 25.6665V24.6665ZM25.5833 25.6665H27.25V24.6665H25.5833V25.6665ZM27.5833 25.9998V27.6665H28.5833V25.9998H27.5833ZM27.25 27.9998H25.5833V28.9998H27.25V27.9998ZM25.25 27.6665V25.9998H24.25V27.6665H25.25ZM25.5833 27.9998C25.3992 27.9998 25.25 27.8506 25.25 27.6665H24.25C24.25 28.4029 24.8469 28.9998 25.5833 28.9998V27.9998ZM27.5833 27.6665C27.5833 27.8506 27.4341 27.9998 27.25 27.9998V28.9998C27.9864 28.9998 28.5833 28.4029 28.5833 27.6665H27.5833ZM27.25 25.6665C27.4341 25.6665 27.5833 25.8157 27.5833 25.9998H28.5833C28.5833 25.2635 27.9864 24.6665 27.25 24.6665V25.6665ZM25.5833 24.6665C24.8469 24.6665 24.25 25.2635 24.25 25.9998H25.25C25.25 25.8157 25.3992 25.6665 25.5833 25.6665V24.6665ZM75.0803 77.2017H6.83318V78.2017H75.0803V77.2017ZM75.0803 78.2017H80.1234V77.2017H75.0803V78.2017ZM80.0401 78.1184V78.9165H81.0401V78.1184H80.0401ZM78.8734 80.0832H3.04008V81.0832H78.8734V80.0832ZM1.87341 78.9165V78.1184H0.873413V78.9165H1.87341ZM1.79008 78.2017H6.83318V77.2017H1.79008V78.2017ZM1.87341 78.1184C1.87341 78.1644 1.8361 78.2017 1.79008 78.2017V77.2017C1.28382 77.2017 0.873413 77.6121 0.873413 78.1184H1.87341ZM80.1234 78.2017C80.0774 78.2017 80.0401 78.1644 80.0401 78.1184H81.0401C81.0401 77.6121 80.6297 77.2017 80.1234 77.2017V78.2017ZM80.0401 78.9165C80.0401 79.5608 79.5177 80.0832 78.8734 80.0832V81.0832C80.07 81.0832 81.0401 80.1131 81.0401 78.9165H80.0401ZM3.04008 80.0832C2.39575 80.0832 1.87341 79.5608 1.87341 78.9165H0.873413C0.873413 80.1131 1.84347 81.0832 3.04008 81.0832V80.0832ZM51.4167 54.4165H66.4166V53.4165H51.4167V54.4165ZM51.4167 51.9165H66.4166V50.9165H51.4167V51.9165ZM51.4167 56.9165H66.4166V55.9165H51.4167V56.9165ZM51.4167 59.4165H66.4166V58.4165H51.4167V59.4165ZM51.4167 61.9165H66.4166V60.9165H51.4167V61.9165ZM7.33318 77.7017V36.8332H6.33318V77.7017H7.33318ZM29.75 36.3332H6.83318V37.3332H29.75V36.3332ZM6.83318 36.3332H3.08332V37.3332H6.83318V36.3332ZM30.9167 5.58317V32.2498H31.9167V5.58317H30.9167ZM30.9167 32.2498V35.1665H31.9167V32.2498H30.9167ZM31.4167 32.7498H51.8333V31.7498H31.4167V32.7498ZM52.3333 39.3609V32.2498H51.3333V39.3609H52.3333ZM52.3333 32.2498V17.648H51.3333V32.2498H52.3333ZM74.5803 41.8424V77.7017H75.5803V41.8424H74.5803ZM77.2685 41.3424H75.0803V42.3424H77.2685V41.3424ZM75.0803 41.3424H54.3148V42.3424H75.0803V41.3424Z" fill="white"/>
<path d="M58.8275 24.472V24.8987C58.8275 25.8458 58.642 26.7837 58.2814 27.6595L55.8957 33.4531C55.2232 35.0864 56.424 36.8794 58.1903 36.8794H73.1128C74.8791 36.8794 76.0799 35.0864 75.4074 33.4531L73.0218 27.6595C72.6612 26.7837 72.4757 25.8458 72.4757 24.8987V24.472C72.4757 20.7032 69.4204 17.6479 65.6516 17.6479C61.8828 17.6479 58.8275 20.7032 58.8275 24.472Z" fill="#B3B3B3"/>
</svg>
