<svg width="82" height="82" viewBox="0 0 82 82" fill="none" xmlns="http://www.w3.org/2000/svg">
<path d="M1 4.33333C1 6.17428 2.49238 7.66667 4.33333 7.66667C5.17174 7.66667 5.93785 7.35713 6.52363 6.84611C7.22408 6.23504 7.66667 5.33587 7.66667 4.33333C7.66667 2.49238 6.17428 1 4.33333 1C2.49238 1 1 2.49238 1 4.33333Z" fill="white"/>
<path d="M78.5 81C79.8807 81 81 79.8807 81 78.5C81 77.1193 79.8807 76 78.5 76C77.455 76 76.5598 76.6411 76.1862 77.5514C76.0662 77.8439 76 78.1642 76 78.5C76 79.8807 77.1193 81 78.5 81Z" fill="white"/>
<path d="M67.6667 21C72.269 21 76 17.269 76 12.6667C76 8.06429 72.269 4.33333 67.6667 4.33333C63.0643 4.33333 59.3333 8.06429 59.3333 12.6667C59.3333 14.0083 59.6504 15.2759 60.2137 16.3987C61.2719 18.5079 63.1993 20.1058 65.5259 20.7225C66.209 20.9035 66.9266 21 67.6667 21Z" fill="white"/>
<path d="M18.5 21L6.52363 6.84611M41.8333 25.1151L60.2137 16.3987M59.75 38.9167L65.5259 20.7225M56.4431 49.3333L51.4167 65.1667L76.1862 77.5514M60.2137 16.3987C59.6504 15.2759 59.3333 14.0083 59.3333 12.6667C59.3333 8.06429 63.0643 4.33333 67.6667 4.33333C72.269 4.33333 76 8.06429 76 12.6667C76 17.269 72.269 21 67.6667 21C66.9266 21 66.209 20.9035 65.5259 20.7225M60.2137 16.3987C61.2719 18.5079 63.1993 20.1058 65.5259 20.7225M6.52363 6.84611C7.22408 6.23504 7.66667 5.33587 7.66667 4.33333C7.66667 2.49238 6.17428 1 4.33333 1C2.49238 1 1 2.49238 1 4.33333C1 6.17428 2.49238 7.66667 4.33333 7.66667C5.17174 7.66667 5.93785 7.35713 6.52363 6.84611ZM76.1862 77.5514C76.0662 77.8439 76 78.1642 76 78.5C76 79.8807 77.1193 81 78.5 81C79.8807 81 81 79.8807 81 78.5C81 77.1193 79.8807 76 78.5 76C77.455 76 76.5598 76.6411 76.1862 77.5514Z" stroke="white"/>
<path d="M28.5 15.1665C19.2952 15.1665 11.8333 22.6284 11.8333 31.8332C11.8333 36.06 13.4068 39.9194 16 42.8574L18.5 24.3332C18.5 24.0554 18.75 23.4998 19.75 23.4998C20.75 23.4998 36.5111 25.4443 44.2667 26.4165C42.0184 19.8708 35.8085 15.1665 28.5 15.1665Z" fill="#B3B3B3"/>
<path d="M56 64.7498C56 67.2811 53.948 69.3332 51.4166 69.3332C48.8853 69.3332 46.8333 67.2811 46.8333 64.7498C46.8333 62.2185 48.8853 60.1665 51.4166 60.1665C53.948 60.1665 56 62.2185 56 64.7498Z" fill="#B3B3B3"/>
<path d="M55.1626 30.6226L18.0468 26.062L17.4328 31.0584L54.5487 35.619L55.1626 30.6226Z" fill="#B3B3B3"/>
<path d="M23.3429 41.928C23.4398 41.1396 22.8792 40.422 22.0908 40.3251C21.3024 40.2282 20.5847 40.7888 20.4878 41.5772C20.3909 42.3656 20.9515 43.0833 21.7399 43.1802C22.5283 43.277 23.246 42.7164 23.3429 41.928Z" fill="#B3B3B3"/>
<path d="M21.2016 41.6649C21.2985 40.8765 20.7379 40.1588 19.9495 40.0619C19.1611 39.9651 18.4434 40.5257 18.3465 41.3141C18.2496 42.1025 18.8102 42.8201 19.5986 42.917C20.3871 43.0139 21.1047 42.4533 21.2016 41.6649Z" fill="#B3B3B3"/>
<path d="M37.2869 56.6577L37.3131 57.157L37.2869 56.6577ZM50.9847 48.0902L50.6291 47.7388L50.6294 47.7384L50.9847 48.0902ZM55.6202 42.39L55.2047 42.1118L55.6202 42.39ZM57.9318 35.9002L57.5431 36.2147L57.5429 36.2145L57.9318 35.9002ZM55.2336 35.5635L55.37 36.0445L55.3699 36.0446L55.2336 35.5635ZM52.8093 37.6456L52.3618 37.4223L52.3672 37.4121L52.8093 37.6456ZM48.0709 44.4019L47.7219 44.0439L48.0709 44.4019ZM40.9207 48.5224L41.0525 49.0049L41.0422 49.0074L40.9207 48.5224ZM30.2243 45.0283L29.9062 45.4141L30.2243 45.0283ZM29.8873 44.7954L30.1296 44.358V44.358L29.8873 44.7954ZM25.3414 43.6745L25.3574 44.1742L25.3564 44.1743L25.3414 43.6745ZM19.342 47.0059C19.1555 47.2095 18.8392 47.2234 18.6356 47.037C18.4319 46.8505 18.418 46.5342 18.6045 46.3305L19.342 47.0059ZM4.34181 54.7713L3.84406 54.8186V54.8186L4.34181 54.7713ZM5.70971 58.8036L5.28847 59.073L5.28844 59.0729L5.70971 58.8036ZM10.9965 62.6571L11.1411 62.1785H11.1412L10.9965 62.6571ZM13.5946 61.3162L13.1496 61.0882L13.5946 61.3162ZM17.0659 57.0737L16.7636 56.6754L16.764 56.6752L17.0659 57.0737ZM40.3987 56.2864L40.3062 55.795L40.3068 55.7949L40.3987 56.2864ZM64.3414 38.3034L64.7871 38.0768L64.7888 38.0802L64.3414 38.3034ZM63.7779 37.8114L63.554 38.2584L63.554 38.2584L63.7779 37.8114ZM48.088 43.8972C48.3625 43.8674 48.6092 44.0659 48.6389 44.3404C48.6686 44.615 48.4701 44.8616 48.1956 44.8913L48.088 43.8972ZM52.2854 52.1538C52.0419 52.2841 51.7389 52.1922 51.6087 51.9487C51.4785 51.7052 51.5703 51.4023 51.8138 51.272L52.2854 52.1538ZM67.8822 42.39L68.1957 42.7795L68.1946 42.7804L67.8822 42.39ZM69.3191 40.168L68.8255 40.2477L68.8252 40.2454L69.3191 40.168ZM67.8822 38.7955L67.7176 39.2676L67.714 39.2664L67.8822 38.7955ZM64.5342 40.2835C64.3331 40.4728 64.0166 40.4632 63.8274 40.2621C63.6382 40.061 63.6478 39.7445 63.8489 39.5553L64.5342 40.2835ZM67.7366 38.5318C67.7907 38.8026 67.615 39.0659 67.3442 39.12C67.0734 39.174 66.81 38.9983 66.756 38.7275L67.7366 38.5318ZM66.1505 37.0862L65.9233 37.5316L65.9221 37.531L66.1505 37.0862ZM63.8438 38.0327C63.6586 38.2375 63.3424 38.2534 63.1376 38.0682C62.9328 37.883 62.9169 37.5668 63.1021 37.362L63.8438 38.0327ZM4.90454 53.1747L4.53319 52.8399L4.90454 53.1747ZM15.8164 43.9219C16.049 43.7729 16.3582 43.8406 16.5072 44.0731C16.6562 44.3056 16.5884 44.6149 16.3559 44.7638L15.8164 43.9219ZM54.086 27.5918L54.147 27.0955L54.086 27.5918ZM19.8252 23.382L19.8862 22.8857L19.8252 23.382ZM18.2223 24.6341L18.7185 24.6951L18.2223 24.6341ZM15.9419 43.192L15.4457 43.131L15.9419 43.192ZM55.3381 29.1947L54.8418 29.1338L55.3381 29.1947ZM17.1941 44.795L17.2551 44.2987L17.1941 44.795ZM48.2248 39.9135L48.1638 40.4098L48.2248 39.9135ZM40.3734 38.9487L40.4344 38.4525L40.3734 38.9487ZM40.7242 36.0937L40.7852 35.5974L40.7242 36.0937ZM48.5756 37.0584L48.5147 37.5547L48.5756 37.0584ZM35.3771 38.3349L35.438 37.8386L35.3771 38.3349ZM20.388 36.4931L20.327 36.9893L20.388 36.4931ZM20.7388 33.638L20.7998 33.1417L20.7388 33.638ZM35.7279 35.4798L35.6669 35.9761L35.7279 35.4798ZM37.0904 56.198C45.5654 52.5739 48.0891 50.3092 50.6291 47.7388L51.3404 48.4416C48.701 51.1127 46.0661 53.4474 37.4835 57.1174L37.0904 56.198ZM50.6294 47.7384C52.2166 46.1354 53.8855 44.0824 55.2047 42.1118L56.0357 42.6681C54.6831 44.6887 52.9743 46.7914 51.34 48.442L50.6294 47.7384ZM55.2047 42.1118C56.1473 40.7038 56.8977 39.3579 57.3161 38.2615C57.5258 37.7119 57.6429 37.2487 57.6692 36.885C57.696 36.5153 57.6252 36.3162 57.5431 36.2147L58.3205 35.5857C58.6288 35.9667 58.7024 36.4644 58.6666 36.9573C58.6304 37.4563 58.478 38.0215 58.2504 38.618C57.7941 39.8137 56.9983 41.2302 56.0357 42.6681L55.2047 42.1118ZM57.5429 36.2145C57.4253 36.069 57.1383 35.9407 56.6666 35.9082C56.221 35.8776 55.7309 35.9422 55.37 36.0445L55.0972 35.0825C55.5581 34.9518 56.1638 34.8713 56.7352 34.9106C57.2806 34.9481 57.9317 35.1047 58.3206 35.5859L57.5429 36.2145ZM55.3699 36.0446C54.0833 36.4091 53.4283 37.5444 53.2514 37.8792L52.3672 37.4121C52.5625 37.0425 53.3858 35.5674 55.0973 35.0824L55.3699 36.0446ZM53.2567 37.8689C51.9572 40.4731 50.3898 42.8395 48.42 44.7599L47.7219 44.0439C49.5888 42.2237 51.096 39.9593 52.3619 37.4224L53.2567 37.8689ZM48.42 44.7599C46.4175 46.7122 44.0049 48.1979 41.0525 49.0047L40.7889 48.0401C43.5644 47.2816 45.8305 45.8879 47.7219 44.0439L48.42 44.7599ZM41.0422 49.0074C36.7338 50.0867 32.9996 47.9644 29.9062 45.4141L30.5423 44.6425C33.5809 47.1476 36.9777 48.9947 40.7992 48.0374L41.0422 49.0074ZM29.645 45.2328C28.8554 44.7954 27.3351 44.1109 25.3574 44.1742L25.3254 43.1747C27.5514 43.1034 29.2548 43.8735 30.1296 44.358L29.645 45.2328ZM25.3564 44.1743C21.9403 44.2767 19.7818 46.5256 19.342 47.0059L18.6045 46.3305C19.0848 45.806 21.4852 43.2899 25.3264 43.1747L25.3564 44.1743ZM4.83957 54.724C4.93514 55.7297 5.23715 57.1362 6.13097 58.5343L5.28844 59.0729C4.28488 57.5032 3.94973 55.9305 3.84406 54.8186L4.83957 54.724ZM6.13095 58.5342C7.52575 60.7155 9.6214 61.7192 11.1411 62.1785L10.8518 63.1357C9.20552 62.6382 6.85941 61.5297 5.28847 59.073L6.13095 58.5342ZM13.1496 61.0882C13.9069 59.6098 15.0419 57.9826 16.7636 56.6754L17.3683 57.4719C15.7976 58.6644 14.7493 60.1588 14.0396 61.5441L13.1496 61.0882ZM16.764 56.6752C19.7382 54.4216 22.8171 54.4523 26.1356 54.9427C29.4788 55.4367 33.0319 56.3796 37.2608 56.1584L37.3131 57.157C32.9512 57.3852 29.2039 56.4069 25.9894 55.9319C22.7501 55.4533 20.0139 55.4673 17.3679 57.4722L16.764 56.6752ZM37.2608 56.1584C38.241 56.1071 39.2548 55.9928 40.3062 55.795L40.4911 56.7778C39.3933 56.9843 38.335 57.1035 37.3131 57.157L37.2608 56.1584ZM40.3068 55.7949C46.1523 54.7022 51.6044 51.743 55.8125 48.5053C57.9145 46.888 59.6977 45.2076 61.0571 43.6678C62.4237 42.1197 63.337 40.7418 63.732 39.7316L64.6633 40.0957C64.206 41.2654 63.2045 42.7463 61.8067 44.3296C60.4016 45.9212 58.5708 47.6448 56.4223 49.2978C52.1294 52.6008 46.5343 55.6481 40.4906 56.7779L40.3068 55.7949ZM63.732 39.7316C63.9923 39.0658 63.976 38.6911 63.894 38.5267L64.7888 38.0802C65.0724 38.6487 64.9424 39.3818 64.6633 40.0957L63.732 39.7316ZM63.8957 38.53C63.8378 38.4163 63.7221 38.3427 63.554 38.2584L64.0019 37.3644C64.1646 37.4459 64.5658 37.6416 64.7871 38.0768L63.8957 38.53ZM63.554 38.2584C63.4838 38.2233 63.4106 38.1945 63.3344 38.1717L63.6202 37.2134C63.7506 37.2523 63.8781 37.3023 64.0019 37.3644L63.554 38.2584ZM63.3344 38.1717C62.8069 38.0144 62.1036 38.1419 61.2713 38.5262C60.4539 38.9036 59.5951 39.49 58.8036 40.118C58.0153 40.7436 57.3105 41.3968 56.8018 41.8951C56.5478 42.1439 56.3437 42.353 56.2035 42.4994C56.1335 42.5726 56.0795 42.6301 56.0433 42.6689C56.0252 42.6883 56.0115 42.7031 56.0026 42.7128C55.9981 42.7177 55.9948 42.7213 55.9927 42.7236C55.9916 42.7248 55.9908 42.7256 55.9904 42.7261C55.9902 42.7263 55.99 42.7265 55.9899 42.7266C55.9899 42.7266 55.9899 42.7266 55.9899 42.7267C55.9899 42.7266 55.9899 42.7266 55.6202 42.39C55.2505 42.0534 55.2506 42.0533 55.2507 42.0532C55.2507 42.0531 55.2508 42.053 55.251 42.0529C55.2512 42.0526 55.2515 42.0523 55.2519 42.0518C55.2526 42.051 55.2537 42.0498 55.2551 42.0483C55.2579 42.0453 55.2618 42.041 55.267 42.0354C55.2772 42.0242 55.2923 42.008 55.3118 41.9871C55.3508 41.9452 55.4078 41.8845 55.4811 41.808C55.6277 41.6549 55.8394 41.438 56.1021 41.1807C56.6265 40.667 57.3581 39.9885 58.182 39.3347C59.0028 38.6834 59.9323 38.043 60.8521 37.6183C61.757 37.2005 62.7398 36.9509 63.6202 37.2134L63.3344 38.1717ZM48.0171 43.9048L48.088 43.8972L48.1956 44.8913L48.1248 44.899L48.0171 43.9048ZM51.8138 51.272C52.6941 50.8013 55.8583 49.1048 59.1958 47.2109C62.5487 45.3083 66.028 43.2335 67.5697 41.9996L68.1946 42.7804C66.5781 44.074 63.0224 46.1893 59.6893 48.0807C56.3407 49.9808 53.1677 51.682 52.2854 52.1538L51.8138 51.272ZM67.5687 42.0005C68.0385 41.6224 68.3828 41.279 68.5946 40.9682C68.8049 40.6597 68.8548 40.4288 68.8255 40.2477L69.8127 40.0883C69.8972 40.6116 69.7145 41.1007 69.4209 41.5315C69.1287 41.9601 68.6976 42.3755 68.1957 42.7795L67.5687 42.0005ZM68.8252 40.2454C68.7871 40.0026 68.5951 39.7731 68.3081 39.5741C68.0331 39.3835 67.7556 39.2808 67.7176 39.2676L68.0467 38.3233C68.1276 38.3515 68.4989 38.4897 68.8777 38.7523C69.2446 39.0065 69.7116 39.4425 69.8131 40.0906L68.8252 40.2454ZM67.714 39.2664C67.0146 39.0166 66.2821 39.1996 65.6559 39.5131C65.0359 39.8234 64.5974 40.2243 64.5395 40.2785L63.8559 39.5487C63.9454 39.4648 64.4649 38.9909 65.2082 38.6188C65.9452 38.2499 66.9812 37.9429 68.0503 38.3246L67.714 39.2664ZM64.5403 40.2777L64.5342 40.2835L63.8489 39.5553L63.855 39.5495L64.5403 40.2777ZM66.756 38.7275C66.7306 38.6006 66.5673 37.86 65.9233 37.5316L66.3776 36.6407C67.4807 37.2032 67.7103 38.3997 67.7366 38.5318L66.756 38.7275ZM65.9221 37.531C65.3153 37.2195 64.4466 37.3677 63.8477 38.0284L63.1068 37.3568C63.9657 36.4092 65.3142 36.0948 66.3788 36.6414L65.9221 37.531ZM63.8481 38.0279L63.8438 38.0327L63.1021 37.362L63.1064 37.3572L63.8481 38.0279ZM5.2759 53.5095C4.96007 53.8598 4.79887 54.2958 4.83957 54.724L3.84406 54.8186C3.77306 54.0715 4.05841 53.3665 4.53319 52.8399L5.2759 53.5095ZM11.1412 62.1785C11.8906 62.405 12.7096 61.9472 13.1496 61.0882L14.0396 61.5441C13.4676 62.6609 12.2273 63.5515 10.8518 63.1357L11.1412 62.1785ZM29.9062 45.4141C29.8183 45.3416 29.7322 45.2811 29.645 45.2328L30.1296 44.358C30.2821 44.4425 30.4188 44.5407 30.5423 44.6425L29.9062 45.4141ZM16.3559 44.7638C11.3486 47.9722 7.595 50.9372 5.27589 53.5095L4.53319 52.8399C6.93957 50.1708 10.779 47.1495 15.8164 43.9219L16.3559 44.7638ZM54.025 28.0881L19.7642 23.8782L19.8862 22.8857L54.147 27.0955L54.025 28.0881ZM18.7185 24.6951L16.4382 43.253L15.4457 43.131L17.726 24.5731L18.7185 24.6951ZM54.0293 35.7461L54.8418 29.1338L55.8344 29.2557L55.0219 35.868L54.0293 35.7461ZM32.4059 46.1604L42.974 47.4589L42.852 48.4515L32.2839 47.1529L32.4059 46.1604ZM17.2551 44.2987L20.6183 44.712L20.4964 45.7045L17.1331 45.2912L17.2551 44.2987ZM16.4382 43.253C16.375 43.7673 16.7407 44.2355 17.2551 44.2987L17.1331 45.2912C16.0706 45.1607 15.3151 44.1935 15.4457 43.131L16.4382 43.253ZM19.7642 23.8782C19.2499 23.815 18.7817 24.1808 18.7185 24.6951L17.726 24.5731C17.8566 23.5106 18.8237 22.7552 19.8862 22.8857L19.7642 23.8782ZM54.147 27.0955C55.2094 27.2261 55.9649 28.1932 55.8344 29.2557L54.8418 29.1338C54.905 28.6194 54.5393 28.1513 54.025 28.0881L54.147 27.0955ZM48.5147 37.5547L40.6632 36.5899L40.7852 35.5974L48.6366 36.5622L48.5147 37.5547ZM40.4344 38.4525L48.2858 39.4172L48.1638 40.4098L40.3124 39.445L40.4344 38.4525ZM48.2858 39.4172C48.8001 39.4804 49.2683 39.1147 49.3315 38.6004L50.324 38.7224C50.1935 39.7848 49.2263 40.5403 48.1638 40.4098L48.2858 39.4172ZM39.6175 37.4068C39.5543 37.9211 39.9201 38.3893 40.4344 38.4525L40.3124 39.445C39.2499 39.3145 38.4945 38.3473 38.625 37.2848L39.6175 37.4068ZM40.6632 36.5899C40.1489 36.5268 39.6807 36.8925 39.6175 37.4068L38.625 37.2848C38.7556 36.2223 39.7227 35.4669 40.7852 35.5974L40.6632 36.5899ZM48.6366 36.5622C49.6991 36.6927 50.4546 37.6599 50.324 38.7224L49.3315 38.6004C49.3947 38.0861 49.029 37.6179 48.5147 37.5547L48.6366 36.5622ZM35.6669 35.9761L20.6778 34.1343L20.7998 33.1417L35.7888 34.9835L35.6669 35.9761ZM20.4489 35.9968L35.438 37.8386L35.3161 38.8311L20.327 36.9893L20.4489 35.9968ZM35.438 37.8386C35.9524 37.9018 36.4205 37.5361 36.4837 37.0218L37.4763 37.1437C37.3457 38.2062 36.3786 38.9617 35.3161 38.8311L35.438 37.8386ZM19.6321 34.9511C19.5689 35.4654 19.9346 35.9336 20.4489 35.9968L20.327 36.9893C19.2645 36.8588 18.509 35.8916 18.6396 34.8291L19.6321 34.9511ZM20.6778 34.1343C20.1635 34.0711 19.6953 34.4368 19.6321 34.9511L18.6396 34.8291C18.7701 33.7667 19.7373 33.0112 20.7998 33.1417L20.6778 34.1343ZM35.7888 34.9835C36.8513 35.1141 37.6068 36.0812 37.4763 37.1437L36.4837 37.0218C36.5469 36.5074 36.1812 36.0393 35.6669 35.9761L35.7888 34.9835Z" fill="white"/>
</svg>
