<svg width="82" height="82" viewBox="0 0 82 82" fill="none" xmlns="http://www.w3.org/2000/svg">
<path d="M46 5.58317C46 4.6627 46.7462 3.9165 47.6667 3.9165H50.1667C51.0871 3.9165 51.8333 4.6627 51.8333 5.58317V8.08317C51.8333 9.00364 51.0871 9.74984 50.1667 9.74984H47.6667C46.7462 9.74984 46 9.00364 46 8.08317V5.58317Z" fill="white"/>
<path d="M46 13.4998C46 12.5794 46.7462 11.8332 47.6667 11.8332H50.1667C51.0871 11.8332 51.8333 12.5794 51.8333 13.4998V15.9998C51.8333 16.9203 51.0871 17.6665 50.1667 17.6665H47.6667C46.7462 17.6665 46 16.9203 46 15.9998V13.4998Z" fill="white"/>
<path d="M47.6667 19.7498C46.7462 19.7498 46 20.496 46 21.4165V23.9165C46 24.837 46.7462 25.5832 47.6667 25.5832H50.1667C51.0871 25.5832 51.8333 24.837 51.8333 23.9165V21.4165C51.8333 20.496 51.0871 19.7498 50.1667 19.7498H47.6667Z" fill="white"/>
<path d="M46 29.3332C46 28.4127 46.7462 27.6665 47.6667 27.6665H50.1667C51.0871 27.6665 51.8333 28.4127 51.8333 29.3332V31.8332H46V29.3332Z" fill="white"/>
<path fill-rule="evenodd" clip-rule="evenodd" d="M26 20.9998V7.6665C26 6.74603 25.2538 5.99984 24.3333 5.99984H9.33332C8.41285 5.99984 7.66666 6.74603 7.66666 7.6665V20.9998C7.66666 21.9203 8.41285 22.6665 9.33332 22.6665H24.3333C25.2538 22.6665 26 21.9203 26 20.9998ZM16.8333 8.08317C17.0634 8.08317 17.25 8.26972 17.25 8.49984V16.4165C17.25 16.6466 17.0634 16.8332 16.8333 16.8332C16.6032 16.8332 16.4167 16.6466 16.4167 16.4165V8.49984C16.4167 8.26972 16.6032 8.08317 16.8333 8.08317ZM16.8333 18.0832C17.0634 18.0832 17.25 18.2697 17.25 18.4998V19.3332C17.25 19.5633 17.0634 19.7498 16.8333 19.7498C16.6032 19.7498 16.4167 19.5633 16.4167 19.3332V18.4998C16.4167 18.2697 16.6032 18.0832 16.8333 18.0832Z" fill="white"/>
<path fill-rule="evenodd" clip-rule="evenodd" d="M10.1667 35.5832C10.1667 35.1229 10.5398 34.7498 11 34.7498H71C71.4602 34.7498 71.8333 35.1229 71.8333 35.5832V39.7498H10.1667V35.5832ZM15.1667 37.2498C15.1667 38.1703 14.4205 38.9165 13.5 38.9165C12.5795 38.9165 11.8333 38.1703 11.8333 37.2498C11.8333 36.3294 12.5795 35.5832 13.5 35.5832C14.4205 35.5832 15.1667 36.3294 15.1667 37.2498ZM20.1667 37.2498C20.1667 38.1703 19.4205 38.9165 18.5 38.9165C17.5795 38.9165 16.8333 38.1703 16.8333 37.2498C16.8333 36.3294 17.5795 35.5832 18.5 35.5832C19.4205 35.5832 20.1667 36.3294 20.1667 37.2498ZM23.5 38.9165C24.4205 38.9165 25.1667 38.1703 25.1667 37.2498C25.1667 36.3294 24.4205 35.5832 23.5 35.5832C22.5795 35.5832 21.8333 36.3294 21.8333 37.2498C21.8333 38.1703 22.5795 38.9165 23.5 38.9165Z" fill="white"/>
<path fill-rule="evenodd" clip-rule="evenodd" d="M71.8333 40.5832H10.1667V77.2498H22.6667V46.8332C22.6667 45.9127 23.4128 45.1665 24.3333 45.1665H56.8333C57.7538 45.1665 58.5 45.9127 58.5 46.8332V77.2498H71.8333V40.5832ZM14.3333 45.1665H16.8333C17.2936 45.1665 17.6667 45.5396 17.6667 45.9998V48.4998C17.6667 48.9601 17.2936 49.3332 16.8333 49.3332H14.3333C13.8731 49.3332 13.5 48.9601 13.5 48.4998V45.9998C13.5 45.5396 13.8731 45.1665 14.3333 45.1665ZM16.8333 50.9998H14.3333C13.8731 50.9998 13.5 51.3729 13.5 51.8332V54.3332C13.5 54.7934 13.8731 55.1665 14.3333 55.1665H16.8333C17.2936 55.1665 17.6667 54.7934 17.6667 54.3332V51.8332C17.6667 51.3729 17.2936 50.9998 16.8333 50.9998ZM14.3333 56.8332H16.8333C17.2936 56.8332 17.6667 57.2063 17.6667 57.6665V60.1665C17.6667 60.6267 17.2936 60.9998 16.8333 60.9998H14.3333C13.8731 60.9998 13.5 60.6267 13.5 60.1665V57.6665C13.5 57.2063 13.8731 56.8332 14.3333 56.8332Z" fill="white"/>
<path d="M47.6036 6.06295C47.4083 5.86769 47.0917 5.86769 46.8965 6.06295C46.7012 6.25821 46.7012 6.5748 46.8965 6.77006L47.6036 6.06295ZM48.5 7.6665L48.1465 8.02006C48.2402 8.11383 48.3674 8.1665 48.5 8.1665C48.6326 8.1665 48.7598 8.11383 48.8536 8.02006L48.5 7.6665ZM50.9369 5.93672C51.1322 5.74146 51.1322 5.42488 50.9369 5.22962C50.7416 5.03435 50.425 5.03435 50.2298 5.22962L50.9369 5.93672ZM29.3333 49.6665C29.0572 49.6665 28.8333 49.8904 28.8333 50.1665C28.8333 50.4426 29.0572 50.6665 29.3333 50.6665V49.6665ZM51.8333 50.6665C52.1095 50.6665 52.3333 50.4426 52.3333 50.1665C52.3333 49.8904 52.1095 49.6665 51.8333 49.6665V50.6665ZM29.3333 55.4998C29.0572 55.4998 28.8333 55.7237 28.8333 55.9998C28.8333 56.276 29.0572 56.4998 29.3333 56.4998V55.4998ZM51.8333 56.4998C52.1095 56.4998 52.3333 56.276 52.3333 55.9998C52.3333 55.7237 52.1095 55.4998 51.8333 55.4998V56.4998ZM29.3333 65.4998C29.0572 65.4998 28.8333 65.7237 28.8333 65.9998C28.8333 66.276 29.0572 66.4998 29.3333 66.4998V65.4998ZM51.8333 66.4998C52.1095 66.4998 52.3333 66.276 52.3333 65.9998C52.3333 65.7237 52.1095 65.4998 51.8333 65.4998V66.4998ZM29.3333 57.9998C29.0572 57.9998 28.8333 58.2237 28.8333 58.4998C28.8333 58.776 29.0572 58.9998 29.3333 58.9998V57.9998ZM51.8333 58.9998C52.1095 58.9998 52.3333 58.776 52.3333 58.4998C52.3333 58.2237 52.1095 57.9998 51.8333 57.9998V58.9998ZM29.3333 67.9998C29.0572 67.9998 28.8333 68.2237 28.8333 68.4998C28.8333 68.776 29.0572 68.9998 29.3333 68.9998V67.9998ZM51.8333 68.9998C52.1095 68.9998 52.3333 68.776 52.3333 68.4998C52.3333 68.2237 52.1095 67.9998 51.8333 67.9998V68.9998ZM29.3333 60.4998C29.0572 60.4998 28.8333 60.7237 28.8333 60.9998C28.8333 61.276 29.0572 61.4998 29.3333 61.4998V60.4998ZM51.8333 61.4998C52.1095 61.4998 52.3333 61.276 52.3333 60.9998C52.3333 60.7237 52.1095 60.4998 51.8333 60.4998V61.4998ZM29.3333 70.4998C29.0572 70.4998 28.8333 70.7237 28.8333 70.9998C28.8333 71.276 29.0572 71.4998 29.3333 71.4998V70.4998ZM51.8333 71.4998C52.1095 71.4998 52.3333 71.276 52.3333 70.9998C52.3333 70.7237 52.1095 70.4998 51.8333 70.4998V71.4998ZM29.3333 62.9998C29.0572 62.9998 28.8333 63.2237 28.8333 63.4998C28.8333 63.776 29.0572 63.9998 29.3333 63.9998V62.9998ZM51.8333 63.9998C52.1095 63.9998 52.3333 63.776 52.3333 63.4998C52.3333 63.2237 52.1095 62.9998 51.8333 62.9998V63.9998ZM29.3333 72.9998C29.0572 72.9998 28.8333 73.2237 28.8333 73.4998C28.8333 73.776 29.0572 73.9998 29.3333 73.9998V72.9998ZM51.8333 73.9998C52.1095 73.9998 52.3333 73.776 52.3333 73.4998C52.3333 73.2237 52.1095 72.9998 51.8333 72.9998V73.9998ZM54.3333 6.33317C54.0572 6.33317 53.8333 6.55702 53.8333 6.83317C53.8333 7.10931 54.0572 7.33317 54.3333 7.33317V6.33317ZM69.3333 7.33317C69.6095 7.33317 69.8333 7.10931 69.8333 6.83317C69.8333 6.55702 69.6095 6.33317 69.3333 6.33317V7.33317ZM54.3333 12.9998C54.0572 12.9998 53.8333 13.2237 53.8333 13.4998C53.8333 13.776 54.0572 13.9998 54.3333 13.9998V12.9998ZM76.8333 13.9998C77.1095 13.9998 77.3333 13.776 77.3333 13.4998C77.3333 13.2237 77.1095 12.9998 76.8333 12.9998V13.9998ZM54.3333 14.6665C54.0572 14.6665 53.8333 14.8904 53.8333 15.1665C53.8333 15.4426 54.0572 15.6665 54.3333 15.6665V14.6665ZM60.1667 15.6665C60.4428 15.6665 60.6667 15.4426 60.6667 15.1665C60.6667 14.8904 60.4428 14.6665 60.1667 14.6665V15.6665ZM54.3333 21.3332C54.0572 21.3332 53.8333 21.557 53.8333 21.8332C53.8333 22.1093 54.0572 22.3332 54.3333 22.3332V21.3332ZM73.5 22.3332C73.7761 22.3332 74 22.1093 74 21.8332C74 21.557 73.7761 21.3332 73.5 21.3332V22.3332ZM54.3333 22.9998C54.0572 22.9998 53.8333 23.2237 53.8333 23.4998C53.8333 23.776 54.0572 23.9998 54.3333 23.9998V22.9998ZM68.5 23.9998C68.7761 23.9998 69 23.776 69 23.4998C69 23.2237 68.7761 22.9998 68.5 22.9998V23.9998ZM54.3333 29.6665C54.0572 29.6665 53.8333 29.8904 53.8333 30.1665C53.8333 30.4426 54.0572 30.6665 54.3333 30.6665V29.6665ZM71 30.6665C71.2761 30.6665 71.5 30.4426 71.5 30.1665C71.5 29.8904 71.2761 29.6665 71 29.6665V30.6665ZM80.0833 3.08317V35.5832H81.0833V3.08317H80.0833ZM46.8965 6.77006L48.1465 8.02006L48.8536 7.31295L47.6036 6.06295L46.8965 6.77006ZM48.8536 8.02006L50.9369 5.93672L50.2298 5.22962L48.1465 7.31295L48.8536 8.02006ZM41.9167 3.08317C41.9167 2.43884 42.439 1.9165 43.0833 1.9165V0.916504C41.8867 0.916504 40.9167 1.88655 40.9167 3.08317H41.9167ZM80.0833 35.5832C80.0833 36.2275 79.561 36.7498 78.9167 36.7498V37.7498C80.1133 37.7498 81.0833 36.7798 81.0833 35.5832H80.0833ZM81.0833 3.08317C81.0833 1.88655 80.1133 0.916504 78.9167 0.916504V1.9165C79.561 1.9165 80.0833 2.43884 80.0833 3.08317H81.0833ZM29.3333 50.6665L51.8333 50.6665V49.6665L29.3333 49.6665V50.6665ZM29.3333 56.4998H51.8333V55.4998H29.3333V56.4998ZM29.3333 66.4998H51.8333V65.4998H29.3333V66.4998ZM29.3333 58.9998H51.8333V57.9998H29.3333V58.9998ZM29.3333 68.9998H51.8333V67.9998H29.3333V68.9998ZM29.3333 61.4998H51.8333V60.4998H29.3333V61.4998ZM29.3333 71.4998H51.8333V70.4998H29.3333V71.4998ZM29.3333 63.9998H51.8333V62.9998H29.3333V63.9998ZM29.3333 73.9998H51.8333V72.9998H29.3333V73.9998ZM75.0803 77.2017H6.83321V78.2017H75.0803V77.2017ZM7.33321 77.7017V33.9165H6.33321V77.7017H7.33321ZM75.0803 78.2017H80.1234V77.2017H75.0803V78.2017ZM80.0401 78.1184V78.9165H81.0401V78.1184H80.0401ZM78.8734 80.0832H3.04011V81.0832H78.8734V80.0832ZM1.87344 78.9165V78.1184H0.873444V78.9165H1.87344ZM1.79011 78.2017H6.83321V77.2017H1.79011V78.2017ZM1.87344 78.1184C1.87344 78.1644 1.83613 78.2017 1.79011 78.2017V77.2017C1.28385 77.2017 0.873444 77.6121 0.873444 78.1184H1.87344ZM80.1234 78.2017C80.0774 78.2017 80.0401 78.1644 80.0401 78.1184H81.0401C81.0401 77.6121 80.6297 77.2017 80.1234 77.2017V78.2017ZM80.0401 78.9165C80.0401 79.5608 79.5178 80.0832 78.8734 80.0832V81.0832C80.0701 81.0832 81.0401 80.1131 81.0401 78.9165H80.0401ZM73.4137 32.7498C74.058 32.7498 74.5803 33.2722 74.5803 33.9165H75.5803C75.5803 32.7199 74.6103 31.7498 73.4137 31.7498V32.7498ZM3.04011 80.0832C2.39578 80.0832 1.87344 79.5608 1.87344 78.9165H0.873444C0.873444 80.1131 1.8435 81.0832 3.04011 81.0832V80.0832ZM8.49988 31.7498C7.30326 31.7498 6.33321 32.7199 6.33321 33.9165H7.33321C7.33321 33.2722 7.85555 32.7498 8.49988 32.7498V31.7498ZM54.3333 7.33317L69.3333 7.33317V6.33317L54.3333 6.33317V7.33317ZM54.3333 13.9998L76.8333 13.9998V12.9998L54.3333 12.9998V13.9998ZM54.3333 15.6665L60.1667 15.6665V14.6665L54.3333 14.6665V15.6665ZM54.3333 22.3332H73.5V21.3332H54.3333V22.3332ZM54.3333 23.9998L68.5 23.9998V22.9998L54.3333 22.9998V23.9998ZM54.3333 30.6665L71 30.6665V29.6665L54.3333 29.6665V30.6665ZM43.0833 1.9165H78.9167V0.916504H43.0833V1.9165ZM8.49988 32.7498H41.4167V31.7498H8.49988V32.7498ZM41.4167 32.7498H73.4137V31.7498H41.4167V32.7498ZM41.9167 32.2498V3.08317H40.9167V32.2498H41.9167ZM74.5803 33.9165V37.2498H75.5803V33.9165H74.5803ZM74.5803 37.2498V77.7017H75.5803V37.2498H74.5803ZM78.9167 36.7498H75.0803V37.7498H78.9167V36.7498Z" fill="#B3B3B3"/>
</svg>
