<svg width="82" height="81" viewBox="0 0 82 81" fill="none" xmlns="http://www.w3.org/2000/svg">
<path d="M33.0833 50.8976H34.9423C35.4025 50.8976 35.7756 50.5245 35.7756 50.0643V48.3335M33.0833 50.8976V66.795C33.0833 67.6447 33.7721 68.3335 34.6218 68.3335H46.5449C47.3945 68.3335 48.0833 67.6447 48.0833 66.795V49.872C48.0833 49.0223 47.3945 48.3335 46.5449 48.3335H35.7756M33.0833 50.8976L35.7756 48.3335" stroke="white"/>
<path d="M11 34.1667C10.5398 34.1667 10.1667 34.5398 10.1667 35V57.9167H12.6667V43.3333C12.6667 42.4129 13.4129 41.6667 14.3334 41.6667H67.6667C68.5872 41.6667 69.3333 42.4129 69.3333 43.3333V68.3333C69.3333 69.2538 68.5872 70 67.6667 70H24.3334V76.6667H71.8333V35C71.8333 34.5398 71.4603 34.1667 71 34.1667H11Z" fill="#B3B3B3"/>
<path d="M46.8425 55.5018L47.9827 61.0735C48.0782 61.5403 48.603 61.7763 49.0157 61.5381C49.3495 61.3453 49.7765 61.4597 49.9693 61.7936L51.2869 64.0758C51.517 64.4743 52.0267 64.6109 52.4252 64.3808C52.8238 64.1507 52.9604 63.641 52.7303 63.2424L51.4127 60.9603C51.2199 60.6264 51.3343 60.1994 51.6682 60.0066C52.0808 59.7684 52.1388 59.1959 51.7823 58.8797L47.5272 55.1065C47.2276 54.8408 46.7622 55.1095 46.8425 55.5018Z" fill="#B3B3B3"/>
<path d="M40.7917 20.8333H69.4375C71.6812 20.8333 73.5 19.0145 73.5 16.7708C73.5 14.5272 71.6812 12.7083 69.4375 12.7083H66.8333L67.572 11.466C69.4428 8.31976 67.6239 4.27062 64.0294 3.57936C61.9414 3.17783 59.8162 4.06734 58.6368 5.83645L57.25 7.91667V6.66667C57.25 2.98477 54.2652 0 50.5834 0C46.9015 0 43.9167 2.98477 43.9167 6.66667V9.58333H40.7917C37.6851 9.58333 35.1667 12.1017 35.1667 15.2083C35.1667 18.3149 37.6851 20.8333 40.7917 20.8333Z" fill="#B3B3B3"/>
<path d="M6.8333 76.7021H75.0804H80.0402C80.3163 76.7021 80.5402 76.926 80.5402 77.2021V77.5836C80.5402 78.6882 79.6448 79.5836 78.5402 79.5836H3.37353C2.26896 79.5836 1.37354 78.6882 1.37354 77.5836V77.2021C1.37354 76.926 1.59739 76.7021 1.87354 76.7021H6.8333Z" fill="white" stroke="white"/>
<path d="M16.196 74.1112C16.4721 74.1112 16.696 73.8873 16.696 73.6112C16.696 73.335 16.4721 73.1112 16.196 73.1112V74.1112ZM15.1175 77.1667C15.3937 77.1667 15.6175 76.9429 15.6175 76.6667C15.6175 76.3906 15.3937 76.1667 15.1175 76.1667V77.1667ZM16.196 71.0556C16.4721 71.0556 16.696 70.8318 16.696 70.5556C16.696 70.2795 16.4721 70.0556 16.196 70.0556V71.0556ZM16.196 68.0001C16.4721 68.0001 16.696 67.7762 16.696 67.5001C16.696 67.2239 16.4721 67.0001 16.196 67.0001V68.0001ZM16.196 64.4445V64.9445C16.4721 64.9445 16.696 64.7207 16.696 64.4445H16.196ZM33.4149 46.367C33.4149 46.6431 33.6387 46.867 33.9149 46.867C34.191 46.867 34.4149 46.6431 34.4149 46.367H33.4149ZM34.2684 24.3808C34.0732 24.1856 33.7566 24.1856 33.5613 24.3808L30.3793 27.5628C30.1841 27.7581 30.1841 28.0746 30.3793 28.2699C30.5746 28.4652 30.8912 28.4652 31.0864 28.2699L33.9149 25.4415L36.7433 28.2699C36.9386 28.4652 37.2551 28.4652 37.4504 28.2699C37.6457 28.0746 37.6457 27.7581 37.4504 27.5628L34.2684 24.3808ZM46.7319 46.367C46.7319 46.6431 46.9557 46.867 47.2319 46.867C47.508 46.867 47.7319 46.6431 47.7319 46.367H46.7319ZM47.5854 24.3808C47.3902 24.1856 47.0736 24.1856 46.8783 24.3808L43.6963 27.5628C43.5011 27.7581 43.5011 28.0746 43.6963 28.2699C43.8916 28.4652 44.2082 28.4652 44.4034 28.2699L47.2319 25.4415L50.0603 28.2699C50.2556 28.4652 50.5721 28.4652 50.7674 28.2699C50.9627 28.0746 50.9627 27.7581 50.7674 27.5628L47.5854 24.3808ZM6.33318 58.3334C6.33318 58.6096 6.55704 58.8334 6.83318 58.8334C7.10933 58.8334 7.33318 58.6096 7.33318 58.3334H6.33318ZM8.49985 31.7501H73.4136V30.7501H8.49985V31.7501ZM74.5803 32.9167V76.702H75.5803V32.9167H74.5803ZM75.0803 76.202H6.83318V77.202H75.0803V76.202ZM75.0803 77.202H80.1234V76.202H75.0803V77.202ZM80.0401 77.1186V77.9167H81.0401V77.1186H80.0401ZM78.8734 79.0834H3.04008V80.0834H78.8734V79.0834ZM1.87341 77.9167V77.1186H0.873413V77.9167H1.87341ZM1.79008 77.202H6.83318V76.202H1.79008V77.202ZM1.87341 77.1186C1.87341 77.1647 1.8361 77.202 1.79008 77.202V76.202C1.28382 76.202 0.873413 76.6124 0.873413 77.1186H1.87341ZM80.1234 77.202C80.0774 77.202 80.0401 77.1647 80.0401 77.1186H81.0401C81.0401 76.6124 80.6297 76.202 80.1234 76.202V77.202ZM80.0401 77.9167C80.0401 78.5611 79.5177 79.0834 78.8734 79.0834V80.0834C80.07 80.0834 81.0401 79.1134 81.0401 77.9167H80.0401ZM73.4136 31.7501C74.058 31.7501 74.5803 32.2724 74.5803 32.9167H75.5803C75.5803 31.7201 74.6103 30.7501 73.4136 30.7501V31.7501ZM3.04008 79.0834C2.39575 79.0834 1.87341 78.5611 1.87341 77.9167H0.873413C0.873413 79.1134 1.84347 80.0834 3.04008 80.0834V79.0834ZM8.49985 30.7501C7.30323 30.7501 6.33318 31.7201 6.33318 32.9167H7.33318C7.33318 32.2724 7.85552 31.7501 8.49985 31.7501V30.7501ZM5.41165 76.1667C5.09219 76.1667 4.83322 75.9078 4.83322 75.5883H3.83322C3.83322 76.4601 4.53991 77.1667 5.41165 77.1667V76.1667ZM4.83322 75.5883V73.6112H3.83322V75.5883H4.83322ZM4.33322 74.1112H16.196V73.1112H4.33322V74.1112ZM15.1175 76.1667H5.41165V77.1667H15.1175V76.1667ZM4.83322 73.6112V70.5556H3.83322V73.6112H4.83322ZM4.33322 71.0556H16.196V70.0556H4.33322V71.0556ZM4.83322 70.5556V67.5001H3.83322V70.5556H4.83322ZM4.33322 68.0001H16.196V67.0001H4.33322V68.0001ZM4.83322 67.5001V64.4445H3.83322V67.5001H4.83322ZM4.33322 64.9445H16.196V63.9445H4.33322V64.9445ZM4.83322 64.4445V61.389H3.83322V64.4445H4.83322ZM4.33322 61.889H16.196V60.889H4.33322V61.889ZM15.696 61.389V64.4445H16.696V61.389H15.696ZM4.83322 61.389V59.4118H3.83322V61.389H4.83322ZM4.83322 59.4118C4.83322 59.0924 5.09219 58.8334 5.41165 58.8334V57.8334C4.53991 57.8334 3.83322 58.5401 3.83322 59.4118H4.83322ZM5.41165 58.8334H15.1175V57.8334H5.41165V58.8334ZM15.1175 58.8334C15.437 58.8334 15.696 59.0924 15.696 59.4118H16.696C16.696 58.5401 15.9893 57.8334 15.1175 57.8334V58.8334ZM15.696 59.4118V61.389H16.696V59.4118H15.696ZM13.745 76.1667C13.4255 76.1667 13.1666 75.9078 13.1666 75.5883H12.1666C12.1666 76.4601 12.8732 77.1667 13.745 77.1667V76.1667ZM13.1666 75.5883V73.6112H12.1666V75.5883H13.1666ZM12.6666 74.1112H24.5293V73.1112H12.6666V74.1112ZM24.0293 73.6112V75.5883H25.0293V73.6112H24.0293ZM24.0293 75.5883C24.0293 75.9078 23.7703 76.1667 23.4509 76.1667V77.1667C24.3226 77.1667 25.0293 76.4601 25.0293 75.5883H24.0293ZM23.4509 76.1667H13.745V77.1667H23.4509V76.1667ZM13.1666 73.6112V70.5556H12.1666V73.6112H13.1666ZM12.6666 71.0556H24.5293V70.0556H12.6666V71.0556ZM24.0293 70.5556V73.6112H25.0293V70.5556H24.0293ZM13.1666 70.5556V67.5001H12.1666V70.5556H13.1666ZM12.6666 68.0001H24.5293V67.0001H12.6666V68.0001ZM24.0293 67.5001V70.5556H25.0293V67.5001H24.0293ZM13.1666 67.5001V65.523H12.1666V67.5001H13.1666ZM13.1666 65.523C13.1666 65.2035 13.4255 64.9445 13.745 64.9445V63.9445C12.8732 63.9445 12.1666 64.6512 12.1666 65.523H13.1666ZM13.745 64.9445H23.4509V63.9445H13.745V64.9445ZM23.4509 64.9445C23.7703 64.9445 24.0293 65.2035 24.0293 65.523H25.0293C25.0293 64.6512 24.3226 63.9445 23.4509 63.9445V64.9445ZM24.0293 65.523V67.5001H25.0293V65.523H24.0293ZM34.4149 46.367V24.7344H33.4149V46.367H34.4149ZM47.7319 46.367V24.7344H46.7319V46.367H47.7319ZM7.33318 58.3334V32.9167H6.33318V58.3334H7.33318Z" fill="white"/>
<path d="M17.3134 20.8335H40.9774C42.8308 20.8335 44.3334 19.3057 44.3334 17.421C44.3334 15.5363 42.8308 14.0085 40.9774 14.0085H38.8261L39.4363 12.965C40.9817 10.3221 39.4792 6.92082 36.5098 6.34016C34.7849 6.00287 33.0294 6.75006 32.0551 8.23611L30.9094 9.9835V8.9335C30.9094 5.8407 28.4438 3.3335 25.4022 3.3335C22.3606 3.3335 19.8949 5.8407 19.8949 8.9335V11.3835H17.3134C14.7471 11.3835 12.6667 13.499 12.6667 16.1085C12.6667 18.718 14.7471 20.8335 17.3134 20.8335Z" fill="#B3B3B3" stroke="white" stroke-linecap="round" stroke-linejoin="round"/>
</svg>
