<svg width="82" height="82" viewBox="0 0 82 82" fill="none" xmlns="http://www.w3.org/2000/svg">
<path d="M9.99475 66.984L10.4725 66.8366C10.4079 66.627 10.2141 66.484 9.99475 66.484V66.984ZM9.57147 63.8962V64.3962C9.71663 64.3962 9.85463 64.3331 9.9496 64.2233C10.0446 64.1135 10.0872 63.9679 10.0663 63.8242L9.57147 63.8962ZM18.672 66.984V66.484C18.4526 66.484 18.2588 66.627 18.1942 66.8366L18.672 66.984ZM19.0952 63.8962L18.6004 63.8242C18.5796 63.9679 18.6221 64.1135 18.7171 64.2233C18.8121 64.3331 18.9501 64.3962 19.0952 64.3962V63.8962ZM5.0084 74.162L4.76963 73.7227L4.75104 73.7328L4.73337 73.7444L5.0084 74.162ZM23.6583 74.162L23.9333 73.7444L23.9157 73.7328L23.8971 73.7227L23.6583 74.162ZM9.98693 62.8052C9.97727 62.5293 9.74572 62.3134 9.46975 62.323C9.19377 62.3327 8.97789 62.5643 8.98755 62.8402L9.98693 62.8052ZM19.6792 62.8402C19.6888 62.5643 19.4729 62.3327 19.197 62.323C18.921 62.3134 18.6894 62.5293 18.6798 62.8052L19.6792 62.8402ZM72.0551 22.4007V21.9007C71.8358 21.9007 71.642 22.0437 71.5773 22.2533L72.0551 22.4007ZM72.4784 19.3129L71.9836 19.2409C71.9627 19.3846 72.0053 19.5302 72.1003 19.64C72.1953 19.7498 72.3333 19.8129 72.4784 19.8129V19.3129ZM63.3779 22.4007L63.8557 22.2533C63.7911 22.0437 63.5973 21.9007 63.3779 21.9007V22.4007ZM62.9546 19.3129V19.8129C63.0998 19.8129 63.2378 19.7498 63.3328 19.64C63.4278 19.5302 63.4703 19.3846 63.4494 19.2409L62.9546 19.3129ZM77.0415 29.5787L77.3165 29.1611L77.2989 29.1495L77.2803 29.1394L77.0415 29.5787ZM58.3916 29.5787L58.1528 29.1394L58.1342 29.1495L58.1166 29.1611L58.3916 29.5787ZM73.0623 18.2569C73.072 17.9809 72.8561 17.7494 72.5801 17.7397C72.3042 17.7301 72.0726 17.9459 72.063 18.2219L73.0623 18.2569ZM63.3701 18.2219C63.3605 17.9459 63.1289 17.7301 62.8529 17.7397C62.577 17.7494 62.3611 17.9809 62.3707 18.2569L63.3701 18.2219ZM40.8525 57.7013C40.5764 57.7013 40.3525 57.9251 40.3525 58.2013C40.3525 58.4774 40.5764 58.7013 40.8525 58.7013V57.7013ZM73.5113 58.7013C73.7874 58.7013 74.0113 58.4774 74.0113 58.2013C74.0113 57.9251 73.7874 57.7013 73.5113 57.7013V58.7013ZM40.8525 62.7327C40.5764 62.7327 40.3525 62.9565 40.3525 63.2327C40.3525 63.5088 40.5764 63.7327 40.8525 63.7327V62.7327ZM68.3542 63.7327C68.6304 63.7327 68.8542 63.5088 68.8542 63.2327C68.8542 62.9565 68.6304 62.7327 68.3542 62.7327V63.7327ZM40.8525 67.7641C40.5764 67.7641 40.3525 67.9879 40.3525 68.2641C40.3525 68.5402 40.5764 68.7641 40.8525 68.7641V67.7641ZM71.2932 68.7641C71.5694 68.7641 71.7932 68.5402 71.7932 68.2641C71.7932 67.9879 71.5694 67.7641 71.2932 67.7641V68.7641ZM40.8525 72.7955C40.5764 72.7955 40.3525 73.0193 40.3525 73.2955C40.3525 73.5716 40.5764 73.7955 40.8525 73.7955V72.7955ZM64.9954 73.7955C65.2715 73.7955 65.4954 73.5716 65.4954 73.2955C65.4954 73.0193 65.2715 72.7955 64.9954 72.7955V73.7955ZM32.2284 76.6525L32.4655 77.0927L32.2284 76.6525ZM79.3333 52.6665V53.1665V52.6665ZM34.3333 52.6667V52.1667V52.6667ZM28.1231 78.863L27.886 78.4228L28.1231 78.863ZM47.7165 1.41668L47.7165 1.91668L47.7165 1.41668ZM3.08342 1.4165L3.08342 1.9165L3.08342 1.4165ZM41.2595 24.7628C41.5357 24.7628 41.7595 24.5389 41.7595 24.2628C41.7595 23.9866 41.5357 23.7628 41.2595 23.7628V24.7628ZM8.84861 23.7628C8.57247 23.7628 8.34861 23.9866 8.34861 24.2628C8.34861 24.5389 8.57247 24.7628 8.84861 24.7628V23.7628ZM35.5834 28.9162C35.8595 28.9162 36.0834 28.6923 36.0834 28.4162C36.0834 28.14 35.8595 27.9162 35.5834 27.9162V28.9162ZM8.84861 27.9162C8.57247 27.9162 8.34861 28.14 8.34861 28.4162C8.34861 28.6923 8.57247 28.9162 8.84861 28.9162V27.9162ZM29.3334 33.0695C29.6095 33.0695 29.8334 32.8457 29.8334 32.5695C29.8334 32.2934 29.6095 32.0695 29.3334 32.0695V33.0695ZM8.84861 32.0695C8.57247 32.0695 8.34861 32.2934 8.34861 32.5695C8.34861 32.8457 8.57247 33.0695 8.84861 33.0695V32.0695ZM38.0834 37.2229C38.3595 37.2229 38.5834 36.9991 38.5834 36.7229C38.5834 36.4468 38.3595 36.2229 38.0834 36.2229V37.2229ZM8.84861 36.2229C8.57247 36.2229 8.34861 36.4468 8.34861 36.7229C8.34861 36.9991 8.57247 37.2229 8.84861 37.2229V36.2229ZM26.75 67.6665C26.75 74.524 21.1909 80.0832 14.3334 80.0832V81.0832C21.7432 81.0832 27.75 75.0763 27.75 67.6665H26.75ZM14.3334 80.0832C7.47582 80.0832 1.91669 74.524 1.91669 67.6665H0.916687C0.916687 75.0763 6.92353 81.0832 14.3334 81.0832V80.0832ZM1.91669 67.6665C1.91669 60.8089 7.47582 55.2498 14.3334 55.2498V54.2498C6.92353 54.2498 0.916687 60.2567 0.916687 67.6665H1.91669ZM14.3334 55.2498C21.1909 55.2498 26.75 60.8089 26.75 67.6665H27.75C27.75 60.2567 21.7432 54.2498 14.3334 54.2498V55.2498ZM9.51696 67.1313C9.71418 67.7708 10.1813 68.7021 10.9581 69.4813C11.7432 70.2689 12.861 70.9149 14.3334 70.9149V69.9149C13.1814 69.9149 12.3062 69.4172 11.6663 68.7753C11.018 68.1249 10.628 67.3408 10.4725 66.8366L9.51696 67.1313ZM9.99475 66.484C9.78428 66.484 9.61957 66.3904 9.48294 66.2049C9.33714 66.007 9.23714 65.7158 9.20987 65.3974C9.18243 65.0772 9.23346 64.7883 9.32645 64.6012C9.41406 64.4249 9.49994 64.3962 9.57147 64.3962V63.3962C9.00808 63.3962 8.631 63.7535 8.43092 64.1562C8.23621 64.548 8.17481 65.031 8.21352 65.4828C8.25238 65.9364 8.39709 66.417 8.67787 66.7981C8.96782 67.1916 9.41157 67.484 9.99475 67.484V66.484ZM18.1942 66.8366C18.0152 67.4167 17.5308 68.3544 16.7107 69.0413L17.3527 69.8079C18.3481 68.9743 18.9256 67.8582 19.1497 67.1314L18.1942 66.8366ZM16.7107 69.0413C16.1054 69.5481 15.3231 69.9149 14.3334 69.9149V70.9149C15.593 70.9149 16.5963 70.4414 17.3527 69.8079L16.7107 69.0413ZM18.672 67.484C19.2551 67.484 19.6989 67.1916 19.9888 66.7981C20.2696 66.417 20.4143 65.9364 20.4532 65.4828C20.4919 65.031 20.4305 64.548 20.2358 64.1562C20.0357 63.7535 19.6586 63.3962 19.0952 63.3962V64.3962C19.1668 64.3962 19.2526 64.4249 19.3403 64.6012C19.4332 64.7883 19.4843 65.0772 19.4568 65.3974C19.4296 65.7158 19.3296 66.007 19.1838 66.2049C19.0471 66.3904 18.8824 66.484 18.672 66.484V67.484ZM10.3788 70.674L4.76963 73.7227L5.24717 74.6013L10.8563 71.5526L10.3788 70.674ZM4.73337 73.7444C4.39982 73.9641 4.17853 74.3299 4.04267 74.6653C3.90287 75.0104 3.82294 75.3982 3.82294 75.7394H4.82294C4.82294 75.5398 4.87296 75.2791 4.96951 75.0407C5.06999 74.7927 5.19144 74.6402 5.28343 74.5796L4.73337 73.7444ZM11.635 69.4246C11.155 69.2846 11.1551 69.2845 11.1551 69.2844C11.1551 69.2844 11.1551 69.2843 11.1551 69.2842C11.1551 69.2842 11.1552 69.2841 11.1552 69.2841C11.1552 69.284 11.1552 69.284 11.1552 69.284C11.1551 69.2841 11.155 69.2845 11.1548 69.2852C11.1544 69.2866 11.1536 69.2892 11.1525 69.2928C11.1503 69.3 11.1468 69.3116 11.1418 69.3269C11.132 69.3576 11.1168 69.4033 11.0966 69.46C11.0558 69.5741 10.9954 69.7296 10.9173 69.896C10.749 70.2544 10.5431 70.5636 10.3425 70.6958L10.8926 71.5309C11.3416 71.2352 11.6445 70.7 11.8225 70.3211C11.9175 70.1187 11.9897 69.9323 12.0382 69.7966C12.0626 69.7284 12.0812 69.6722 12.094 69.6323C12.1005 69.6123 12.1054 69.5964 12.1089 69.5849C12.1107 69.5792 12.112 69.5746 12.1131 69.5712C12.1136 69.5695 12.114 69.5681 12.1143 69.567C12.1145 69.5664 12.1146 69.566 12.1147 69.5656C12.1148 69.5654 12.1148 69.5652 12.1149 69.565C12.1149 69.565 12.1149 69.5649 12.1149 69.5648C12.115 69.5647 12.115 69.5646 11.635 69.4246ZM17.8104 71.5526L23.4195 74.6013L23.8971 73.7227L18.2879 70.674L17.8104 71.5526ZM23.3833 74.5796C23.4753 74.6402 23.5967 74.7927 23.6972 75.0407C23.7937 75.2791 23.8438 75.5398 23.8438 75.7394H24.8438C24.8438 75.3982 24.7638 75.0104 24.624 74.6653C24.4882 74.3299 24.2669 73.9641 23.9333 73.7444L23.3833 74.5796ZM17.0317 69.4246C16.5517 69.5646 16.5517 69.5647 16.5518 69.5648C16.5518 69.5649 16.5518 69.565 16.5518 69.565C16.5519 69.5652 16.5519 69.5654 16.552 69.5656C16.5521 69.566 16.5522 69.5664 16.5524 69.567C16.5527 69.5681 16.5531 69.5695 16.5536 69.5712C16.5547 69.5746 16.556 69.5792 16.5578 69.5849C16.5613 69.5964 16.5662 69.6123 16.5727 69.6323C16.5855 69.6722 16.6041 69.7284 16.6285 69.7966C16.677 69.9323 16.7492 70.1187 16.8442 70.3211C17.0222 70.7 17.3251 71.2352 17.7741 71.5309L18.3242 70.6958C18.1236 70.5636 17.9177 70.2544 17.7494 69.896C17.6713 69.7296 17.6109 69.5741 17.5701 69.46C17.5499 69.4033 17.5347 69.3576 17.5249 69.3269C17.52 69.3116 17.5164 69.3 17.5142 69.2928C17.5131 69.2892 17.5123 69.2866 17.5119 69.2852C17.5117 69.2845 17.5116 69.2841 17.5115 69.284C17.5115 69.284 17.5115 69.284 17.5115 69.2841C17.5115 69.2841 17.5116 69.2842 17.5116 69.2842C17.5116 69.2843 17.5116 69.2844 17.5116 69.2844C17.5117 69.2845 17.5117 69.2846 17.0317 69.4246ZM9.57147 63.8962C10.0663 63.8242 10.0663 63.8243 10.0663 63.8243C10.0663 63.8243 10.0663 63.8244 10.0663 63.8244C10.0663 63.8244 10.0663 63.8245 10.0663 63.8245C10.0663 63.8245 10.0663 63.8246 10.0663 63.8246C10.0663 63.8246 10.0663 63.8245 10.0663 63.8243C10.0662 63.8239 10.0661 63.8231 10.0659 63.822C10.0656 63.8196 10.0651 63.8156 10.0643 63.8101C10.0628 63.7991 10.0606 63.782 10.0578 63.759C10.0521 63.7131 10.0442 63.6442 10.0355 63.5551C10.0182 63.3769 9.99792 63.1189 9.98693 62.8052L8.98755 62.8402C8.99935 63.1775 9.02119 63.4562 9.04025 63.652C9.04979 63.75 9.05865 63.8273 9.06524 63.881C9.06854 63.9078 9.07127 63.9287 9.07324 63.9434C9.07423 63.9507 9.07502 63.9565 9.0756 63.9606C9.07589 63.9627 9.07613 63.9644 9.07631 63.9656C9.0764 63.9662 9.07647 63.9668 9.07653 63.9672C9.07656 63.9674 9.07659 63.9676 9.07661 63.9677C9.07662 63.9678 9.07664 63.9679 9.07664 63.968C9.07665 63.968 9.07666 63.968 9.07666 63.9681C9.07666 63.9681 9.07667 63.9681 9.57147 63.8962ZM19.0952 63.8962C19.59 63.9681 19.59 63.9681 19.59 63.9681C19.59 63.968 19.5901 63.968 19.5901 63.968C19.5901 63.9679 19.5901 63.9678 19.5901 63.9677C19.5901 63.9676 19.5901 63.9674 19.5902 63.9672C19.5902 63.9668 19.5903 63.9662 19.5904 63.9656C19.5906 63.9644 19.5908 63.9627 19.5911 63.9606C19.5917 63.9565 19.5925 63.9507 19.5935 63.9434C19.5954 63.9287 19.5982 63.9078 19.6015 63.881C19.6081 63.8273 19.6169 63.75 19.6265 63.652C19.6455 63.4562 19.6674 63.1775 19.6792 62.8402L18.6798 62.8052C18.6688 63.1189 18.6485 63.3769 18.6312 63.5551C18.6225 63.6442 18.6146 63.7131 18.6089 63.759C18.6061 63.782 18.6039 63.7991 18.6024 63.8101C18.6016 63.8156 18.6011 63.8196 18.6008 63.822C18.6006 63.8231 18.6005 63.8239 18.6004 63.8243C18.6004 63.8245 18.6004 63.8246 18.6004 63.8246C18.6004 63.8246 18.6004 63.8245 18.6004 63.8245C18.6004 63.8245 18.6004 63.8244 18.6004 63.8244C18.6004 63.8244 18.6004 63.8243 18.6004 63.8243C18.6004 63.8243 18.6004 63.8242 19.0952 63.8962ZM10.3028 71.5018C11.7043 72.6375 12.9142 73.3108 14.2233 73.322C15.5289 73.3332 16.8095 72.6849 18.3519 71.5112L17.7464 70.7154C16.2435 71.859 15.19 72.3303 14.2319 72.322C13.2775 72.3138 12.2942 71.8284 10.9324 70.7249L10.3028 71.5018ZM54.2999 23.0832C54.2999 30.493 60.3067 36.4998 67.7165 36.4998V35.4998C60.859 35.4998 55.2999 29.9407 55.2999 23.0832H54.2999ZM67.7165 36.4998C75.1264 36.4998 81.1332 30.493 81.1332 23.0832H80.1332C80.1332 29.9407 74.5741 35.4998 67.7165 35.4998V36.4998ZM81.1332 23.0832C81.1332 15.6733 75.1264 9.6665 67.7165 9.6665V10.6665C74.5741 10.6665 80.1332 16.2256 80.1332 23.0832H81.1332ZM67.7165 9.6665C60.3067 9.6665 54.2999 15.6733 54.2999 23.0832H55.2999C55.2999 16.2256 60.859 10.6665 67.7165 10.6665V9.6665ZM71.5773 22.2533C71.4218 22.7575 71.0319 23.5416 70.3836 24.192C69.7436 24.8339 68.8685 25.3315 67.7165 25.3315V26.3315C69.1889 26.3315 70.3067 25.6855 71.0918 24.898C71.8685 24.1188 72.3357 23.1875 72.5329 22.548L71.5773 22.2533ZM72.0551 22.9007C72.6383 22.9007 73.0821 22.6083 73.372 22.2148C73.6528 21.8337 73.7975 21.353 73.8364 20.8994C73.8751 20.4477 73.8137 19.9647 73.619 19.5728C73.4189 19.1702 73.0418 18.8129 72.4784 18.8129V19.8129C72.5499 19.8129 72.6358 19.8415 72.7234 20.0178C72.8164 20.205 72.8675 20.4939 72.84 20.8141C72.8127 21.1324 72.7127 21.4237 72.5669 21.6216C72.4303 21.807 72.2656 21.9007 72.0551 21.9007V22.9007ZM62.9001 22.548C63.1243 23.2749 63.7018 24.391 64.6972 25.2246L65.3392 24.4579C64.5191 23.7711 64.0346 22.8334 63.8557 22.2533L62.9001 22.548ZM64.6972 25.2246C65.4536 25.858 66.4569 26.3315 67.7165 26.3315V25.3315C66.7267 25.3315 65.9445 24.9648 65.3392 24.4579L64.6972 25.2246ZM63.3779 21.9007C63.1675 21.9007 63.0028 21.807 62.8661 21.6216C62.7203 21.4237 62.6203 21.1324 62.593 20.8141C62.5656 20.4939 62.6166 20.205 62.7096 20.0178C62.7972 19.8415 62.8831 19.8129 62.9546 19.8129V18.8129C62.3913 18.8129 62.0142 19.1702 61.8141 19.5728C61.6194 19.9647 61.558 20.4477 61.5967 20.8994C61.6356 21.353 61.7803 21.8337 62.0611 22.2148C62.351 22.6083 62.7948 22.9007 63.3779 22.9007V21.9007ZM71.1935 26.9693L76.8027 30.018L77.2803 29.1394L71.6711 26.0907L71.1935 26.9693ZM76.7665 29.9962C76.8585 30.0568 76.9799 30.2094 77.0804 30.4574C77.1769 30.6958 77.2269 30.9565 77.2269 31.1561H78.2269C78.2269 30.8149 78.147 30.4271 78.0072 30.082C77.8714 29.7466 77.6501 29.3808 77.3165 29.1611L76.7665 29.9962ZM70.4149 24.8413C69.9349 24.9813 69.9349 24.9814 69.9349 24.9815C69.935 24.9815 69.935 24.9816 69.935 24.9817C69.9351 24.9819 69.9351 24.9821 69.9352 24.9823C69.9353 24.9826 69.9354 24.9831 69.9356 24.9837C69.9359 24.9848 69.9363 24.9862 69.9368 24.9879C69.9378 24.9913 69.9392 24.9959 69.941 25.0016C69.9445 25.013 69.9494 25.029 69.9558 25.049C69.9687 25.0889 69.9873 25.1451 70.0117 25.2132C70.0602 25.349 70.1324 25.5354 70.2274 25.7377C70.4054 26.1167 70.7083 26.6519 71.1573 26.9476L71.7073 26.1124C71.5067 25.9803 71.3009 25.6711 71.1326 25.3126C71.0545 25.1463 70.9941 24.9908 70.9533 24.8767C70.9331 24.82 70.9179 24.7743 70.9081 24.7436C70.9031 24.7282 70.8996 24.7167 70.8973 24.7095C70.8962 24.7058 70.8955 24.7033 70.8951 24.7019C70.8949 24.7012 70.8947 24.7008 70.8947 24.7007C70.8947 24.7006 70.8947 24.7006 70.8947 24.7007C70.8947 24.7008 70.8947 24.7008 70.8948 24.7009C70.8948 24.701 70.8948 24.701 70.8948 24.7011C70.8948 24.7011 70.8949 24.7012 70.4149 24.8413ZM63.762 26.0907L58.1528 29.1394L58.6304 30.018L64.2395 26.9693L63.762 26.0907ZM58.1166 29.1611C57.783 29.3808 57.5617 29.7466 57.4259 30.082C57.2861 30.4271 57.2061 30.8149 57.2061 31.1561H58.2061C58.2061 30.9565 58.2561 30.6958 58.3527 30.4574C58.4532 30.2094 58.5746 30.0568 58.6666 29.9962L58.1166 29.1611ZM65.0182 24.8413C64.5382 24.7012 64.5382 24.7011 64.5383 24.7011C64.5383 24.701 64.5383 24.701 64.5383 24.7009C64.5383 24.7008 64.5383 24.7008 64.5384 24.7007C64.5384 24.7006 64.5384 24.7006 64.5384 24.7007C64.5383 24.7008 64.5382 24.7012 64.538 24.7019C64.5376 24.7033 64.5368 24.7058 64.5357 24.7095C64.5335 24.7167 64.5299 24.7282 64.525 24.7436C64.5152 24.7743 64.5 24.82 64.4797 24.8767C64.439 24.9908 64.3786 25.1463 64.3005 25.3126C64.1321 25.6711 63.9263 25.9803 63.7257 26.1124L64.2758 26.9476C64.7248 26.6519 65.0277 26.1167 65.2056 25.7377C65.3007 25.5354 65.3729 25.349 65.4214 25.2132C65.4458 25.1451 65.4644 25.0889 65.4772 25.049C65.4836 25.029 65.4886 25.013 65.4921 25.0016C65.4938 24.9959 65.4952 24.9913 65.4962 24.9879C65.4967 24.9862 65.4972 24.9848 65.4975 24.9837C65.4977 24.9831 65.4978 24.9826 65.4979 24.9823C65.498 24.9821 65.498 24.9819 65.4981 24.9817C65.4981 24.9816 65.4981 24.9815 65.4981 24.9815C65.4982 24.9814 65.4982 24.9813 65.0182 24.8413ZM72.4784 19.3129C72.9732 19.3848 72.9732 19.3848 72.9732 19.3847C72.9732 19.3847 72.9732 19.3847 72.9732 19.3846C72.9733 19.3846 72.9733 19.3845 72.9733 19.3844C72.9733 19.3843 72.9733 19.3841 72.9734 19.3839C72.9734 19.3834 72.9735 19.3829 72.9736 19.3823C72.9738 19.381 72.974 19.3794 72.9743 19.3773C72.9749 19.3732 72.9757 19.3674 72.9766 19.3601C72.9786 19.3454 72.9813 19.3245 72.9846 19.2976C72.9912 19.244 73.0001 19.1666 73.0096 19.0687C73.0287 18.8729 73.0505 18.5941 73.0623 18.2569L72.063 18.2219C72.052 18.5356 72.0317 18.7936 72.0143 18.9718C72.0057 19.0608 71.9977 19.1298 71.9921 19.1757C71.9893 19.1986 71.987 19.2158 71.9856 19.2268C71.9848 19.2323 71.9843 19.2363 71.9839 19.2386C71.9838 19.2398 71.9837 19.2406 71.9836 19.241C71.9836 19.2412 71.9836 19.2413 71.9836 19.2413C71.9836 19.2412 71.9836 19.2412 71.9836 19.2412C71.9836 19.2411 71.9836 19.2411 71.9836 19.2411C71.9836 19.241 71.9836 19.241 71.9836 19.241C71.9836 19.241 71.9836 19.2409 72.4784 19.3129ZM62.9546 19.3129C63.4494 19.2409 63.4494 19.241 63.4495 19.241C63.4495 19.241 63.4495 19.241 63.4495 19.2411C63.4495 19.2411 63.4495 19.2411 63.4495 19.2412C63.4495 19.2412 63.4495 19.2413 63.4495 19.2413C63.4495 19.2413 63.4495 19.2412 63.4495 19.241C63.4494 19.2406 63.4493 19.2398 63.4491 19.2386C63.4488 19.2363 63.4482 19.2323 63.4475 19.2268C63.446 19.2158 63.4438 19.1987 63.441 19.1757C63.4353 19.1298 63.4274 19.0608 63.4187 18.9718C63.4014 18.7936 63.3811 18.5356 63.3701 18.2219L62.3707 18.2569C62.3825 18.5941 62.4044 18.8729 62.4234 19.0687C62.433 19.1666 62.4418 19.244 62.4484 19.2976C62.4517 19.3245 62.4545 19.3454 62.4564 19.3601C62.4574 19.3674 62.4582 19.3731 62.4588 19.3773C62.4591 19.3794 62.4593 19.381 62.4595 19.3823C62.4596 19.3829 62.4596 19.3834 62.4597 19.3839C62.4597 19.3841 62.4598 19.3842 62.4598 19.3844C62.4598 19.3845 62.4598 19.3846 62.4598 19.3846C62.4598 19.3847 62.4598 19.3847 62.4598 19.3847C62.4598 19.3848 62.4599 19.3848 62.9546 19.3129ZM71.1175 26.1415C69.7557 27.2451 68.7724 27.7305 67.8179 27.7387C66.8599 27.747 65.8064 27.2757 64.3035 26.1321L63.698 26.9279C65.2404 28.1016 66.521 28.7499 67.8265 28.7387C69.1357 28.7274 70.3456 28.0542 71.7471 26.9185L71.1175 26.1415ZM40.8525 58.7013H73.5113V57.7013H40.8525V58.7013ZM40.8525 63.7327H68.3542V62.7327H40.8525V63.7327ZM40.8525 68.7641H71.2932V67.7641H40.8525V68.7641ZM40.8525 73.7955H64.9954V72.7955H40.8525V73.7955ZM34.3333 53.1667L79.3333 53.1665L79.3333 52.1665L34.3333 52.1667L34.3333 53.1667ZM80.5 54.3332V77.6665H81.5V54.3332H80.5ZM79.3333 78.8332H28.2416V79.8332H79.3333V78.8332ZM28.3601 79.3033L32.4655 77.0927L31.9914 76.2122L27.886 78.4228L28.3601 79.3033ZM33.1667 75.9187V54.3334H32.1667V75.9187H33.1667ZM32.4655 77.0927C32.8974 76.8602 33.1667 76.4093 33.1667 75.9187H32.1667C32.1667 76.0414 32.0994 76.1541 31.9914 76.2122L32.4655 77.0927ZM80.5 77.6665C80.5 78.3108 79.9777 78.8332 79.3333 78.8332V79.8332C80.53 79.8332 81.5 78.8631 81.5 77.6665H80.5ZM79.3333 53.1665C79.9777 53.1665 80.5 53.6888 80.5 54.3332H81.5C81.5 53.1365 80.53 52.1665 79.3333 52.1665L79.3333 53.1665ZM34.3333 52.1667C33.1367 52.1667 32.1667 53.1368 32.1667 54.3334H33.1667C33.1667 53.6891 33.689 53.1667 34.3333 53.1667L34.3333 52.1667ZM28.2416 78.8332C28.5013 78.8332 28.5888 79.1801 28.3601 79.3033L27.886 78.4228C27.2 78.7922 27.4625 79.8332 28.2416 79.8332V78.8332ZM49.8832 41.7628V3.08335H48.8832V41.7628H49.8832ZM47.7165 0.916685L3.08342 0.916504L3.08342 1.9165L47.7165 1.91668L47.7165 0.916685ZM0.916744 3.08317V41.7628H1.91674V3.08317H0.916744ZM3.08341 43.9294H47.7165V42.9294H3.08341V43.9294ZM41.2595 23.7628H8.84861V24.7628H41.2595V23.7628ZM35.5834 27.9162H8.84861V28.9162H35.5834V27.9162ZM29.3334 32.0695H8.84861V33.0695H29.3334V32.0695ZM38.0834 36.2229H8.84861V37.2229H38.0834V36.2229ZM0.916744 41.7628C0.916744 42.9594 1.88679 43.9294 3.08341 43.9294V42.9294C2.43908 42.9294 1.91674 42.4071 1.91674 41.7628H0.916744ZM3.08342 0.916504C1.8868 0.916499 0.916744 1.88655 0.916744 3.08317H1.91674C1.91674 2.43884 2.43908 1.9165 3.08342 1.9165L3.08342 0.916504ZM49.8832 3.08335C49.8832 1.88674 48.9132 0.91669 47.7165 0.916685L47.7165 1.91668C48.3609 1.91669 48.8832 2.43902 48.8832 3.08335H49.8832ZM48.8832 41.7628C48.8832 42.4071 48.3609 42.9294 47.7165 42.9294V43.9294C48.9131 43.9294 49.8832 42.9594 49.8832 41.7628H48.8832Z" fill="#B3B3B3"/>
<path d="M13.0833 62.6669C16.5962 61.6821 17.0194 60.5056 17.927 58.469C18.3306 60.707 18.5727 62.6669 20.5102 62.6669C20.5102 62.6669 20.5102 56.5315 14.3748 56.5315C8.2394 56.5315 8.23938 62.9898 8.23938 62.9898C10.4248 62.7089 11.7134 61.8591 13.0833 60.4065V62.6669Z" fill="white"/>
<path d="M68.9666 17.9689C65.4537 16.9841 65.0305 15.8077 64.1229 13.771C63.7192 16.009 63.4772 17.9689 61.5397 17.9689C61.5397 17.9689 61.5397 11.8335 67.6751 11.8335C73.8105 11.8335 73.8105 18.2918 73.8105 18.2918C71.625 18.0109 70.3364 17.1611 68.9666 15.7085V17.9689Z" fill="white"/>
<path d="M13.0833 62.6669C16.5962 61.6821 17.0194 60.5056 17.927 58.469C18.3306 60.707 18.5727 62.6669 20.5102 62.6669C20.5102 62.6669 20.5102 56.5315 14.3748 56.5315C8.2394 56.5315 8.23938 62.9898 8.23938 62.9898C10.4248 62.7089 11.7134 61.8591 13.0833 60.4065V62.6669Z" stroke="white" stroke-linecap="round" stroke-linejoin="round"/>
<path d="M68.9666 17.9689C65.4537 16.9841 65.0305 15.8077 64.1229 13.771C63.7192 16.009 63.4772 17.9689 61.5397 17.9689C61.5397 17.9689 61.5397 11.8335 67.6751 11.8335C73.8105 11.8335 73.8105 18.2918 73.8105 18.2918C71.625 18.0109 70.3364 17.1611 68.9666 15.7085V17.9689Z" stroke="white" stroke-linecap="round" stroke-linejoin="round"/>
<path d="M8.50002 63.3748V62.729C8.50002 59.5188 10.4375 56.9165 14.3125 56.9165C18.1875 56.9165 20.125 59.5188 20.125 62.729V64.0207M8.08356 65.1872C8.08356 68.3974 9.81845 70.9997 11.9586 70.9997" stroke="#B3B3B3"/>
<path d="M12.625 64.0206C12.625 64.1011 12.5597 64.1664 12.4791 64.1664C12.3986 64.1664 12.3333 64.1011 12.3333 64.0206C12.3333 63.9401 12.3986 63.8748 12.4791 63.8748C12.5597 63.8748 12.625 63.9401 12.625 64.0206ZM16.5001 64.0206C16.5001 64.1011 16.4348 64.1664 16.3543 64.1664C16.2737 64.1664 16.2084 64.1011 16.2084 64.0206C16.2084 63.9401 16.2737 63.8748 16.3543 63.8748C16.4348 63.8748 16.5001 63.9401 16.5001 64.0206ZM69.5208 19.7082C69.4403 19.7082 69.375 19.6429 69.375 19.5623C69.375 19.4818 69.4403 19.4165 69.5208 19.4165C69.6013 19.4165 69.6666 19.4818 69.6666 19.5623C69.6666 19.6429 69.6013 19.7082 69.5208 19.7082ZM65.6458 19.7082C65.5653 19.7082 65.5 19.6429 65.5 19.5623C65.5 19.4818 65.5653 19.4165 65.6458 19.4165C65.7263 19.4165 65.7916 19.4818 65.7916 19.5623C65.7916 19.6429 65.7263 19.7082 65.6458 19.7082Z" fill="#071563" stroke="#B3B3B3"/>
<path d="M21.4168 64.6212C21.5046 63.9133 21.002 63.2682 20.294 63.1803L20.2583 63.1759C19.5504 63.088 18.9052 63.5907 18.8174 64.2987L18.5788 66.2214C18.4909 66.9293 18.9936 67.5745 19.7015 67.6623L19.7373 67.6667C20.4452 67.7546 21.0903 67.2519 21.1782 66.544L21.4168 64.6212Z" fill="white"/>
<path d="M7.20241 64.6212C7.11456 63.9133 7.61723 63.2682 8.32517 63.1803L8.3609 63.1759C9.06884 63.088 9.71396 63.5907 9.80181 64.2987L10.0404 66.2214C10.1283 66.9293 9.62561 67.5745 8.91767 67.6623L8.88194 67.6667C8.174 67.7546 7.52888 67.2519 7.44103 66.544L7.20241 64.6212Z" fill="white"/>
<path d="M13.0813 70.9999C13.0813 71.3566 12.7921 71.6457 12.4354 71.6457C12.0788 71.6457 11.7896 71.3566 11.7896 70.9999C11.7896 70.6432 12.0788 70.3541 12.4354 70.3541C12.7921 70.3541 13.0813 70.6432 13.0813 70.9999Z" fill="white"/>
<path d="M8.50003 7.66667C8.50003 6.74619 9.24622 6 10.1667 6H41.8334C42.7538 6 43.5 6.74619 43.5 7.66667V18.5C43.5 19.4205 42.7538 20.1667 41.8334 20.1667H10.1667C9.24622 20.1667 8.50003 19.4205 8.50003 18.5V7.66667Z" fill="white"/>
<path d="M40.4036 35.9647C40.2753 35.9647 40.1696 35.8605 40.1807 35.7327C40.1943 35.577 40.2226 35.4462 40.2656 35.3403C40.3285 35.1853 40.4432 35.0332 40.6097 34.8838C40.778 34.7326 40.8899 34.6104 40.9454 34.517C41.0009 34.4218 41.0287 34.3219 41.0287 34.2174C41.0287 33.9019 40.8844 33.7442 40.5958 33.7442C40.4589 33.7442 40.3489 33.7871 40.2656 33.873C40.2416 33.8978 40.221 33.9254 40.2038 33.9558C40.1276 34.0904 40.0147 34.223 39.8601 34.223C39.5701 34.223 39.3172 33.9746 39.4369 33.7104C39.4932 33.586 39.5724 33.4778 39.6746 33.3857C39.9003 33.1841 40.2074 33.0833 40.5958 33.0833C40.988 33.0833 41.2923 33.1795 41.5087 33.3717C41.7251 33.5622 41.8333 33.8319 41.8333 34.181C41.8333 34.3397 41.7982 34.49 41.7279 34.6318C41.6576 34.7718 41.5346 34.9277 41.3589 35.0995L41.1341 35.3151C40.9935 35.4513 40.9131 35.611 40.8927 35.7939C40.8865 35.89 40.8067 35.9647 40.7104 35.9647H40.4036ZM40.0908 36.8244C40.0908 36.6993 40.1325 36.5966 40.2157 36.5163C40.3008 36.4342 40.409 36.3931 40.5403 36.3931C40.6717 36.3931 40.779 36.4342 40.8622 36.5163C40.9473 36.5966 40.9898 36.6993 40.9898 36.8244C40.9898 36.9476 40.9482 37.0493 40.865 37.1296C40.7836 37.2099 40.6754 37.25 40.5403 37.25C40.4053 37.25 40.2962 37.2099 40.2129 37.1296C40.1315 37.0493 40.0908 36.9476 40.0908 36.8244Z" fill="white"/>
</svg>
