<?xml version="1.0" standalone="no"?>
<!DOCTYPE svg PUBLIC "-//W3C//DTD SVG 20010904//EN"
 "http://www.w3.org/TR/2001/REC-SVG-20010904/DTD/svg10.dtd">
<svg version="1.0" xmlns="http://www.w3.org/2000/svg"
 width="712.000000pt" height="712.000000pt" viewBox="0 0 712.000000 712.000000"
 preserveAspectRatio="xMidYMid meet">
<metadata>
Created by potrace 1.11, written by Peter Selinger 2001-2013
</metadata>
<g transform="translate(0.000000,712.000000) scale(0.100000,-0.100000)"
fill="#000000" stroke="none">
<path d="M3057 7103 c-4 -3 -16 -6 -27 -7 l-22 -1 1 -2105 c0 -1158 0 -2143 1
-2188 l0 -84 50 4 c28 1 50 1 50 -2 0 -6 116 -2 143 4 9 2 17 1 17 -2 0 -6
100 -5 170 1 14 1 37 -1 53 -5 15 -3 27 -3 27 2 0 5 12 5 28 1 15 -3 43 -5 62
-4 78 6 140 8 140 3 0 -3 17 -4 37 -3 21 1 49 2 63 3 28 1 156 2 180 1 8 0 44
0 80 0 36 0 72 0 80 0 8 0 44 0 80 0 36 0 70 0 75 0 42 -1 186 0 210 2 17 1
42 -1 58 -5 17 -4 27 -3 27 4 0 7 4 7 13 -1 8 -6 16 -9 18 -7 2 3 70 7 149 10
80 3 155 8 167 10 12 3 46 7 76 10 45 5 102 15 233 42 25 5 152 42 174 51 8 4
17 7 20 8 113 39 260 121 360 201 68 53 190 179 190 195 0 5 5 9 10 9 6 0 10
5 10 12 0 6 6 19 14 27 53 61 137 274 160 406 3 17 8 41 11 55 6 29 17 186 18
245 1 86 -14 224 -33 295 -5 19 -9 37 -9 40 1 6 -37 104 -59 150 -47 102 -177
261 -267 326 -22 16 -42 31 -45 34 -5 5 -76 44 -110 61 -36 17 -89 38 -137 54
-29 10 -53 22 -53 28 0 6 3 8 6 4 8 -8 111 44 194 98 36 23 96 73 134 111 68
69 156 187 156 211 0 7 3 13 8 13 4 0 15 19 24 43 33 81 41 102 43 112 2 6 10
37 18 70 29 110 37 244 24 387 -10 96 -33 223 -47 249 -6 10 -9 19 -6 19 7 0
-48 130 -79 186 -116 210 -332 382 -603 480 -140 51 -331 96 -471 110 -26 2
-57 7 -71 11 -14 3 -425 8 -914 10 -490 2 -893 6 -896 8 -4 3 -10 2 -13 -2z
m1700 -746 c125 -19 272 -72 323 -117 14 -12 35 -30 48 -40 32 -26 88 -123
109 -189 13 -43 17 -91 17 -201 0 -136 -2 -149 -28 -214 -59 -143 -165 -237
-319 -283 -49 -14 -62 -17 -117 -28 -14 -3 -36 -8 -50 -11 -14 -3 -206 -7
-427 -8 l-403 -2 0 554 0 554 408 -5 c224 -3 421 -7 439 -10z m128 -1739 c6
-3 27 -9 48 -12 21 -3 52 -12 70 -19 18 -8 35 -15 40 -15 4 -1 28 -13 55 -26
154 -79 241 -232 258 -452 7 -97 7 -87 0 -154 -12 -103 -55 -212 -106 -270
-12 -14 -30 -35 -40 -47 -18 -23 -133 -103 -154 -108 -6 -1 -24 -8 -41 -14
-16 -7 -34 -14 -40 -15 -54 -14 -72 -18 -85 -23 -8 -3 -33 -7 -55 -10 -53 -6
-896 -11 -912 -5 -10 3 -13 131 -13 592 l0 587 483 -1 c265 -1 487 -4 492 -8z"/>
<path d="M1269 7093 c0 -5 -1 -989 -2 -2187 0 -2141 0 -2179 19 -2183 22 -4
95 -5 172 -1 28 2 52 1 52 -2 0 -5 108 -3 170 3 14 1 37 -1 53 -5 15 -3 27 -3
27 2 0 5 12 5 28 2 15 -4 41 -6 57 -5 24 2 112 3 160 2 6 0 45 0 88 1 l77 1 0
2190 0 2189 -450 0 c-247 0 -450 -3 -451 -7z"/>
<path d="M710 6966 c-65 -29 -88 -61 -94 -128 -4 -47 14 -85 58 -119 21 -16
46 -23 96 -27 83 -5 145 19 174 69 38 65 14 159 -50 194 -41 22 -146 29 -184
11z m177 -89 c20 -19 24 -31 19 -54 -10 -44 -50 -63 -129 -59 -55 2 -70 6 -87
26 -26 30 -25 62 3 87 30 27 42 30 111 27 47 -2 63 -7 83 -27z"/>
<path d="M623 6503 c-3 -6 -3 -22 -1 -35 3 -23 3 -23 171 -24 l167 0 0 33 c0
18 -3 33 -7 34 -5 0 -79 1 -167 2 -114 2 -160 -1 -163 -10z"/>
<path d="M724 6260 c-75 -23 -109 -92 -102 -204 l3 -50 163 1 c89 0 165 3 168
6 13 13 1 142 -16 180 -27 57 -137 91 -216 67z m144 -81 c23 -14 42 -62 35
-89 -3 -12 -23 -15 -107 -14 -57 0 -108 4 -114 8 -11 7 -7 48 9 77 19 36 131
47 177 18z"/>
<path d="M620 5796 c0 -34 2 -36 33 -37 50 -1 108 0 152 2 61 3 100 -19 101
-58 2 -57 -13 -63 -171 -63 -122 0 -115 2 -115 -36 0 -20 5 -34 13 -35 6 0 66
0 131 1 92 0 125 4 147 17 65 39 72 159 12 215 -23 21 -35 23 -164 26 l-139 3
0 -35z"/>
<path d="M625 5420 c-2 -4 -5 -65 -6 -136 l-1 -129 29 -3 c30 -3 30 -3 29 45
l-1 48 142 3 142 3 -1 34 c-1 40 15 36 -168 36 l-115 0 0 42 c1 23 0 47 -3 54
-4 12 -40 14 -47 3z"/>
<path d="M657 4987 c-42 -40 -55 -99 -32 -152 19 -48 37 -64 73 -67 59 -4 81
18 127 130 18 42 33 50 69 36 22 -9 20 -66 -3 -93 -11 -12 -23 -22 -28 -22 -4
1 -8 -14 -8 -31 0 -29 3 -33 24 -30 27 4 69 46 76 76 22 100 -5 170 -70 179
-58 8 -103 -32 -124 -111 -7 -23 -21 -48 -33 -56 -20 -14 -24 -14 -40 1 -25
23 -22 60 7 87 28 26 33 71 10 80 -8 3 -29 -8 -48 -27z"/>
<path d="M789 4458 c-1 -16 -1 -87 0 -109 1 -10 9 -15 24 -14 18 1 23 9 27 41
9 67 1 94 -26 94 -13 0 -24 -6 -25 -12z"/>
<path d="M806 4025 c-22 -24 -23 -24 -39 -5 -21 25 -88 27 -111 4 -29 -29 -34
-49 -32 -139 l1 -89 160 1 c88 1 163 2 168 2 9 1 9 136 1 181 -13 63 -105 92
-148 45z m82 -58 c14 -16 22 -60 16 -84 -5 -17 -24 -20 -87 -14 -15 2 -4 92
12 101 23 13 47 12 59 -3z m-132 -25 c7 -13 9 -35 5 -50 -6 -20 -13 -26 -37
-26 -17 0 -35 3 -41 7 -10 6 -9 52 2 85 8 22 58 10 71 -16z"/>
<path d="M620 3524 c0 -84 3 -114 13 -115 56 -3 319 0 323 4 5 4 5 12 4 60 -1
9 -1 36 -1 60 1 92 -2 101 -30 104 -25 2 -26 1 -24 -68 0 -38 -2 -74 -5 -79
-7 -12 -62 -16 -77 -7 -7 5 -12 31 -12 64 1 57 -9 74 -40 66 -13 -3 -16 -16
-15 -66 0 -55 -2 -63 -20 -68 -12 -3 -30 -3 -41 -1 -18 3 -20 11 -20 81 l0 78
-27 1 -28 1 0 -115z"/>
<path d="M618 3220 c-4 -27 -1 -33 21 -42 14 -5 40 -12 56 -14 89 -12 145 -25
152 -37 3 -5 2 -7 -4 -4 -5 3 -33 0 -62 -8 -28 -7 -55 -14 -59 -14 -4 0 -28
-5 -54 -12 -46 -10 -48 -13 -48 -45 0 -25 4 -34 18 -35 26 -1 96 -16 162 -33
8 -3 24 -5 35 -6 32 -1 -2 -17 -54 -24 -24 -3 -70 -11 -102 -18 -58 -12 -59
-13 -59 -45 0 -36 6 -38 60 -23 19 5 47 12 63 15 15 3 39 8 55 11 15 4 34 7
42 8 9 1 20 5 25 8 6 3 30 8 55 12 45 7 46 7 42 41 -4 33 -8 36 -56 50 -77 22
-126 32 -156 35 -25 1 7 15 70 31 30 7 57 14 60 14 3 1 22 5 43 9 34 8 37 11
37 41 0 38 -8 44 -85 59 -42 8 -195 42 -226 51 -24 6 -27 3 -31 -25z"/>
<path d="M1278 1882 l-28 -3 0 -834 c0 -657 3 -834 13 -837 10 -4 153 -3 182
1 7 1 10 287 10 836 0 549 -3 835 -10 836 -30 3 -144 4 -167 1z"/>
<path d="M1779 1870 c0 -8 -1 -386 -1 -840 l-1 -825 84 -1 c46 0 89 1 95 3 6
2 12 29 13 60 1 32 4 59 6 62 3 2 15 -7 27 -21 71 -78 177 -121 301 -123 89
-2 166 11 179 30 4 5 8 7 8 3 0 -4 22 6 50 23 115 71 199 211 228 381 9 54 9
278 0 338 -16 103 -49 193 -98 265 -83 120 -181 173 -332 180 -127 6 -240 -32
-316 -105 -18 -17 -34 -30 -37 -30 -2 0 -6 138 -7 307 l-3 307 -98 0 c-80 1
-97 -2 -98 -14z m614 -660 c125 -59 186 -199 181 -420 -2 -63 -5 -126 -7 -140
-30 -178 -129 -284 -275 -294 -121 -9 -217 38 -287 142 l-25 37 0 261 0 261
26 39 c48 71 111 116 189 134 55 12 150 2 198 -20z"/>
<path d="M4836 1880 c-2 -3 -2 -381 -2 -840 l1 -835 100 0 100 0 0 838 c0 460
-2 837 -5 838 -25 4 -192 3 -194 -1z"/>
<path d="M6113 1877 c-2 -4 -4 -143 -4 -308 l0 -301 -32 30 c-35 32 -117 86
-117 76 0 -4 -6 -2 -12 3 -34 27 -203 38 -279 18 -142 -38 -262 -158 -315
-317 -10 -29 -19 -62 -20 -73 -1 -11 -3 -20 -4 -20 -21 0 -17 -324 4 -400 9
-33 18 -64 19 -70 2 -5 8 -20 15 -32 7 -12 12 -29 12 -37 0 -9 3 -16 8 -16 4
0 13 -14 21 -31 25 -56 124 -147 198 -181 61 -28 78 -31 163 -32 150 0 227 28
317 113 12 12 24 21 26 21 2 0 4 -19 5 -42 3 -76 2 -75 102 -75 l90 1 0 838
c0 461 -3 838 -7 839 -40 5 -186 2 -190 -4z m-196 -651 c42 -8 111 -50 146
-90 44 -50 46 -61 46 -345 0 -151 -4 -278 -9 -285 -37 -48 -95 -106 -106 -106
-8 0 -14 -4 -14 -9 0 -15 -131 -40 -183 -35 -181 17 -282 173 -280 429 2 117
10 175 34 241 63 171 176 232 366 200z"/>
<path d="M747 1803 c-68 -35 -75 -156 -12 -197 31 -20 94 -23 133 -7 51 21 78
103 50 154 -15 30 -47 57 -70 59 -58 5 -78 4 -101 -9z"/>
<path d="M4344 1809 c-38 -11 -62 -45 -68 -94 -9 -70 40 -128 107 -128 56 1
67 5 96 34 26 25 31 38 31 78 0 50 -17 84 -52 102 -30 16 -77 19 -114 8z"/>
<path d="M709 1386 c-4 -4 -3 -1170 1 -1175 4 -6 145 -8 187 -3 10 2 12 136
12 590 l0 588 -99 0 c-55 1 -100 0 -101 0z"/>
<path d="M3034 1375 c-7 -19 2 -870 10 -900 4 -16 9 -34 10 -40 2 -5 8 -23 14
-38 7 -16 12 -31 12 -34 0 -2 17 -27 38 -53 36 -47 91 -87 142 -103 54 -17 68
-19 151 -22 88 -2 230 25 237 45 2 6 9 10 16 10 7 0 26 11 42 26 16 14 37 30
47 35 16 9 18 7 17 -13 -1 -13 -2 -37 -1 -53 l1 -30 95 -1 c52 0 95 2 96 5 4
23 3 1165 -1 1171 -3 4 -48 7 -100 6 l-95 -1 -1 -75 c0 -42 -3 -80 -6 -85 -3
-6 -3 -19 -1 -30 7 -32 6 -253 -2 -264 -3 -6 -3 -11 2 -11 10 0 9 -162 0 -178
-4 -6 -4 -13 1 -16 8 -5 6 -91 -3 -114 -2 -6 -1 -12 4 -12 7 0 5 -39 -4 -86
-5 -24 -56 -81 -100 -111 -74 -51 -235 -64 -312 -25 -44 23 -79 71 -95 130 -6
21 -11 218 -12 457 l-2 420 -98 0 c-60 1 -100 -3 -102 -10z"/>
<path d="M4295 1382 c-3 -3 -5 -269 -5 -592 l0 -586 100 0 100 0 1 45 c0 57 0
1064 0 1107 l-1 30 -95 1 c-52 0 -97 -2 -100 -5z"/>
</g>
</svg>
