<svg width="24" height="24" viewBox="0 0 24 24" fill="none" xmlns="http://www.w3.org/2000/svg">
<g clip-path="url(#clip0)">
<path d="M23.7041 8.25365C23.702 8.23867 23.6982 8.22435 23.6957 8.20937C23.6907 8.18067 23.6854 8.15196 23.6779 8.12391C23.6735 8.10706 23.6673 8.09086 23.662 8.07466C23.6539 8.0497 23.6458 8.02476 23.6359 8.00045C23.6289 7.9836 23.6209 7.96675 23.6131 7.95055C23.6027 7.92756 23.5911 7.90509 23.5785 7.88321C23.5691 7.86696 23.5592 7.85136 23.5495 7.83579C23.536 7.8146 23.5216 7.79399 23.5064 7.77399C23.4951 7.75895 23.4835 7.74418 23.4715 7.72971C23.4553 7.71074 23.4383 7.69243 23.4206 7.67482C23.4073 7.66114 23.3941 7.64739 23.3801 7.63491C23.3614 7.61811 23.3422 7.60189 23.3224 7.58628C23.3072 7.57443 23.2922 7.56257 23.2763 7.55134C23.2703 7.54759 23.2651 7.5426 23.2595 7.53883L12.4218 0.313778C12.2544 0.202149 12.0578 0.142578 11.8566 0.142578C11.6554 0.142578 11.4587 0.202149 11.2914 0.313778L0.453744 7.53883C0.448152 7.54258 0.442848 7.54757 0.436944 7.55134C0.421008 7.56255 0.406032 7.5744 0.39108 7.58628C0.371217 7.60172 0.351978 7.61794 0.333408 7.63491C0.319056 7.64741 0.305976 7.66114 0.292512 7.67482C0.274914 7.69239 0.258067 7.71071 0.242016 7.72971C0.229872 7.74408 0.218016 7.75906 0.20676 7.77399C0.191685 7.794 0.177433 7.81461 0.16404 7.83579C0.153777 7.85128 0.144004 7.8671 0.134736 7.88321C0.122313 7.9052 0.110752 7.92766 0.10008 7.95055C0.0923041 7.96675 0.084192 7.9836 0.077328 8.00045C0.067344 8.02476 0.059256 8.0497 0.051144 8.07466C0.04584 8.09086 0.039912 8.10708 0.035208 8.12391C0.027744 8.15196 0.022752 8.18067 0.017448 8.20937C0.014976 8.22435 0.011208 8.23867 0.009336 8.25365C0.00322084 8.29768 0.000101668 8.34206 0 8.38651L0 15.6116C0 15.6565 0.003408 15.7008 0.009336 15.7451C0.011208 15.7595 0.014976 15.7744 0.017448 15.7887C0.022752 15.8174 0.027744 15.8461 0.035208 15.8742C0.039912 15.891 0.04584 15.9072 0.051144 15.9234C0.059232 15.9483 0.067344 15.9733 0.077328 15.9982C0.084192 16.0152 0.0923041 16.0314 0.10008 16.0476C0.111024 16.0706 0.122232 16.093 0.134736 16.1155C0.144072 16.1311 0.153744 16.1466 0.16404 16.1623C0.177433 16.1835 0.191685 16.2041 0.20676 16.2241C0.218016 16.2396 0.229872 16.254 0.242016 16.2683C0.257952 16.287 0.2748 16.3058 0.292512 16.3232C0.305976 16.3369 0.319056 16.3506 0.333408 16.3631C0.351952 16.3801 0.371193 16.3963 0.39108 16.4118C0.40602 16.4239 0.421315 16.4355 0.436944 16.4467C0.442848 16.4504 0.448152 16.4555 0.453744 16.4591L11.2914 23.6843C11.4587 23.796 11.6555 23.8557 11.8568 23.8558C12.0579 23.8556 12.2545 23.7959 12.4218 23.6843L23.2594 16.4591C23.2651 16.4555 23.2703 16.4504 23.2763 16.4467C23.2922 16.4355 23.3072 16.4237 23.3224 16.4118C23.3422 16.3962 23.3614 16.3799 23.3801 16.3631C23.3941 16.3506 23.4073 16.3369 23.4206 16.3232C23.4383 16.3056 23.4552 16.2873 23.4715 16.2683C23.4836 16.254 23.4953 16.2393 23.5064 16.2241C23.5216 16.2041 23.5359 16.1835 23.5495 16.1623C23.5591 16.1466 23.5691 16.1311 23.5785 16.1155C23.5912 16.093 23.6024 16.0706 23.6131 16.0476C23.6208 16.0314 23.6289 16.0152 23.6358 15.9982C23.6458 15.9733 23.6539 15.9483 23.662 15.9234C23.6673 15.9072 23.6735 15.891 23.6779 15.8742C23.6854 15.846 23.6907 15.8174 23.6957 15.7887C23.6982 15.7744 23.702 15.7594 23.7041 15.7451C23.7097 15.7008 23.7132 15.6565 23.7132 15.6116V8.38649C23.713 8.34206 23.71 8.29769 23.7041 8.25365ZM12.8756 3.06562L20.8594 8.38774L17.2933 10.7734L12.8756 7.81829V3.06562ZM10.8376 3.06562V7.81829L6.42017 10.7734L2.85379 8.38774L10.8376 3.06562ZM2.03799 10.2938L4.58741 11.999L2.03799 13.7043V10.2938ZM10.8376 20.9325L2.85379 15.6103L6.42017 13.2253L10.8376 16.1798V20.9325ZM11.8568 14.4097L8.25264 11.999L11.8568 9.58838L15.4606 11.999L11.8568 14.4097ZM12.8756 20.9325V16.1798L17.2933 13.2253L20.8594 15.6103L12.8756 20.9325ZM21.6752 13.7043L19.1261 11.999L21.6752 10.2938V13.7043Z" fill="white"/>
</g>
<defs>
<clipPath id="clip0">
<rect width="23.712" height="24" fill="white"/>
</clipPath>
</defs>
</svg>
