<svg width="22" height="22" viewBox="0 0 22 22" fill="none" xmlns="http://www.w3.org/2000/svg">
<g clip-path="url(#clip0)">
<path d="M14.7059 20.9658V17.0601C14.7059 15.9441 14.8118 15.4978 14.1765 14.8282C17.1412 14.4934 20 13.2659 20 8.13266C19.9987 6.79908 19.5051 5.51838 18.6235 4.56169C19.037 3.40332 18.9989 2.11962 18.5176 0.990721C18.5176 0.990721 17.3529 0.655943 14.8118 2.44143C12.6594 1.85064 10.3994 1.85064 8.24706 2.44143C5.70588 0.655943 4.54118 0.990721 4.54118 0.990721C4.05992 2.11962 4.02186 3.40332 4.43529 4.56169C3.55377 5.51838 3.06011 6.79908 3.05882 8.13266C3.05882 13.2659 5.91765 14.4934 8.88235 14.8282C8.24706 15.4978 8.24706 16.1673 8.35294 17.0601V20.9658M8.35294 18.734C3.8 20.2963 3.8 15.9441 2 15.3862L8.35294 18.734Z" stroke="white" stroke-width="2" stroke-linecap="round" stroke-linejoin="round"/>
</g>
<defs>
<clipPath id="clip0">
<rect width="22" height="22" fill="white"/>
</clipPath>
</defs>
</svg>
