<svg width="22" height="23" viewBox="0 0 22 23" fill="none" xmlns="http://www.w3.org/2000/svg">
<path d="M15.1176 22.5704V18.4528C15.1176 17.2763 15.2353 16.8057 14.5294 16.0998C17.8235 15.7469 21 14.4528 21 9.04102C20.9986 7.63509 20.4501 6.28491 19.4706 5.27631C19.93 4.05509 19.8877 2.70175 19.3529 1.5116C19.3529 1.5116 18.0588 1.15866 15.2353 3.04102C12.8438 2.41818 10.3327 2.41818 7.94118 3.04102C5.11765 1.15866 3.82353 1.5116 3.82353 1.5116C3.2888 2.70175 3.24651 4.05509 3.70588 5.27631C2.72642 6.28491 2.1779 7.63509 2.17647 9.04102C2.17647 14.4528 5.35294 15.7469 8.64706 16.0998C7.94118 16.8057 7.94118 17.5116 8.05882 18.4528V22.5704M8.05882 20.2175C3 21.8645 3 17.2763 1 16.6881L8.05882 20.2175Z" stroke="black" stroke-width="2" stroke-linecap="round" stroke-linejoin="round"/>
</svg>
