<svg width="62" height="62" viewBox="0 0 62 62" fill="none" xmlns="http://www.w3.org/2000/svg">
<circle cx="31" cy="31" r="30" stroke="white"/>
<path d="M34 40.0004V36.5004C34 35.5004 34.1 35.1004 33.5 34.5004C36.3 34.2004 39 33.1004 39 28.5004C38.9988 27.3054 38.5325 26.1577 37.7 25.3004C38.0905 24.2624 38.0545 23.1121 37.6 22.1004C37.6 22.1004 36.5 21.8004 34.1 23.4004C32.0672 22.871 29.9328 22.871 27.9 23.4004C25.5 21.8004 24.4 22.1004 24.4 22.1004C23.9455 23.1121 23.9095 24.2624 24.3 25.3004C23.4675 26.1577 23.0012 27.3054 23 28.5004C23 33.1004 25.7 34.2004 28.5 34.5004C27.9 35.1004 27.9 35.7004 28 36.5004V40.0004M28 38.0004C23.7 39.4004 23.7 35.5004 22 35.0004L28 38.0004Z" stroke="white" stroke-width="2" stroke-linecap="round" stroke-linejoin="round"/>
</svg>
