<svg width="22" height="22" viewBox="0 0 22 22" fill="none" xmlns="http://www.w3.org/2000/svg">
<g clip-path="url(#clip0)">
<path d="M10.9914 5.34118C9.49323 5.34118 8.05637 5.93635 6.99697 6.99575C5.93757 8.05515 5.3424 9.49201 5.3424 10.9902C5.3424 12.4884 5.93757 13.9253 6.99697 14.9847C8.05637 16.0441 9.49323 16.6393 10.9914 16.6393C12.4897 16.6393 13.9265 16.0441 14.9859 14.9847C16.0453 13.9253 16.6405 12.4884 16.6405 10.9902C16.6405 9.49201 16.0453 8.05515 14.9859 6.99575C13.9265 5.93635 12.4897 5.34118 10.9914 5.34118ZM10.9914 14.6589C10.0181 14.6589 9.08467 14.2723 8.39642 13.584C7.70818 12.8958 7.32152 11.9623 7.32152 10.989C7.32152 10.0157 7.70818 9.08222 8.39642 8.39398C9.08467 7.70573 10.0181 7.31908 10.9914 7.31908C11.9648 7.31908 12.8982 7.70573 13.5865 8.39398C14.2747 9.08222 14.6614 10.0157 14.6614 10.989C14.6614 11.9623 14.2747 12.8958 13.5865 13.584C12.8982 14.2723 11.9648 14.6589 10.9914 14.6589Z" fill="white"/>
<path d="M16.8641 6.45047C17.5914 6.45047 18.181 5.86084 18.181 5.1335C18.181 4.40615 17.5914 3.81653 16.8641 3.81653C16.1367 3.81653 15.5471 4.40615 15.5471 5.1335C15.5471 5.86084 16.1367 6.45047 16.8641 6.45047Z" fill="white"/>
<path d="M21.4173 3.79454C21.1344 3.06419 20.7022 2.40094 20.1483 1.84725C19.5944 1.29356 18.931 0.861615 18.2006 0.579076C17.3458 0.25821 16.4428 0.0847126 15.53 0.0659706C14.3535 0.01466 13.9809 0 10.9976 0C8.01422 0 7.63183 -1.2288e-07 6.46513 0.0659706C5.55301 0.0837544 4.65064 0.257287 3.79698 0.579076C3.06634 0.861286 2.40276 1.29311 1.84881 1.84685C1.29486 2.40058 0.862785 3.064 0.580298 3.79454C0.259368 4.64924 0.0862683 5.55233 0.068414 6.46513C0.0158818 7.64038 0 8.01299 0 10.9976C0 13.9809 -9.10222e-09 14.3608 0.068414 15.53C0.0867392 16.4438 0.258996 17.3454 0.580298 18.2018C0.863578 18.9321 1.29607 19.5952 1.85016 20.1489C2.40424 20.7025 3.06771 21.1345 3.7982 21.4173C4.65024 21.751 5.55299 21.9369 6.46757 21.967C7.64405 22.0183 8.01666 22.0342 11 22.0342C13.9833 22.0342 14.3657 22.0342 15.5324 21.967C16.4452 21.9485 17.3481 21.7754 18.203 21.4551C18.9333 21.1719 19.5965 20.7396 20.1503 20.1858C20.7042 19.6319 21.1365 18.9687 21.4197 18.2385C21.741 17.3833 21.9133 16.4817 21.9316 15.5679C21.9841 14.3926 22 14.02 22 11.0354C22 8.05087 22 7.67215 21.9316 6.503C21.9174 5.5773 21.7434 4.66101 21.4173 3.79454ZM19.9293 15.4396C19.9214 16.1436 19.7929 16.8411 19.5493 17.5018C19.3658 17.9769 19.085 18.4083 18.7248 18.7683C18.3646 19.1283 17.933 19.4089 17.4578 19.5921C16.8045 19.8345 16.1144 19.963 15.4176 19.972C14.257 20.0258 13.9296 20.0392 10.9536 20.0392C7.97512 20.0392 7.67092 20.0392 6.48834 19.972C5.79189 19.9635 5.10213 19.835 4.44936 19.5921C3.97252 19.41 3.53921 19.1299 3.17745 18.7698C2.8157 18.4098 2.53356 17.9778 2.34929 17.5018C2.10916 16.8482 1.98072 16.159 1.96935 15.4628C1.91681 14.3022 1.9046 13.9748 1.9046 10.9988C1.9046 8.02155 1.9046 7.71735 1.96935 6.53354C1.97724 5.82988 2.10575 5.13279 2.34929 4.47257C2.7219 3.50866 3.48545 2.75 4.44936 2.38105C5.10245 2.13933 5.79201 2.01084 6.48834 2.00111C7.65016 1.94858 7.97635 1.93392 10.9536 1.93392C13.9308 1.93392 14.2362 1.93392 15.4176 2.00111C16.1145 2.00949 16.8046 2.13803 17.4578 2.38105C17.9329 2.56464 18.3645 2.84554 18.7246 3.20572C19.0848 3.56591 19.3657 3.99742 19.5493 4.47257C19.7894 5.1261 19.9179 5.81539 19.9293 6.51155C19.9818 7.67337 19.9952 7.99956 19.9952 10.9768C19.9952 13.9528 19.9952 14.2729 19.9427 15.4408H19.9293V15.4396Z" fill="white"/>
</g>
<defs>
<clipPath id="clip0">
<rect width="22" height="22" fill="white"/>
</clipPath>
</defs>
</svg>
