<svg width="62" height="62" viewBox="0 0 62 62" fill="none" xmlns="http://www.w3.org/2000/svg">
<circle cx="31" cy="31" r="30" stroke="white"/>
<path d="M31 25.4912C28.5 25.4912 26.5078 27.5225 26.5078 29.9834C26.5078 32.4834 28.5 34.4756 31 34.4756C33.4609 34.4756 35.4922 32.4834 35.4922 29.9834C35.4922 27.5225 33.4609 25.4912 31 25.4912ZM31 32.9131C29.3984 32.9131 28.0703 31.624 28.0703 29.9834C28.0703 28.3818 29.3594 27.0928 31 27.0928C32.6016 27.0928 33.8906 28.3818 33.8906 29.9834C33.8906 31.624 32.6016 32.9131 31 32.9131ZM36.7031 25.335C36.7031 24.749 36.2344 24.2803 35.6484 24.2803C35.0625 24.2803 34.5938 24.749 34.5938 25.335C34.5938 25.9209 35.0625 26.3896 35.6484 26.3896C36.2344 26.3896 36.7031 25.9209 36.7031 25.335ZM39.6719 26.3896C39.5938 24.9834 39.2812 23.7334 38.2656 22.7178C37.25 21.7021 36 21.3896 34.5938 21.3115C33.1484 21.2334 28.8125 21.2334 27.3672 21.3115C25.9609 21.3896 24.75 21.7021 23.6953 22.7178C22.6797 23.7334 22.3672 24.9834 22.2891 26.3896C22.2109 27.835 22.2109 32.1709 22.2891 33.6162C22.3672 35.0225 22.6797 36.2334 23.6953 37.2881C24.75 38.3037 25.9609 38.6162 27.3672 38.6943C28.8125 38.7725 33.1484 38.7725 34.5938 38.6943C36 38.6162 37.25 38.3037 38.2656 37.2881C39.2812 36.2334 39.5938 35.0225 39.6719 33.6162C39.75 32.1709 39.75 27.835 39.6719 26.3896ZM37.7969 35.1396C37.5234 35.9209 36.8984 36.5068 36.1562 36.8193C34.9844 37.2881 32.25 37.1709 31 37.1709C29.7109 37.1709 26.9766 37.2881 25.8438 36.8193C25.0625 36.5068 24.4766 35.9209 24.1641 35.1396C23.6953 34.0068 23.8125 31.2725 23.8125 29.9834C23.8125 28.7334 23.6953 25.999 24.1641 24.8271C24.4766 24.085 25.0625 23.499 25.8438 23.1865C26.9766 22.7178 29.7109 22.835 31 22.835C32.25 22.835 34.9844 22.7178 36.1562 23.1865C36.8984 23.46 37.4844 24.085 37.7969 24.8271C38.2656 25.999 38.1484 28.7334 38.1484 29.9834C38.1484 31.2725 38.2656 34.0068 37.7969 35.1396Z" fill="white"/>
</svg>
